<svg width="11" height="11" viewBox="0 0 11 11" fill="none" xmlns="http://www.w3.org/2000/svg">
<path fill-rule="evenodd" clip-rule="evenodd" d="M5 0.5C5 0.367392 5.05268 0.240215 5.14645 0.146447C5.24021 0.0526784 5.36739 0 5.5 0C5.63261 0 5.75979 0.0526784 5.85355 0.146447C5.94732 0.240215 6 0.367392 6 0.5V1.531C6.8812 1.64229 7.70033 2.04357 8.32838 2.67162C8.95643 3.29967 9.35771 4.1188 9.469 5H10.5C10.6326 5 10.7598 5.05268 10.8536 5.14645C10.9473 5.24021 11 5.36739 11 5.5C11 5.63261 10.9473 5.75979 10.8536 5.85355C10.7598 5.94732 10.6326 6 10.5 6H9.469C9.35771 6.8812 8.95643 7.70033 8.32838 8.32838C7.70033 8.95643 6.8812 9.35771 6 9.469V10.5C6 10.6326 5.94732 10.7598 5.85355 10.8536C5.75979 10.9473 5.63261 11 5.5 11C5.36739 11 5.24021 10.9473 5.14645 10.8536C5.05268 10.7598 5 10.6326 5 10.5V9.469C4.1188 9.35771 3.29967 8.95643 2.67162 8.32838C2.04357 7.70033 1.64229 6.8812 1.531 6H0.5C0.367392 6 0.240215 5.94732 0.146447 5.85355C0.0526784 5.75979 0 5.63261 0 5.5C0 5.36739 0.0526784 5.24021 0.146447 5.14645C0.240215 5.05268 0.367392 5 0.5 5H1.531C1.64229 4.1188 2.04357 3.29967 2.67162 2.67162C3.29967 2.04357 4.1188 1.64229 5 1.531V0.5ZM8.5 5.5C8.5 4.70435 8.18393 3.94129 7.62132 3.37868C7.05871 2.81607 6.29565 2.5 5.5 2.5C4.70435 2.5 3.94129 2.81607 3.37868 3.37868C2.81607 3.94129 2.5 4.70435 2.5 5.5C2.5 6.29565 2.81607 7.05871 3.37868 7.62132C3.94129 8.18393 4.70435 8.5 5.5 8.5C6.29565 8.5 7.05871 8.18393 7.62132 7.62132C8.18393 7.05871 8.5 6.29565 8.5 5.5ZM7 5.5C7 5.89782 6.84196 6.27936 6.56066 6.56066C6.27936 6.84196 5.89782 7 5.5 7C5.10218 7 4.72064 6.84196 4.43934 6.56066C4.15804 6.27936 4 5.89782 4 5.5C4 5.10218 4.15804 4.72064 4.43934 4.43934C4.72064 4.15804 5.10218 4 5.5 4C5.89782 4 6.27936 4.15804 6.56066 4.43934C6.84196 4.72064 7 5.10218 7 5.5Z" fill="url(#paint0_linear_13595_137)"/>
<defs>
<linearGradient id="paint0_linear_13595_137" x1="5.5" y1="0" x2="5.5" y2="11" gradientUnits="userSpaceOnUse">
<stop stop-color="#FF4E4E"/>
<stop offset="1" stop-color="#FF9191"/>
</linearGradient>
</defs>
</svg>
