<svg width="12" height="13" viewBox="0 0 12 13" fill="none" xmlns="http://www.w3.org/2000/svg">
<path d="M3.04496 6.41298L7.66969 6.23573L9.00903 10.5969L10.8516 1.50687L3.04496 6.41298ZM1.34234 7.4121C1.2409 7.41625 1.14077 7.38608 1.05762 7.32633C0.97447 7.26658 0.912988 7.18061 0.882796 7.08188C0.852604 6.98314 0.855405 6.87722 0.890762 6.78067C0.926118 6.68412 0.992035 6.60241 1.0782 6.5483L11.2744 0.141675C11.3506 0.093743 11.4392 0.0696904 11.529 0.0724989C11.6189 0.0753073 11.7061 0.104853 11.7799 0.157473C11.8536 0.210094 11.9107 0.283475 11.944 0.368519C11.9774 0.453563 11.9855 0.54653 11.9673 0.635895L9.5501 12.5556C9.52955 12.6566 9.47656 12.7477 9.39943 12.8145C9.32231 12.8813 9.22541 12.92 9.12391 12.9247C9.02242 12.9294 8.92208 12.8997 8.8386 12.8402C8.75512 12.7808 8.69323 12.6951 8.66263 12.5964L7.00385 7.19523L1.34234 7.4121Z" fill="white"/>
</svg>
