<svg width="29" height="30" viewBox="0 0 29 30" fill="none" xmlns="http://www.w3.org/2000/svg">
<path d="M4.30973 13.4946L6.32301 13.3369L6.07522 11.3262L4 11.5627L4.30973 13.4946ZM8.5531 11.0502L6.69469 11.2473L6.94248 13.2975L8.80089 13.1398L8.5531 11.0502ZM14.0973 12.7061L17.1018 12.4695L16.3274 9.11828L14.1283 9L14.4071 10.1434C14.4071 10.2222 14.4381 10.2616 14.4071 10.3405L14.0973 12.7061ZM18.8982 9.27599L17.0089 9.15771L17.7522 12.3907L20.0442 12.1935L18.8982 9.27599ZM20.5708 12.9427L4.4646 14.2832L4.5885 15.19L24.8761 13.4552C24.9381 13.1398 24.969 12.8638 25 12.5484L20.5708 12.9427ZM5.30089 20L18.2478 19.9606C21.3142 19.9606 23.823 17.2401 24.6903 14.3226L4.71239 16.0179L5.30089 20Z" fill="url(#paint0_linear_13524_172)"/>
<defs>
<linearGradient id="paint0_linear_13524_172" x1="14.5" y1="9" x2="14.5" y2="20" gradientUnits="userSpaceOnUse">
<stop stop-color="white"/>
<stop offset="1" stop-color="white"/>
</linearGradient>
</defs>
</svg>
