<svg width="27" height="27" viewBox="0 0 27 27" fill="none" xmlns="http://www.w3.org/2000/svg">
<path d="M18.5556 4H8.44444C8.06135 4 7.69395 4.14588 7.42307 4.40554C7.15218 4.66521 7 5.01739 7 5.38462V20.6154C7 20.9826 7.15218 21.3348 7.42307 21.5945C7.69395 21.8541 8.06135 22 8.44444 22H18.5556C18.9386 22 19.306 21.8541 19.5769 21.5945C19.8478 21.3348 20 20.9826 20 20.6154V5.38462C20 5.01739 19.8478 4.66521 19.5769 4.40554C19.306 4.14588 18.9386 4 18.5556 4ZM13.5 19.9231L10.6111 14.3846H16.3889L13.5 19.9231ZM10.6111 11.6154L13.5 6.07692L16.3889 11.6154H10.6111Z" fill="url(#paint0_linear_13640_161)"/>
<defs>
<linearGradient id="paint0_linear_13640_161" x1="13.5" y1="4" x2="13.5" y2="22" gradientUnits="userSpaceOnUse">
<stop stop-color="#FEFEFE"/>
<stop offset="1" stop-color="#AEAEAE"/>
</linearGradient>
</defs>
</svg>
