<svg width="26" height="26" viewBox="0 0 26 26" fill="none" xmlns="http://www.w3.org/2000/svg">
<path d="M12.8752 3.00311C11.5525 3.06928 10.5 4.18175 10.5 5.54441V8.91829L3 11.4748V15.2356L10.5538 13.9454L10.9081 18.6208L8.99502 20.1153C8.65974 20.3771 8.47715 20.7936 8.50966 21.2225L8.55532 21.8247C8.56777 21.9889 8.61141 22.149 8.68383 22.2962C8.99284 22.9245 9.74379 23.1789 10.3611 22.8644L12.9962 21.522L15.6399 22.8659C15.7842 22.9393 15.9412 22.9835 16.1021 22.9962C16.7904 23.0503 17.3915 22.5262 17.4447 21.8257L17.4922 21.2001L17.4958 21.0932C17.4932 20.7026 17.3139 20.3323 17.0062 20.0924L15.0925 18.5998L15.4456 13.9537L23 15.2396V11.4872L15.5 8.91956V5.54441C15.5 4.13917 14.3807 3 13 3L12.8752 3.00311Z" fill="url(#paint0_linear_12511_86)"/>
<defs>
<linearGradient id="paint0_linear_12511_86" x1="33" y1="1.2337" x2="33" y2="21.2337" gradientUnits="userSpaceOnUse">
<stop stop-color="white"/>
<stop offset="1" stop-color="#C1C1C1"/>
</linearGradient>
</defs>
</svg>
