<svg width="32" height="28" viewBox="0 0 32 28" fill="none" xmlns="http://www.w3.org/2000/svg">
<g filter="url(#filter0_d_12007_16)">
<path d="M12.4447 4.09402C12.3979 4.1075 12.3542 4.13013 12.316 4.16061C12.2779 4.1911 12.2461 4.22886 12.2224 4.27172C12.1988 4.31458 12.1838 4.36171 12.1782 4.41041C12.1726 4.45912 12.1767 4.50845 12.1901 4.55559C12.4277 5.38958 12.9285 6.12306 13.617 6.64519C14.3054 7.16733 15.144 7.44973 16.006 7.44973C16.868 7.44973 17.7066 7.16733 18.3951 6.64519C19.0835 6.12306 19.5844 5.38958 19.822 4.55559C19.8356 4.50838 19.8398 4.45893 19.8344 4.41008C19.829 4.36122 19.814 4.31392 19.7904 4.2709C19.7668 4.22787 19.735 4.18996 19.6967 4.15935C19.6585 4.12874 19.6147 4.10602 19.5677 4.09251C19.5208 4.07899 19.4716 4.07495 19.4231 4.0806C19.3746 4.08626 19.3276 4.1015 19.285 4.12545C19.2423 4.14941 19.2048 4.18161 19.1746 4.2202C19.1443 4.25879 19.1219 4.30301 19.1087 4.35033C18.9154 5.02834 18.5081 5.62462 17.9484 6.04907C17.3886 6.47352 16.7068 6.70309 16.006 6.70309C15.3052 6.70309 14.6234 6.47352 14.0637 6.04907C13.5039 5.62462 13.0966 5.02834 12.9033 4.35033C12.8763 4.25514 12.8128 4.17466 12.7268 4.12659C12.6408 4.07852 12.5393 4.06681 12.4447 4.09402Z" fill="url(#paint0_linear_12007_16)" fill-opacity="0.8" stroke="url(#paint1_linear_12007_16)" stroke-width="0.691289"/>
<path d="M22.8041 8.57758C22.7098 8.54926 22.6082 8.55979 22.5217 8.60684C22.4351 8.65389 22.3707 8.73361 22.3425 8.82848L21.8848 10.3711C21.8745 10.4058 21.8693 10.4418 21.8693 10.478V22.0334L10.1336 22.006V10.4488C10.1336 10.4126 10.1284 10.3766 10.1181 10.342L9.66039 8.79931C9.64662 8.75214 9.62372 8.70818 9.59302 8.66994C9.56233 8.6317 9.52442 8.59994 9.4815 8.57648C9.43857 8.55303 9.39146 8.53834 9.34288 8.53325C9.29429 8.52817 9.24519 8.53279 9.19839 8.54686C9.15158 8.56092 9.108 8.58416 9.07014 8.61522C9.03228 8.64629 9.00089 8.68457 8.97777 8.72788C8.95465 8.77118 8.94026 8.81866 8.93542 8.86758C8.93058 8.9165 8.93539 8.9659 8.94957 9.01295L9.39178 10.5033V22.3785C9.39178 22.4774 9.43074 22.5722 9.50012 22.6422C9.5695 22.7122 9.66362 22.7516 9.76185 22.7518L22.2393 22.7809H22.2402C22.3386 22.7809 22.4329 22.7416 22.5025 22.6716C22.572 22.6016 22.6111 22.5066 22.6111 22.4076V10.5325L23.0533 9.04211C23.0815 8.94724 23.071 8.845 23.0243 8.75789C22.9775 8.67077 22.8983 8.60591 22.8041 8.57758Z" fill="url(#paint2_linear_12007_16)" fill-opacity="0.8" stroke="url(#paint3_linear_12007_16)" stroke-width="0.691289"/>
<path d="M28.8882 9.6331L23.8261 4.53674C23.7879 4.49827 23.7493 4.46033 23.7101 4.42289C22.5992 3.37205 21.1325 2.78624 19.6079 2.78444L19.235 2.78125H19.2319C19.1335 2.78084 19.039 2.81978 18.9691 2.8895C18.8993 2.95922 18.8598 3.05401 18.8594 3.15302C18.859 3.25203 18.8977 3.34716 18.9669 3.41746C19.0362 3.48777 19.1304 3.52749 19.2288 3.52791L19.6016 3.53109C20.9382 3.53151 22.2245 4.04396 23.1993 4.96438C23.2337 4.99725 23.2677 5.03065 23.3014 5.06457L28.1013 9.89704L24.8104 13.2093L23.702 12.0937C23.6324 12.0236 23.5381 11.9843 23.4397 11.9843C23.3413 11.9843 23.247 12.0237 23.1774 12.0937C23.1078 12.1637 23.0687 12.2586 23.0687 12.3577C23.0687 12.4567 23.1078 12.5516 23.1774 12.6216L24.5481 14.0012C24.5826 14.0359 24.6234 14.0634 24.6684 14.0822C24.7135 14.1009 24.7617 14.1106 24.8104 14.1106C24.8591 14.1106 24.9073 14.1009 24.9523 14.0822C24.9974 14.0634 25.0382 14.0359 25.0727 14.0012L28.8881 10.1611C28.9226 10.1264 28.9499 10.0853 28.9686 10.04C28.9872 9.99467 28.9968 9.94612 28.9968 9.89709C28.9968 9.84807 28.9872 9.79952 28.9686 9.75422C28.9499 9.70892 28.9226 9.66777 28.8882 9.6331Z" fill="url(#paint4_linear_12007_16)" fill-opacity="0.8" stroke="url(#paint5_linear_12007_16)" stroke-width="0.691289"/>
<path d="M8.32073 12.0682L7.18637 13.2099L3.89544 9.89763L8.69534 5.0652C8.72899 5.03129 8.76302 4.99791 8.79742 4.96507C9.7722 4.0446 11.0586 3.5321 12.3952 3.53169L12.8371 3.52791C12.9355 3.52749 13.0297 3.48777 13.0989 3.41746C13.1682 3.34716 13.2069 3.25204 13.2065 3.15302C13.2061 3.05401 13.1666 2.95922 13.0967 2.8895C13.0269 2.81978 12.9324 2.78084 12.834 2.78125H12.8308L12.3889 2.78503C10.8643 2.78684 9.39754 3.3727 8.28661 4.4236C8.24755 4.46092 8.20893 4.4988 8.17073 4.53725L3.10862 9.63371C3.03906 9.70372 2.99999 9.79868 3 9.89769C3.00001 9.99669 3.03909 10.0916 3.10865 10.1617L6.9241 14.0018C6.95854 14.0365 6.99943 14.064 7.04444 14.0827C7.08944 14.1015 7.13767 14.1112 7.18639 14.1112C7.2351 14.1112 7.28333 14.1015 7.32834 14.0827C7.37334 14.064 7.41423 14.0365 7.44867 14.0018L8.84531 12.5961C8.91487 12.5261 8.95395 12.4312 8.95395 12.3321C8.95395 12.2331 8.91487 12.1382 8.84531 12.0682C8.77574 11.9981 8.6814 11.9588 8.58302 11.9588C8.48464 11.9588 8.39029 11.9982 8.32073 12.0682Z" fill="url(#paint6_linear_12007_16)" fill-opacity="0.8" stroke="url(#paint7_linear_12007_16)" stroke-width="0.691289"/>
</g>
<defs>
<filter id="filter0_d_12007_16" x="0.529207" y="2.4375" width="30.9416" height="24.9416" filterUnits="userSpaceOnUse" color-interpolation-filters="sRGB">
<feFlood flood-opacity="0" result="BackgroundImageFix"/>
<feColorMatrix in="SourceAlpha" type="matrix" values="0 0 0 0 0 0 0 0 0 0 0 0 0 0 0 0 0 0 127 0" result="hardAlpha"/>
<feOffset dy="2.12704"/>
<feGaussianBlur stdDeviation="1.06352"/>
<feComposite in2="hardAlpha" operator="out"/>
<feColorMatrix type="matrix" values="0 0 0 0 0 0 0 0 0 0 0 0 0 0 0 0 0 0 0.25 0"/>
<feBlend mode="normal" in2="BackgroundImageFix" result="effect1_dropShadow_12007_16"/>
<feBlend mode="normal" in="SourceGraphic" in2="effect1_dropShadow_12007_16" result="shape"/>
</filter>
<linearGradient id="paint0_linear_12007_16" x1="16.0062" y1="4.07812" x2="16.0062" y2="7.44973" gradientUnits="userSpaceOnUse">
<stop stop-color="white"/>
<stop offset="1" stop-color="#B8B8B8"/>
</linearGradient>
<linearGradient id="paint1_linear_12007_16" x1="16.0062" y1="4.07812" x2="16.0062" y2="7.44973" gradientUnits="userSpaceOnUse">
<stop stop-color="white"/>
<stop offset="1" stop-color="#B8B8B8"/>
</linearGradient>
<linearGradient id="paint2_linear_12007_16" x1="16.0012" y1="8.53125" x2="16.0012" y2="22.7809" gradientUnits="userSpaceOnUse">
<stop stop-color="white"/>
<stop offset="1" stop-color="#C7C7C7"/>
</linearGradient>
<linearGradient id="paint3_linear_12007_16" x1="16.0012" y1="8.53125" x2="16.0012" y2="22.7809" gradientUnits="userSpaceOnUse">
<stop stop-color="white"/>
<stop offset="1" stop-color="#B8B8B8"/>
<stop offset="1" stop-color="#B8B8B8"/>
</linearGradient>
<linearGradient id="paint4_linear_12007_16" x1="23.9281" y1="2.78125" x2="23.9281" y2="14.1106" gradientUnits="userSpaceOnUse">
<stop stop-color="white"/>
<stop offset="1" stop-color="#B8B8B8"/>
</linearGradient>
<linearGradient id="paint5_linear_12007_16" x1="23.9281" y1="2.78125" x2="23.9281" y2="14.1106" gradientUnits="userSpaceOnUse">
<stop stop-color="white"/>
<stop offset="1" stop-color="#B8B8B8"/>
</linearGradient>
<linearGradient id="paint6_linear_12007_16" x1="8.10324" y1="2.78125" x2="8.10324" y2="14.1112" gradientUnits="userSpaceOnUse">
<stop stop-color="white"/>
<stop offset="1" stop-color="#B8B8B8"/>
</linearGradient>
<linearGradient id="paint7_linear_12007_16" x1="8.10324" y1="2.78125" x2="8.10324" y2="14.1112" gradientUnits="userSpaceOnUse">
<stop stop-color="white"/>
<stop offset="1" stop-color="#B8B8B8"/>
</linearGradient>
</defs>
</svg>
