<svg width="26" height="26" viewBox="0 0 26 26" fill="none" xmlns="http://www.w3.org/2000/svg">
<path d="M20.0531 17.5986C19.3831 17.2746 18.6771 17.0009 17.9639 16.7704C18.1728 15.8269 18.2953 14.8259 18.3385 13.7887H21.386C21.2635 15.1427 20.8024 16.4608 20.0531 17.5986ZM16.4436 20.6883C16.6093 20.4218 16.775 20.1337 16.9263 19.8312C17.1569 19.3631 17.373 18.8446 17.5531 18.2972C18.0575 18.4627 18.5618 18.6501 19.0373 18.8661C18.3025 19.6223 17.4091 20.2489 16.4436 20.6883ZM13.7924 21.1996V17.5986C14.5417 17.6417 15.291 17.7354 16.0258 17.8939C15.4711 19.5143 14.6642 20.7098 13.7924 21.1996ZM13.7924 13.7887H16.7607C16.7247 14.6818 16.6167 15.5461 16.4437 16.3671C15.5719 16.1799 14.6786 16.0646 13.7924 16.0214V13.7887ZM13.7924 9.97886C14.6786 9.93571 15.5719 9.82048 16.4437 9.63316C16.6165 10.4542 16.7247 11.3185 16.7607 12.2114H13.7924V9.97886ZM13.7924 4.80053C14.6642 5.28308 15.4711 6.48583 16.0258 8.10628C15.291 8.25747 14.5345 8.35836 13.7924 8.39436V4.80053ZM19.0375 7.13403C18.562 7.34289 18.0576 7.53734 17.5533 7.70299C17.3732 7.15564 17.157 6.63709 16.9265 6.1618C16.768 5.85932 16.6094 5.57123 16.4437 5.31197C17.4092 5.74409 18.3026 6.37775 19.0375 7.13403ZM21.3861 12.2115H18.3386C18.2955 11.1745 18.173 10.1733 17.964 9.22996C18.6772 8.9995 19.3761 8.72582 20.0533 8.40173C20.8025 9.53963 21.2636 10.8504 21.3861 12.2115ZM12.2146 8.39451C11.4653 8.35856 10.7161 8.25771 9.97399 8.10643C10.5287 6.48597 11.3429 5.28326 12.2146 4.80068V8.39451ZM12.2146 12.2116H9.23911C9.28221 11.3185 9.39035 10.4542 9.56332 9.63331C10.4351 9.82055 11.3284 9.9358 12.2146 9.979L12.2146 12.2116ZM12.2146 16.0214C11.3213 16.0646 10.4351 16.1798 9.56333 16.3671C9.39051 15.5533 9.28234 14.6818 9.23912 13.7887H12.2146L12.2146 16.0214ZM12.2146 21.1998C11.3429 20.71 10.5288 19.5145 9.97399 17.894C10.7161 17.7356 11.4653 17.642 12.2146 17.5987V21.1998ZM6.96249 18.8663C7.4452 18.6502 7.94952 18.4557 8.45379 18.2973C8.63398 18.8519 8.84285 19.3704 9.08059 19.8385C9.22463 20.1338 9.39039 20.4219 9.56331 20.6883C8.59788 20.249 7.70459 19.6225 6.96249 18.8663ZM4.61372 13.7887H7.66844C7.70444 14.8187 7.83406 15.8197 8.03588 16.7705C7.32261 17.0009 6.6238 17.2818 5.94659 17.5987C5.20451 16.4608 4.74342 15.1427 4.61372 13.7887ZM5.94659 8.4017C6.62382 8.71858 7.32267 8.99947 8.03588 9.22273C7.83414 10.1806 7.70446 11.1817 7.66844 12.2115H4.61372C4.74337 10.8575 5.20449 9.53958 5.94659 8.4017ZM9.56331 5.31196C9.39048 5.57843 9.22469 5.86651 9.08059 6.16178C8.84285 6.62993 8.6339 7.14847 8.45379 7.70297C7.94225 7.53741 7.44514 7.34288 6.96249 7.13402C7.70458 6.37059 8.59788 5.74414 9.56331 5.31196ZM13.0072 3C7.48836 3 3 7.48693 3 12.9964C3 18.5132 7.48848 23 13.0072 23C18.5187 23 23 18.5131 23 12.9964C23 7.48681 18.5187 3 13.0072 3Z" fill="url(#paint0_linear_12416_91)"/>
<defs>
<linearGradient id="paint0_linear_12416_91" x1="13" y1="3" x2="13" y2="23" gradientUnits="userSpaceOnUse">
<stop stop-color="#FF3939"/>
<stop offset="1" stop-color="#FF0000"/>
</linearGradient>
</defs>
</svg>
