<svg width="26" height="26" viewBox="0 0 26 26" fill="none" xmlns="http://www.w3.org/2000/svg">
<path d="M2.50244 6.33333C2.6118 6.33333 2.76023 6.31597 2.94771 6.28125L4.04915 7.50521C3.56483 7.83507 3.04926 8 2.50244 8C2.48682 8 2.46338 7.99566 2.43214 7.98698L2.38527 7.97396L1.0026 22.1667C0.986981 22.3924 1.04166 22.5877 1.16665 22.7526C1.29163 22.9175 1.45568 23 1.65878 23H6.08799C6.29109 23 6.47076 22.9175 6.62699 22.7526C6.78323 22.5877 6.86916 22.3924 6.88478 22.1667L7.44722 16.3333H10.7515C11.8452 16.3333 12.7435 15.8993 13.4466 15.0312C14.1496 14.1632 14.5011 12.9306 14.5011 11.3333H22.7502C22.9533 11.3333 23.1291 11.2509 23.2775 11.0859C23.426 10.921 23.5002 10.7257 23.5002 10.5V9.66667H24.2501C24.4532 9.66667 24.6289 9.5842 24.7774 9.41927C24.9258 9.25434 25 9.05903 25 8.83333V5.5C25 5.27431 24.9258 5.07899 24.7774 4.91406C24.6289 4.74913 24.4532 4.66667 24.2501 4.66667H23.5002V3.83333C23.5002 3.60764 23.426 3.41233 23.2775 3.2474C23.1291 3.08247 22.9533 3 22.7502 3C22.5471 3 22.3714 3.08247 22.223 3.2474C22.0745 3.41233 22.0003 3.60764 22.0003 3.83333V4.66667H5.50212C5.50212 5.27431 5.35369 5.84722 5.05685 6.38542L3.74449 4.90104C3.52577 4.67535 3.27579 4.61458 2.99457 4.71875C2.79147 4.68403 2.62743 4.66667 2.50244 4.66667C2.08061 4.66667 1.72518 4.74913 1.43615 4.91406C1.14712 5.07899 1.0026 5.27431 1.0026 5.5C1.0026 5.72569 1.14712 5.92101 1.43615 6.08594C1.72518 6.25087 2.08061 6.33333 2.50244 6.33333ZM7.93935 11.3333H8.50179C8.50179 11.9931 8.63459 12.6137 8.90018 13.1953C9.16578 13.7769 9.53293 14.2587 10.0016 14.6406V11.3333H12.8607C12.9544 11.6111 13.0013 11.8889 13.0013 12.1667C13.0013 12.8611 12.7826 13.4514 12.3451 13.9375C11.9077 14.4236 11.3765 14.6667 10.7515 14.6667H7.61126L7.93935 11.3333Z" fill="url(#paint0_linear_12513_34)" fill-opacity="0.7"/>
<defs>
<linearGradient id="paint0_linear_12513_34" x1="13" y1="3" x2="13" y2="23" gradientUnits="userSpaceOnUse">
<stop stop-color="#FF3939"/>
<stop offset="1" stop-color="#FF0000"/>
</linearGradient>
</defs>
</svg>
