<svg width="26" height="26" viewBox="0 0 26 26" fill="none" xmlns="http://www.w3.org/2000/svg">
<path fill-rule="evenodd" clip-rule="evenodd" d="M6.125 3L4.29167 8.71429H2V13H3.375V23H6.125V20.1429H19.875V23H22.625V13H24V8.71429H21.7083L19.875 3H6.125ZM7.5 14.4286C6.74061 14.4286 6.125 15.0682 6.125 15.8571C6.125 16.6461 6.74061 17.2857 7.5 17.2857C8.25939 17.2857 8.875 16.6461 8.875 15.8571C8.875 15.0682 8.25939 14.4286 7.5 14.4286ZM17.8929 5.85714H8.10709L6.27376 11.5714H19.7262L17.8929 5.85714ZM18.5 14.4286C17.7406 14.4286 17.125 15.0682 17.125 15.8571C17.125 16.6461 17.7406 17.2857 18.5 17.2857C19.2594 17.2857 19.875 16.6461 19.875 15.8571C19.875 15.0682 19.2594 14.4286 18.5 14.4286Z" fill="url(#paint0_linear_12012_213)"/>
<defs>
<linearGradient id="paint0_linear_12012_213" x1="13" y1="3" x2="13" y2="23" gradientUnits="userSpaceOnUse">
<stop stop-color="white"/>
<stop offset="1" stop-color="#CDCACA"/>
</linearGradient>
</defs>
</svg>
