<svg width="26" height="26" viewBox="0 0 26 26" fill="none" xmlns="http://www.w3.org/2000/svg">
<path d="M2 2H13.732V21.931H2V2ZM12.268 3.38475H3.46405V20.5462H12.268V3.38475ZM12.268 2H24V21.931H12.268V2ZM22.5359 3.38475H13.732V20.5462H22.536L22.5359 3.38475ZM11.1358 6.9204H4.59629V5.53567H11.1358L11.1358 6.9204ZM11.1358 10.4469H4.59629V9.06213H11.1358L11.1358 10.4469ZM21.4037 6.9204H14.8642V5.53567H21.4037L21.4037 6.9204ZM21.4037 10.4469H14.8642V9.06213H21.4037L21.4037 10.4469ZM11.1358 13.9826H9.26178V12.5979H11.1358V13.9826ZM21.4037 13.9826H19.5395V12.5979H21.4037V13.9826ZM5.32832 23.0018H3.86422V21.2386H5.32829L5.32832 23.0018ZM11.8678 23.0018H10.4038V21.2386H11.8678L11.8678 23.0018ZM15.5963 23.0018H14.1322V21.2386H15.5963V23.0018ZM22.1358 23.0018H20.6717V21.2386H22.1358L22.1358 23.0018Z" fill="url(#paint0_linear_12012_55)"/>
<defs>
<linearGradient id="paint0_linear_12012_55" x1="13" y1="2" x2="13" y2="23.0018" gradientUnits="userSpaceOnUse">
<stop stop-color="white"/>
<stop offset="1" stop-color="#B9B9B9"/>
</linearGradient>
</defs>
</svg>
