<svg width="19" height="19" viewBox="0 0 19 19" fill="none" xmlns="http://www.w3.org/2000/svg">
<path d="M8.83506 1.13234C8.51556 1.26468 8.22913 1.5511 7.65633 2.12388C7.08366 2.69654 6.79711 2.98308 6.66479 3.30254C6.48833 3.72853 6.48833 4.20723 6.66479 4.63322C6.79713 4.95272 7.08354 5.23912 7.65636 5.81192C8.22885 6.3844 8.51562 6.67117 8.83504 6.80347C9.26104 6.97992 9.73975 6.97992 10.1658 6.80347C10.4853 6.67113 10.7717 6.38473 11.3445 5.81192C11.9173 5.23912 12.2029 4.95272 12.3352 4.63322C12.5117 4.20723 12.5117 3.72853 12.3352 3.30254C12.2029 2.98304 11.9173 2.69669 11.3445 2.12388C10.7717 1.55109 10.4853 1.26468 10.1658 1.13234C9.73975 0.955887 9.26107 0.955887 8.83506 1.13234Z" stroke="url(#paint0_linear_13645_295)" stroke-width="1.4" stroke-linecap="round" stroke-linejoin="round"/>
<path d="M3.30262 6.66422C2.98311 6.79656 2.6967 7.08297 2.12389 7.65577C1.55123 8.22841 1.26467 8.51497 1.13234 8.83442C0.955886 9.26041 0.955886 9.73911 1.13234 10.1651C1.26469 10.4846 1.5511 10.771 2.12391 11.3438C2.6964 11.9163 2.98318 12.2031 3.30259 12.3354C3.7286 12.5118 4.2073 12.5118 4.63331 12.3354C4.95281 12.203 5.23922 11.9166 5.81204 11.3438C6.38486 10.771 6.67042 10.4846 6.80276 10.1651C6.97922 9.73911 6.97922 9.26041 6.80276 8.83442C6.67042 8.51492 6.38486 8.22857 5.81204 7.65577C5.23922 7.08297 4.95281 6.79656 4.63331 6.66422C4.2073 6.48777 3.72862 6.48777 3.30262 6.66422Z" stroke="url(#paint1_linear_13645_295)" stroke-width="1.4" stroke-linecap="round" stroke-linejoin="round"/>
<path d="M13.1888 7.65577C12.6161 8.22842 12.3296 8.51496 12.1972 8.83442C12.0208 9.26041 12.0208 9.73911 12.1972 10.1651C12.3296 10.4846 12.616 10.771 13.1888 11.3438C13.7613 11.9163 14.0481 12.2031 14.3675 12.3354C14.7935 12.5118 15.2722 12.5118 15.6982 12.3354C16.0177 12.203 16.3041 11.9166 16.8769 11.3438C17.4497 10.771 17.7353 10.4846 17.8677 10.1651C18.0441 9.73911 18.0441 9.26041 17.8677 8.83442C17.7353 8.51493 17.4497 8.22856 16.8769 7.65577C16.3041 7.08297 16.0177 6.79656 15.6982 6.66422C15.2722 6.48777 14.7935 6.48777 14.3675 6.66422C14.048 6.79656 13.7616 7.08297 13.1888 7.65577Z" stroke="url(#paint2_linear_13645_295)" stroke-width="1.4" stroke-linecap="round" stroke-linejoin="round"/>
<path d="M8.83506 12.1965C8.51556 12.3289 8.22915 12.6153 7.65633 13.1881C7.08367 13.7607 6.79711 14.0473 6.66479 14.3667C6.48833 14.7927 6.48833 15.2714 6.66479 15.6974C6.79713 16.0169 7.08354 16.3033 7.65636 16.8761C8.22885 17.4486 8.51563 17.7354 8.83504 17.8677C9.26104 18.0441 9.73975 18.0441 10.1658 17.8677C10.4853 17.7353 10.7717 17.4489 11.3445 16.8761C11.9173 16.3033 12.2029 16.0169 12.3352 15.6974C12.5117 15.2714 12.5117 14.7927 12.3352 14.3667C12.2029 14.0472 11.9173 13.7609 11.3445 13.1881C10.7717 12.6153 10.4853 12.3289 10.1658 12.1965C9.73975 12.0201 9.26107 12.0201 8.83506 12.1965Z" stroke="url(#paint3_linear_13645_295)" stroke-width="1.4" stroke-linecap="round" stroke-linejoin="round"/>
<defs>
<linearGradient id="paint0_linear_13645_295" x1="9.5" y1="1" x2="9.5" y2="18" gradientUnits="userSpaceOnUse">
<stop stop-color="#FF3939"/>
<stop offset="1" stop-color="#FF0000"/>
</linearGradient>
<linearGradient id="paint1_linear_13645_295" x1="9.5" y1="1" x2="9.5" y2="18" gradientUnits="userSpaceOnUse">
<stop stop-color="#FF3939"/>
<stop offset="1" stop-color="#FF0000"/>
</linearGradient>
<linearGradient id="paint2_linear_13645_295" x1="9.5" y1="1" x2="9.5" y2="18" gradientUnits="userSpaceOnUse">
<stop stop-color="#FF3939"/>
<stop offset="1" stop-color="#FF0000"/>
</linearGradient>
<linearGradient id="paint3_linear_13645_295" x1="9.5" y1="1" x2="9.5" y2="18" gradientUnits="userSpaceOnUse">
<stop stop-color="#FF3939"/>
<stop offset="1" stop-color="#FF0000"/>
</linearGradient>
</defs>
</svg>
