<svg width="26" height="26" viewBox="0 0 26 26" fill="none" xmlns="http://www.w3.org/2000/svg">
<path d="M3.08203 6.2526C3.08203 4.6849 3.89453 3.04427 5.16536 2.08594C5.16536 2.96615 5.88411 4.16927 7.2487 4.16927C8.97474 4.16927 10.3737 5.56823 10.3737 7.29427C10.3737 7.69635 10.2904 8.0776 10.1529 8.42969C10.9237 9.04844 11.6904 9.66927 12.4341 10.3151L10.2695 12.4818C9.6237 11.7359 9.00495 10.9672 8.38724 10.1984C8.03307 10.3359 7.65182 10.4193 7.2487 10.4193C4.94661 10.4193 3.08203 8.55469 3.08203 6.2526ZM15.7404 13.3859L17.1362 11.9901C17.7685 12.3068 18.4727 12.5026 19.2279 12.5026C21.8164 12.5026 23.9154 10.4036 23.9154 7.8151C23.9154 7.0599 23.7195 6.35677 23.4018 5.72448L19.7487 9.3776L17.6654 7.29427L21.3185 3.64115C20.6862 3.32344 19.9831 3.1276 19.2279 3.1276C16.6393 3.1276 14.5404 5.22656 14.5404 7.8151C14.5404 8.57031 14.7362 9.27344 15.0539 9.90573L4.1237 20.8359L6.20703 22.9193L13.3404 15.7859C15.3039 17.7943 17.3758 19.6953 19.5664 21.463L21.0508 22.6589L22.6133 21.0964L21.4154 19.612C19.6497 17.4214 17.7487 15.3495 15.7404 13.3859Z" fill="url(#paint0_linear_13637_262)"/>
<defs>
<linearGradient id="paint0_linear_13637_262" x1="13.4987" y1="2.08594" x2="13.4987" y2="22.9193" gradientUnits="userSpaceOnUse">
<stop stop-color="#F5F5F5"/>
<stop offset="1" stop-color="#C5C3C3"/>
</linearGradient>
</defs>
</svg>
