<?xml version="1.0" standalone="no"?>
<!DOCTYPE svg PUBLIC "-//W3C//DTD SVG 20010904//EN"
 "http://www.w3.org/TR/2001/REC-SVG-20010904/DTD/svg10.dtd">
<svg version="1.0" xmlns="http://www.w3.org/2000/svg"
 width="1818.000000pt" height="2049.000000pt" viewBox="0 0 1818.000000 2049.000000"
 preserveAspectRatio="xMidYMid meet">

<g transform="translate(0.000000,2049.000000) scale(0.100000,-0.100000)"
fill="#000000" stroke="none">
<path d="M6435 18068 c-1332 -255 -2342 -563 -3444 -1049 l-214 -94 -107 -160
c-605 -907 -1178 -1993 -1585 -3005 -845 -2101 -1194 -4309 -1050 -6625 26
-419 44 -588 63 -607 27 -26 296 -217 510 -362 587 -398 1146 -723 1777 -1036
682 -338 1250 -570 1993 -816 248 -82 286 -91 308 -76 28 18 318 442 472 688
199 318 472 815 472 859 0 33 -14 41 -230 128 -346 140 -730 324 -1065 510
-133 74 -172 100 -180 121 -6 18 -6 33 1 44 14 22 270 227 309 247 29 16 33
15 180 -50 1930 -854 3972 -1143 5985 -849 976 143 1967 433 2895 849 147 66
150 66 180 51 38 -21 295 -226 308 -247 24 -39 1 -65 -120 -135 -341 -196
-864 -444 -1218 -579 -111 -42 -135 -58 -135 -90 0 -38 234 -464 435 -791 169
-274 480 -737 509 -756 22 -15 57 -7 287 68 1105 359 2149 837 3134 1434 492
299 1180 769 1190 813 13 57 48 546 66 907 15 302 15 1109 0 1400 -39 769
-115 1423 -242 2100 -385 2045 -1177 3946 -2430 5832 l-84 127 -130 60 c-1015
463 -2257 852 -3385 1060 -185 34 -218 38 -236 26 -35 -23 -293 -528 -424
-830 -28 -66 -55 -123 -58 -127 -4 -4 -67 2 -140 12 -330 49 -851 99 -1252
120 -861 45 -1835 -1 -2670 -125 -52 -8 -97 -11 -100 -7 -4 4 -22 43 -40 87
-82 195 -386 799 -432 856 -18 24 -45 28 -103 17z m-230 -5778 c771 -73 1379
-706 1491 -1554 20 -150 14 -474 -11 -611 -47 -257 -125 -474 -240 -670 -287
-488 -746 -787 -1264 -824 -816 -60 -1545 570 -1713 1479 -29 156 -32 534 -5
680 80 434 243 756 527 1041 221 221 455 355 745 425 91 22 218 38 325 43 19
0 85 -4 145 -9z m6165 -16 c416 -69 805 -330 1062 -713 216 -324 318 -672 318
-1089 0 -253 -27 -432 -100 -655 -221 -675 -777 -1138 -1424 -1186 -587 -43
-1142 266 -1477 824 -286 477 -348 1100 -164 1652 117 353 334 663 607 868
184 139 362 225 569 277 202 49 397 56 609 22z"/>
</g>
</svg>
