<svg width="26" height="37" viewBox="0 0 26 37" fill="none" xmlns="http://www.w3.org/2000/svg">
<path d="M13.6667 12.8089V30.3538M13.6667 12.8089V6.7596C13.6667 6.38106 13.6667 6.19177 13.7245 6.03073C13.7755 5.88851 13.8583 5.76261 13.9653 5.66459C14.0867 5.55357 14.2505 5.4937 14.5783 5.37399L21.9117 2.69632C22.5042 2.47998 22.8005 2.37179 23.0363 2.43666C23.2427 2.49343 23.4215 2.63458 23.536 2.83113C23.6667 3.05569 23.6667 3.39777 23.6667 4.08191V10.1313C23.6667 10.5098 23.6667 10.6991 23.6088 10.8601C23.5578 11.0024 23.475 11.1282 23.368 11.2263C23.2467 11.3373 23.0828 11.3971 22.755 11.5169L15.4217 14.1945C14.8292 14.4109 14.5328 14.5191 14.297 14.4542C14.0907 14.3974 13.9118 14.2563 13.7973 14.0597C13.6667 13.8352 13.6667 13.4931 13.6667 12.8089ZM13.6667 30.3538C13.6667 32.8745 11.055 34.918 7.83333 34.918C4.61167 34.918 2 32.8745 2 30.3538C2 27.8329 4.61167 25.7896 7.83333 25.7896C11.055 25.7896 13.6667 27.8329 13.6667 30.3538Z" stroke="url(#paint0_linear_9564_268)" stroke-width="3" stroke-linecap="round" stroke-linejoin="round"/>
<defs>
<linearGradient id="paint0_linear_9564_268" x1="12.8333" y1="2.41797" x2="12.8333" y2="34.918" gradientUnits="userSpaceOnUse">
<stop stop-color="white" stop-opacity="0.7"/>
<stop offset="1" stop-color="#EFEFEF"/>
</linearGradient>
</defs>
</svg>
