<?xml version="1.0" standalone="no"?>
<!DOCTYPE svg PUBLIC "-//W3C//DTD SVG 20010904//EN"
 "http://www.w3.org/TR/2001/REC-SVG-20010904/DTD/svg10.dtd">
<svg version="1.0" xmlns="http://www.w3.org/2000/svg"
 width="1024.000000pt" height="1024.000000pt" viewBox="0 0 1024.000000 1024.000000"
 preserveAspectRatio="xMidYMid meet">

<g transform="translate(0.000000,1024.000000) scale(0.100000,-0.100000)"
fill="#000000" stroke="none">
<path d="M5977 9510 c-109 -20 -188 -77 -241 -174 -36 -66 -52 -109 -116 -316
-23 -74 -48 -149 -56 -167 -8 -17 -14 -37 -14 -43 0 -31 -85 -202 -115 -233
-29 -30 -92 -60 -155 -74 -44 -10 -219 -24 -405 -33 -115 -5 -223 -12 -240
-14 -16 -3 -75 -12 -130 -21 -55 -8 -109 -19 -120 -22 -11 -4 -24 -6 -29 -5
-4 2 -13 -1 -20 -6 -6 -6 -27 -13 -46 -17 -40 -8 -191 -65 -267 -101 -28 -13
-55 -24 -58 -24 -4 0 -13 -7 -21 -15 -19 -19 -63 -19 -89 -2 -11 8 -51 22 -90
31 -38 10 -77 22 -86 26 -39 20 -242 42 -399 43 -157 1 -367 -22 -395 -42 -5
-4 -37 -13 -70 -21 -33 -7 -71 -17 -85 -23 -14 -6 -27 -11 -30 -12 -3 -1 -18
-7 -33 -13 -16 -7 -31 -12 -35 -12 -4 0 -23 -8 -42 -19 -19 -10 -46 -22 -60
-26 -36 -11 -237 -122 -293 -162 -26 -18 -50 -33 -53 -33 -14 0 -146 -115
-217 -189 -88 -93 -137 -180 -144 -261 -12 -132 49 -212 200 -260 20 -6 37
-16 37 -22 0 -15 -331 -342 -470 -464 -213 -188 -249 -239 -250 -352 0 -75 26
-138 77 -183 42 -36 149 -90 218 -109 28 -7 55 -16 60 -19 6 -3 12 -6 15 -7 3
0 18 -6 33 -12 16 -7 33 -12 38 -12 19 0 8 -29 -27 -72 -19 -23 -41 -50 -47
-58 -26 -33 -118 -194 -148 -257 -45 -101 -87 -218 -95 -269 -3 -24 -10 -47
-15 -49 -4 -3 -6 -12 -2 -20 3 -9 1 -21 -5 -28 -12 -15 -15 -55 -16 -187 -1
-121 3 -145 36 -220 46 -102 128 -153 245 -152 75 1 118 18 156 63 l34 39 87
-76 c114 -99 155 -156 187 -259 6 -16 14 -102 18 -190 7 -146 10 -165 36 -215
46 -92 101 -128 213 -139 70 -7 80 -5 132 20 30 15 69 40 85 56 136 127 183
160 258 180 12 3 81 9 152 12 91 5 140 12 163 23 18 9 38 15 45 12 17 -8 250
-284 245 -290 -3 -2 -34 3 -69 11 -102 26 -316 31 -424 10 -49 -9 -94 -19
-100 -23 -5 -4 -12 -7 -15 -8 -35 -7 -210 -95 -210 -106 0 -4 -7 -8 -16 -8
-23 0 -225 -208 -253 -260 -13 -25 -32 -63 -43 -85 -10 -22 -23 -47 -28 -56
-18 -34 -32 -142 -28 -218 8 -136 77 -237 206 -301 55 -27 77 -32 170 -37
l107 -5 98 -96 c53 -53 97 -101 97 -107 0 -5 -16 -33 -36 -60 -55 -77 -104
-181 -120 -254 -38 -182 5 -350 114 -441 52 -44 54 -44 87 -58 17 -6 44 -17
60 -23 47 -19 74 -23 170 -22 88 1 124 5 155 16 8 3 33 11 55 17 45 14 61 20
191 79 50 23 94 41 99 41 9 0 -2 -59 -22 -119 -9 -27 -15 -80 -15 -133 0 -77
4 -97 30 -151 47 -98 120 -160 218 -184 87 -22 180 -7 276 43 l68 34 41 -82
c125 -248 296 -432 485 -519 64 -30 77 -33 179 -33 61 -1 119 3 130 8 11 5 22
10 25 11 29 8 110 49 110 56 0 5 7 9 15 9 27 0 205 181 264 269 83 123 141
224 141 244 0 30 26 29 93 -2 202 -94 391 -42 480 134 27 55 30 69 31 165 1
85 -4 118 -22 172 -25 71 -23 94 6 78 46 -24 172 -80 182 -80 6 0 25 -7 43
-17 70 -36 172 -56 282 -56 80 0 112 4 130 15 6 3 27 11 49 18 54 17 118 62
165 116 90 102 114 259 66 420 -26 85 -87 207 -124 249 -37 42 -36 44 65 146
l99 99 77 0 c100 0 164 14 233 52 75 40 122 90 156 165 25 55 29 74 29 156 0
169 -74 328 -225 482 -85 86 -221 176 -310 205 -22 7 -44 16 -50 20 -22 16
-124 33 -232 39 -115 6 -315 -16 -356 -40 -34 -19 -30 0 9 48 61 76 209 246
236 271 25 22 26 22 59 5 19 -10 37 -22 41 -28 4 -5 8 -6 8 -1 0 5 7 3 16 -5
10 -9 64 -15 162 -19 160 -8 187 -16 287 -94 22 -17 45 -34 50 -38 6 -4 34
-29 64 -55 73 -65 80 -69 131 -83 68 -18 110 -18 165 2 63 23 93 45 127 94 39
56 50 101 58 254 12 209 35 279 130 383 56 60 167 154 173 146 2 -2 14 -19 27
-38 46 -67 183 -96 273 -57 108 46 167 164 167 334 0 71 -27 271 -39 287 -4 5
-13 35 -20 65 -8 30 -17 60 -21 65 -4 6 -13 28 -20 50 -35 112 -140 303 -225
409 -30 38 -55 73 -55 77 0 7 54 27 145 55 142 43 266 127 307 208 30 59 22
169 -17 228 -32 49 -121 140 -179 183 -131 98 -516 466 -516 492 0 7 12 15 28
19 58 13 69 17 118 46 28 17 59 43 68 59 29 48 47 126 40 167 -6 35 -49 145
-66 167 -51 68 -116 140 -155 171 -26 22 -50 42 -53 45 -17 20 -239 161 -310
196 -78 38 -157 75 -170 77 -3 1 -9 4 -15 7 -5 4 -35 14 -65 24 -30 10 -59 21
-65 25 -5 4 -44 15 -85 24 -41 10 -83 22 -93 27 -10 5 -47 13 -82 16 -90 8
-95 14 -52 60 184 193 163 539 -45 739 -46 45 -207 164 -222 164 -3 0 -27 13
-55 29 -27 16 -52 27 -55 24 -3 -4 -6 -1 -6 5 0 7 -6 12 -13 12 -7 0 -29 9
-48 19 -20 11 -70 30 -110 42 -41 12 -78 25 -84 29 -5 4 -37 13 -70 20 -33 7
-64 15 -70 19 -5 3 -19 7 -30 8 -11 1 -40 6 -65 12 -63 15 -276 22 -333 11z
m-8 -540 c11 -24 11 -24 -3 -6 -9 11 -16 24 -16 30 0 12 5 7 19 -24z m179
-181 c23 -17 42 -33 42 -35 0 -18 -143 103 -190 161 -14 17 4 2 40 -32 36 -35
84 -77 108 -94z m920 10 c-3 -8 -7 -3 -11 10 -4 17 -3 21 5 13 5 -5 8 -16 6
-23z m-730 -128 c34 -17 62 -34 62 -37 0 -9 -180 89 -193 105 -7 8 6 3 28 -11
23 -14 69 -40 103 -57z m729 17 c-3 -8 -6 -5 -6 6 -1 11 2 17 5 13 3 -3 4 -12
1 -19z m-37 -78 c-22 -30 -78 -61 -109 -59 -9 0 -4 4 11 9 42 13 88 43 94 62
3 10 10 18 15 18 6 0 1 -14 -11 -30z m-560 -2 c10 -6 7 -7 -10 -2 -14 3 -32
11 -40 16 -10 6 -7 7 10 2 14 -3 32 -11 40 -16z m100 -33 c56 -16 35 -19 -26
-4 -24 6 -47 16 -51 22 -4 7 0 8 13 3 10 -5 39 -14 64 -21z m120 -25 l25 -8
-25 0 c-14 0 -36 4 -50 8 l-25 8 25 0 c14 0 36 -4 50 -8z m207 -6 c-3 -3 -12
-4 -19 -1 -8 3 -5 6 6 6 11 1 17 -2 13 -5z m-69 -11 c-10 -2 -26 -2 -35 0 -10
3 -2 5 17 5 19 0 27 -2 18 -5z m-1521 -177 c4 -4 -26 -39 -66 -79 -234 -230
-156 -456 246 -719 115 -75 271 -153 376 -186 112 -37 117 -38 252 -57 145
-20 207 -19 334 6 132 26 225 71 297 144 l53 53 19 -32 c33 -57 82 -167 99
-225 21 -72 28 -218 14 -301 -7 -36 -20 -132 -31 -215 -27 -209 -71 -519 -75
-523 -1 -1 -27 13 -56 33 -65 43 -161 74 -249 82 -106 8 -192 -21 -455 -157
-301 -155 -402 -192 -528 -192 -106 0 -117 16 -146 217 -11 72 -24 146 -29
165 l-9 35 -8 -30 c-4 -16 -11 -46 -17 -65 -27 -99 -58 -212 -73 -265 -42
-157 -93 -245 -161 -278 -40 -19 -49 -20 -92 -8 -26 6 -59 24 -74 38 -39 37
-83 131 -119 253 -17 58 -37 125 -46 150 -8 25 -20 66 -26 93 -6 26 -14 47
-17 47 -7 0 -27 -91 -41 -190 -21 -150 -32 -163 -138 -161 -93 1 -213 41 -335
109 -160 89 -367 192 -415 206 -138 40 -289 27 -398 -35 -30 -17 -55 -30 -57
-28 -5 7 -47 373 -87 744 -10 96 -5 199 10 220 5 6 14 33 21 60 26 99 174 370
276 503 57 76 190 207 271 268 73 55 262 156 353 189 220 79 406 121 610 135
129 9 507 6 517 -4z m1221 -2183 c-16 -2 -40 -2 -55 0 -16 2 -3 4 27 4 30 0
43 -2 28 -4z m-2793 -14 c22 -6 59 -19 82 -30 24 -10 47 -19 52 -19 4 0 66
-36 137 -81 144 -90 195 -118 271 -144 29 -11 51 -21 48 -23 -10 -10 -154 55
-252 115 -233 143 -301 172 -428 183 l-90 7 70 1 c39 1 88 -3 110 -9z m2648
-4 c-29 -8 -71 -24 -93 -35 -42 -21 -68 -27 -35 -8 42 25 131 58 155 57 15 0
3 -6 -27 -14z m220 8 c-7 -2 -21 -2 -30 0 -10 3 -4 5 12 5 17 0 24 -2 18 -5z
m-3060 -10 c-7 -2 -21 -2 -30 0 -10 3 -4 5 12 5 17 0 24 -2 18 -5z m3143 -10
l52 -18 -51 -55 c-29 -30 -67 -73 -85 -95 l-33 -40 29 45 c16 25 50 66 74 92
l44 48 -50 19 c-64 25 -50 27 20 4z m-3226 -8 c-46 -18 -64 -17 -25 0 17 8 37
14 45 14 8 0 -1 -7 -20 -14z m46 -145 c28 -36 54 -72 58 -80 4 -8 -3 -2 -16
14 -13 16 -54 68 -92 115 -38 47 -53 70 -35 51 19 -19 57 -64 85 -100z m3483
115 c43 -22 97 -90 121 -153 12 -32 26 -66 31 -77 29 -64 37 -241 18 -382 -14
-109 -60 -263 -107 -358 -21 -44 -44 -96 -51 -115 -7 -19 -19 -48 -26 -65 -7
-16 -18 -50 -25 -75 -6 -25 -15 -54 -20 -65 -5 -11 -19 -65 -30 -120 -37 -188
-26 -167 -229 -405 -95 -111 -363 -391 -369 -386 -3 3 5 29 18 58 22 51 33 76
100 221 17 38 30 72 28 77 -4 10 -215 -237 -278 -326 -27 -38 -62 -87 -78
-109 -80 -107 -237 -396 -347 -640 -106 -233 -176 -349 -272 -450 -137 -145
-357 -205 -580 -159 -115 23 -197 67 -274 143 -84 84 -137 166 -234 366 -329
678 -383 765 -728 1158 l-27 32 10 -28 c5 -15 18 -46 29 -70 10 -23 33 -76 50
-117 18 -41 39 -91 49 -110 9 -19 18 -38 20 -42 2 -5 -1 -8 -6 -8 -5 0 -54 49
-108 108 -412 451 -411 449 -434 637 -13 100 -57 300 -86 385 -9 25 -29 72
-45 104 -80 157 -109 292 -109 501 0 154 17 243 61 326 41 76 103 139 136 139
65 0 206 -154 239 -259 9 -31 20 -60 24 -66 4 -5 13 -26 19 -46 15 -47 94
-166 134 -203 158 -142 371 -181 620 -112 32 9 70 22 85 30 15 7 38 17 51 21
21 6 23 5 17 -11 -30 -79 -91 -534 -71 -534 6 0 27 43 120 250 49 107 116 218
168 277 33 38 54 44 35 11 -9 -15 -13 -64 -13 -144 0 -119 0 -121 38 -196 136
-276 498 -330 704 -106 51 56 76 105 97 185 20 76 20 161 1 233 -8 30 -13 56
-11 58 2 1 24 -23 50 -55 52 -65 133 -215 187 -343 47 -114 78 -171 78 -145 1
42 -18 209 -28 253 -6 26 -20 101 -31 166 -12 66 -26 128 -31 138 -11 21 -2
23 20 4 29 -25 171 -77 263 -96 125 -27 207 -26 313 5 188 55 315 187 401 415
46 123 104 201 198 264 44 30 74 32 115 11z m-759 -10 c0 -2 -21 -17 -47 -32
-27 -15 -79 -47 -117 -71 -66 -42 -116 -66 -116 -57 0 3 15 11 33 19 17 9 79
45 137 80 110 69 110 69 110 61z m-295 -174 c-6 -5 -21 -11 -35 -15 -21 -5
-20 -3 5 9 35 17 42 18 30 6z m618 -18 c-34 -54 -128 -190 -148 -214 -49 -59
-147 -128 -205 -143 -14 -3 -2 4 25 18 106 50 194 141 290 299 22 37 43 67 48
67 4 0 0 -12 -10 -27z m-2954 -48 c11 -19 17 -35 13 -35 -5 0 -16 16 -25 35
-9 19 -15 35 -13 35 2 0 13 -16 25 -35z m2226 25 c-27 -12 -43 -12 -25 0 8 5
22 9 30 9 10 0 8 -3 -5 -9z m-60 -20 c-11 -5 -40 -8 -65 -8 l-45 1 50 7 c72
10 83 10 60 0z m-1377 -7 c-10 -2 -26 -2 -35 0 -10 3 -2 5 17 5 19 0 27 -2 18
-5z m1187 -4 c11 -17 -1 -21 -15 -4 -8 9 -8 15 -2 15 6 0 14 -5 17 -11z
m-1057 -61 c-69 -102 -173 -193 -271 -236 -55 -24 -40 -11 38 33 90 52 147
103 212 190 l44 60 -68 6 -68 5 78 2 78 2 -43 -62z m1220 -129 c44 -40 49 -47
23 -33 -34 20 -154 143 -173 179 -6 11 13 -6 41 -37 29 -31 78 -80 109 -109z
m-2044 59 c57 -77 103 -120 161 -151 17 -9 25 -16 19 -17 -18 0 -98 57 -135
97 -32 36 -95 120 -113 153 -16 27 9 -3 68 -82z m2166 -144 c0 -2 -13 2 -30
11 -16 9 -30 18 -30 21 0 2 14 -2 30 -11 17 -9 30 -18 30 -21z m45 -14 c13 -6
15 -9 5 -9 -8 0 -22 4 -30 9 -18 12 -2 12 25 0z m-1984 -21 c11 -5 64 -14 117
-19 l97 -9 -95 3 c-64 2 -105 8 -125 19 -17 9 -26 16 -22 17 5 0 17 -5 28 -11z
m2036 5 c-3 -3 -12 -4 -19 -1 -8 3 -5 6 6 6 11 1 17 -2 13 -5z m40 -10 c-3 -3
-12 -4 -19 -1 -8 3 -5 6 6 6 11 1 17 -2 13 -5z m170 0 c-3 -3 -12 -4 -19 -1
-8 3 -5 6 6 6 11 1 17 -2 13 -5z m-1994 -11 c-7 -2 -19 -2 -25 0 -7 3 -2 5 12
5 14 0 19 -2 13 -5z m1925 0 c-15 -2 -42 -2 -60 0 -18 2 -6 4 27 4 33 0 48 -2
33 -4z m-1122 -37 c46 -46 45 -77 -5 -127 -30 -30 -46 -39 -73 -39 -67 0 -115
68 -87 122 43 85 107 102 165 44z m-2279 -1786 c-53 -63 -107 -228 -107 -324
2 -142 79 -211 254 -226 50 -4 128 -5 174 -2 45 3 82 2 82 -1 0 -10 -337 -87
-382 -87 -66 0 -160 36 -202 76 -121 117 -61 365 131 545 67 62 95 73 50 19z
m1621 -728 c34 -70 89 -164 122 -209 33 -46 54 -85 49 -89 -18 -11 -83 42
-154 126 -39 45 -91 107 -117 138 -50 57 -58 79 -34 88 7 3 22 21 32 40 10 19
23 34 29 33 5 0 38 -57 73 -127z m1536 111 c3 -10 19 -34 35 -53 32 -36 32
-34 -14 -86 -11 -12 -31 -37 -45 -56 -35 -47 -238 -248 -250 -248 -19 0 -10
27 23 71 53 70 103 152 153 251 71 140 86 159 98 121z m-2816 -173 c65 -43
148 -129 163 -170 15 -36 2 -90 -36 -153 -43 -71 -85 -207 -85 -273 0 -63 33
-166 68 -212 14 -18 47 -46 74 -61 26 -15 46 -30 43 -33 -3 -2 -33 -1 -67 4
-76 10 -139 46 -178 100 -41 56 -53 109 -47 196 7 98 70 229 156 325 34 37 61
72 61 77 0 4 -53 60 -117 124 -65 64 -113 116 -107 116 7 0 39 -18 72 -40z"/>
<path d="M3679 6695 c-81 -29 -167 -104 -204 -174 -18 -36 -16 -37 69 -15 43
11 91 15 161 12 87 -3 109 -8 169 -36 83 -39 156 -90 301 -211 165 -139 251
-183 307 -160 15 6 28 17 28 24 0 21 -45 70 -118 127 -37 29 -121 98 -187 153
-223 186 -294 239 -363 267 -74 30 -109 33 -163 13z"/>
<path d="M6350 6700 c-90 -22 -130 -47 -472 -306 -73 -55 -170 -124 -215 -153
-110 -70 -121 -106 -35 -118 65 -9 163 46 379 212 229 177 363 212 596 158 37
-8 71 -13 74 -9 9 9 -64 111 -105 147 -63 56 -156 84 -222 69z"/>
<path d="M4549 5243 c-13 -16 -12 -17 4 -4 9 7 17 15 17 17 0 8 -8 3 -21 -13z"/>
<path d="M5555 5190 c21 -22 41 -40 44 -40 3 0 -13 18 -34 40 -21 22 -41 40
-44 40 -3 0 13 -18 34 -40z"/>
<path d="M3461 5035 c-6 -43 -7 -84 -2 -97 4 -13 12 -45 15 -72 4 -27 13 -60
19 -75 11 -26 97 -159 123 -190 7 -9 42 -52 77 -97 85 -109 202 -247 527 -623
69 -80 158 -183 199 -230 307 -358 383 -426 522 -472 124 -41 262 -3 386 107
51 44 202 205 318 339 130 150 348 397 489 554 94 105 219 258 295 361 39 52
80 107 92 123 64 84 105 216 95 306 -17 148 -26 168 -41 86 -4 -22 -10 -44
-14 -50 -4 -5 -13 -28 -20 -50 -22 -63 -83 -146 -163 -220 -89 -82 -251 -165
-368 -188 -192 -39 -249 -42 -401 -22 -79 10 -166 24 -194 31 -97 24 -200 56
-209 65 -21 19 -46 7 -76 -36 -38 -55 -72 -79 -99 -70 -11 3 -42 30 -68 60
l-48 53 -89 -33 c-49 -19 -145 -46 -215 -61 -109 -24 -149 -28 -296 -28 -155
0 -179 2 -274 27 -201 54 -347 152 -444 300 -42 63 -93 178 -103 233 -11 57
-21 48 -33 -31z m674 -701 c50 -14 127 -32 173 -41 93 -18 88 -8 76 -135 l-7
-66 -56 36 c-138 88 -348 256 -296 237 11 -4 61 -18 110 -31z m1925 -6 c-102
-89 -321 -238 -351 -238 -15 0 -11 180 4 184 6 2 73 15 148 30 74 14 153 32
175 40 58 22 63 18 24 -16z m-1463 -82 l105 -11 -1 -125 c-1 -68 -4 -126 -7
-129 -6 -6 -170 47 -216 71 -36 17 -38 21 -38 66 0 26 3 71 7 100 5 46 8 52
26 46 10 -3 67 -11 124 -18z m1048 -98 l6 -86 -43 -16 c-43 -16 -202 -65 -204
-62 -1 0 -4 58 -8 127 l-6 127 91 7 c50 4 103 11 118 14 33 10 37 0 46 -111z
m-619 -12 c-3 -45 -5 -107 -5 -138 l-1 -58 -61 0 c-33 0 -91 5 -130 11 l-69
12 0 132 c0 72 2 134 4 136 2 2 63 0 135 -5 l132 -9 -5 -81z m313 -35 l2 -129
-67 -11 c-36 -7 -95 -15 -130 -18 l-64 -6 0 141 0 141 48 4 c26 2 84 4 129 5
l81 2 1 -129z m-698 -169 l57 -16 4 -115 c3 -64 4 -117 3 -119 -8 -11 -233
116 -245 139 -7 12 -14 136 -11 171 1 4 31 -5 69 -19 37 -14 92 -33 123 -41z
m1009 -11 l0 -69 -52 -39 c-51 -38 -178 -113 -191 -113 -4 0 -7 51 -7 114 l0
114 33 6 c17 3 64 17 102 30 114 39 115 38 115 -43z m-310 -129 l0 -119 -73
-21 c-40 -12 -99 -24 -130 -28 l-57 -7 0 130 0 130 88 6 c48 4 101 11 117 16
56 17 55 20 55 -107z m-417 91 l97 -6 0 -130 0 -130 -78 6 c-43 3 -100 14
-125 24 l-47 18 -4 118 -3 119 31 -6 c17 -4 75 -10 129 -13z"/>
<path d="M4472 4237 c3 -6 18 -19 34 -27 16 -8 56 -30 88 -48 32 -18 65 -31
72 -28 9 3 14 21 14 44 l0 39 -77 12 c-43 7 -91 14 -106 16 -20 3 -27 1 -25
-8z"/>
<path d="M4600 3114 c0 -12 69 -78 126 -122 23 -18 76 -48 118 -68 127 -60
276 -59 401 4 58 29 145 94 194 146 42 43 37 45 -26 8 -26 -16 -84 -42 -128
-58 -76 -28 -88 -29 -240 -29 -140 0 -169 3 -235 24 -81 26 -165 64 -192 89
-10 8 -18 11 -18 6z"/>
</g>
</svg>
