<svg width="26" height="26" viewBox="0 0 26 26" fill="none" xmlns="http://www.w3.org/2000/svg">
<path d="M16.5455 10.5H22.9155L18.98 5.5H16.5455V10.5ZM19.5 21.125C19.9609 21.125 20.3745 20.9625 20.7291 20.5875C21.0836 20.2125 21.2727 19.775 21.2727 19.25C21.2727 18.7625 21.0836 18.325 20.7291 17.95C20.3745 17.575 19.9609 17.375 19.5 17.375C19.0036 17.375 18.59 17.575 18.2355 17.95C17.8809 18.325 17.7273 18.7625 17.7273 19.25C17.7273 19.775 17.8809 20.2125 18.2355 20.5875C18.59 20.9625 19.0036 21.125 19.5 21.125ZM5.90909 21.125C6.42909 21.125 6.85455 20.9625 7.18545 20.5875C7.51636 20.2125 7.68182 19.775 7.68182 19.25C7.68182 18.7625 7.51636 18.325 7.18545 17.95C6.85455 17.575 6.42909 17.375 5.90909 17.375C5.38909 17.375 4.96364 17.575 4.63273 17.95C4.30182 18.325 4.13636 18.7625 4.13636 19.25C4.13636 19.775 4.30182 20.2125 4.63273 20.5875C4.96364 20.9625 5.38909 21.125 5.90909 21.125ZM20.0909 3L26 10.5V19.25H23.0455C23.0455 20.2875 22.6791 21.1625 21.97 21.9125C21.2727 22.65 20.4455 23 19.5 23C18.5191 23 17.6918 22.65 16.9945 21.9125C16.2855 21.1625 15.9545 20.2875 15.9545 19.25H9.45455C9.45455 20.2875 9.1 21.1625 8.40273 21.9125C7.68182 22.65 6.86636 23 5.90909 23C4.95182 23 4.13636 22.65 3.41545 21.9125C2.71818 21.1625 2.36364 20.2875 2.36364 19.25H0V14.25H9.67909L2.36364 8.1375V11.75H0V4.25H1.18182L14.1818 11.825V3H20.0909Z" fill="url(#paint0_linear_12012_310)"/>
<defs>
<linearGradient id="paint0_linear_12012_310" x1="13" y1="3" x2="13" y2="23" gradientUnits="userSpaceOnUse">
<stop stop-color="white"/>
<stop offset="1" stop-color="#B8B8B8"/>
</linearGradient>
</defs>
</svg>
