<svg width="26" height="26" viewBox="0 0 26 26" fill="none" xmlns="http://www.w3.org/2000/svg">
<path fill-rule="evenodd" clip-rule="evenodd" d="M3.03485 15.803V22.25C3.03485 22.664 3.36966 23 3.7822 23H5.39049C5.56748 23 5.73874 22.937 5.87377 22.8222C6.00881 22.7074 6.09885 22.5482 6.12788 22.373L6.52248 20H19.4765L19.8701 22.373C19.8992 22.5482 19.9892 22.7074 20.1242 22.8222C20.2593 22.937 20.4305 23 20.6075 23H22.2168C22.415 23 22.6051 22.921 22.7453 22.7803C22.8854 22.6397 22.9642 22.4489 22.9642 22.25V15.803C22.9642 14.6274 22.6175 13.4781 21.9677 12.5L21.1904 11.33C21.1211 11.2258 21.0617 11.1153 21.0131 11H22.0036C22.1424 11 22.2785 10.9612 22.3966 10.8879C22.5147 10.8146 22.6102 10.7097 22.6722 10.585L22.9213 10.085C22.9781 9.97073 23.005 9.84379 22.9992 9.7162C22.9935 9.58861 22.9554 9.46461 22.8885 9.35594C22.8217 9.24727 22.7283 9.15754 22.6172 9.09525C22.506 9.03296 22.3809 9.00017 22.2537 9H20.5726L20.2637 7.454C20.1698 6.98316 19.9426 6.54944 19.6095 6.20469C19.2764 5.85995 18.8515 5.61878 18.3854 5.51C16.9286 5.17 15.1329 5 12.9995 5C10.8651 5 9.07044 5.17 7.61361 5.51C7.14736 5.61861 6.72217 5.85971 6.38888 6.20446C6.05559 6.54922 5.82833 6.98303 5.73428 7.454L5.42537 9H3.74633C3.61906 9.00017 3.49395 9.03296 3.38285 9.09525C3.27174 9.15754 3.17833 9.24727 3.11147 9.35594C3.0446 9.46461 3.00649 9.58861 3.00076 9.7162C2.99502 9.84379 3.02185 9.97073 3.0787 10.085L3.32781 10.585C3.38976 10.7095 3.48502 10.8143 3.60293 10.8876C3.72084 10.9609 3.85675 10.9998 3.99544 11H4.98693C4.93824 11.1153 4.87885 11.2258 4.80956 11.33L4.03132 12.5C3.38162 13.478 3.03485 14.627 3.03485 15.803ZM18.9394 11.004C19.0081 11.3499 19.122 11.6851 19.2782 12.001H6.72078C6.87722 11.686 6.99082 11.351 7.05957 11.004L7.68934 7.847C7.70793 7.75261 7.75326 7.66561 7.81989 7.59643C7.88653 7.52726 7.97164 7.47884 8.06501 7.457C9.35842 7.157 11.0066 7 12.9995 7C14.9924 7 16.6406 7.156 17.934 7.458C18.0274 7.4796 18.1126 7.52779 18.1795 7.59679C18.2463 7.66579 18.2918 7.75267 18.3107 7.847L18.9394 11.004ZM6.52248 17C6.9189 17 7.29908 16.842 7.57939 16.5607C7.8597 16.2794 8.01718 15.8978 8.01718 15.5C8.01718 15.1022 7.8597 14.7206 7.57939 14.4393C7.29908 14.158 6.9189 14 6.52248 14C6.12606 14 5.74588 14.158 5.46557 14.4393C5.18526 14.7206 5.02778 15.1022 5.02778 15.5C5.02778 15.8978 5.18526 16.2794 5.46557 16.5607C5.74588 16.842 6.12606 17 6.52248 17ZM20.9712 15.5C20.9712 15.8978 20.8137 16.2794 20.5334 16.5607C20.2531 16.842 19.8729 17 19.4765 17C19.0801 17 18.6999 16.842 18.4196 16.5607C18.1393 16.2794 17.9818 15.8978 17.9818 15.5C17.9818 15.1022 18.1393 14.7206 18.4196 14.4393C18.6999 14.158 19.0801 14 19.4765 14C19.8729 14 20.2531 14.158 20.5334 14.4393C20.8137 14.7206 20.9712 15.1022 20.9712 15.5Z" fill="url(#paint0_linear_13644_282)" fill-opacity="0.7"/>
<defs>
<linearGradient id="paint0_linear_13644_282" x1="13" y1="5" x2="13" y2="23" gradientUnits="userSpaceOnUse">
<stop stop-color="#FF3939"/>
<stop offset="1" stop-color="#FF0000"/>
</linearGradient>
</defs>
</svg>
