<svg width="26" height="26" viewBox="0 0 26 26" fill="none" xmlns="http://www.w3.org/2000/svg">
<path d="M19.9604 22.7549C19.9603 22.7111 19.9462 22.6681 19.9193 22.6305C19.8925 22.5928 19.8539 22.5619 19.8078 22.541C18.6507 22.0223 17.5953 21.2283 17.1311 20.8298C17.0621 20.7695 16.9701 20.7311 16.8709 20.7212C16.7716 20.7114 16.6714 20.7308 16.5874 20.7759C14.4361 21.9317 11.8167 21.9324 9.66494 20.7777C9.58021 20.7321 9.47899 20.7127 9.37888 20.7228C9.27877 20.733 9.18609 20.7721 9.11695 20.8333C8.6566 21.2355 7.61278 22.0205 6.44842 22.5357C6.40212 22.5551 6.36255 22.584 6.33344 22.6198C6.30434 22.6555 6.28668 22.6969 6.28214 22.7399C6.27867 22.7766 6.28535 22.8134 6.30165 22.8476C6.31795 22.8817 6.34344 22.9123 6.37615 22.9369C6.40887 22.9615 6.44793 22.9796 6.49033 22.9896C6.53273 22.9997 6.57732 23.0014 6.62068 22.9948C7.5119 22.8458 8.3732 22.5071 9.19389 22.1453C9.24654 22.1222 9.30506 22.1099 9.36456 22.1095C9.42406 22.1092 9.48279 22.1207 9.53585 22.1431C10.647 22.6143 11.8758 22.8599 13.1223 22.8599C14.3688 22.8599 15.5977 22.6143 16.7088 22.1431C16.7625 22.1205 16.8218 22.1088 16.882 22.1092C16.9422 22.1096 17.0013 22.1219 17.0546 22.1453C17.871 22.5018 18.731 22.8437 19.6193 22.9938C19.6612 23.0005 19.7045 22.9993 19.7459 22.9904C19.7872 22.9814 19.8257 22.9649 19.8584 22.942C19.8912 22.9191 19.9174 22.8904 19.9352 22.8579C19.953 22.8255 19.9619 22.7902 19.9612 22.7545L19.9604 22.7549Z" fill="url(#paint0_linear_13641_234)" fill-opacity="0.7"/>
<path d="M22.8612 13.2645C22.7132 12.9158 22.3989 12.6457 21.9748 12.5019L20.965 12.1079V8.65491C20.965 7.94945 20.679 7.27288 20.17 6.77404C19.6609 6.27521 18.9705 5.99496 18.2506 5.99496H16.8934V5.66247C16.8934 5.22155 16.7147 4.7987 16.3965 4.48693C16.0784 4.17515 15.6469 4 15.1969 4H11.804C11.354 4 10.9225 4.17515 10.6044 4.48693C10.2862 4.7987 10.1075 5.22155 10.1075 5.66247V5.99496H8.75028C8.03039 5.99496 7.33997 6.27521 6.83093 6.77404C6.32188 7.27288 6.03591 7.94945 6.03591 8.65491V12.1108L5.03583 12.501C4.61425 12.6382 4.2881 12.9166 4.13881 13.2674C4.0349 13.5122 3.91615 13.8909 4.08367 14.3672L4.08792 14.3796L6.06687 19.3437C6.13977 19.5261 6.26733 19.6826 6.43275 19.7925C6.59817 19.9025 6.7937 19.9608 6.99357 19.9597C7.01478 19.9597 7.03598 19.9597 7.05846 19.9576C8.38681 19.8745 9.43354 19.2398 10.1376 18.6438C11.1432 19.4946 12.3261 19.9597 13.5004 19.9597C14.6748 19.9597 15.8514 19.4942 16.8569 18.6422C17.5606 19.239 18.6086 19.8753 19.9365 19.9576C20.1467 19.9721 20.3562 19.9205 20.5344 19.8103C20.7127 19.7001 20.8504 19.5371 20.9277 19.345L22.9062 14.3992C23.0453 14.0629 23.0292 13.661 22.8612 13.2645ZM14.0518 9.41175L14.0035 9.39512C13.6759 9.29412 13.3246 9.29412 12.997 9.39512L12.9724 9.40261L7.62551 11.4902C7.59976 11.5003 7.57189 11.504 7.54434 11.5011C7.51679 11.4981 7.49039 11.4886 7.46746 11.4733C7.44453 11.4581 7.42576 11.4376 7.4128 11.4136C7.39983 11.3896 7.39307 11.3628 7.39309 11.3356V8.65491C7.39309 8.30218 7.53608 7.9639 7.79061 7.71448C8.04513 7.46506 8.39034 7.32494 8.75028 7.32494H18.2506C18.6106 7.32494 18.9558 7.46506 19.2103 7.71448C19.4648 7.9639 19.6078 8.30218 19.6078 8.65491V11.3331C19.6078 11.3603 19.6011 11.3871 19.5881 11.4111C19.5751 11.4351 19.5564 11.4556 19.5334 11.4709C19.5105 11.4861 19.4841 11.4956 19.4565 11.4986C19.429 11.5015 19.4011 11.4978 19.3754 11.4878L14.0518 9.41175Z" fill="url(#paint1_linear_13641_234)" fill-opacity="0.7"/>
<defs>
<linearGradient id="paint0_linear_13641_234" x1="13.1213" y1="20.7188" x2="13.1213" y2="22.9987" gradientUnits="userSpaceOnUse">
<stop stop-color="#FF3939"/>
<stop offset="1" stop-color="#FF0000"/>
</linearGradient>
<linearGradient id="paint1_linear_13641_234" x1="13.5" y1="4" x2="13.5" y2="19.96" gradientUnits="userSpaceOnUse">
<stop stop-color="#FF3939"/>
<stop offset="1" stop-color="#FF0000"/>
</linearGradient>
</defs>
</svg>
