<svg width="26" height="26" viewBox="0 0 26 26" fill="none" xmlns="http://www.w3.org/2000/svg">
<path d="M4.0696 13.4662C4.06531 13.4662 4.05995 13.4662 4.05459 13.4662C2.72343 13.4662 1.64414 11.8282 1.64414 9.808C1.64414 7.78776 2.72343 6.14978 4.05459 6.14978C4.93132 6.14978 5.69979 6.8606 6.121 7.9244L6.12743 7.94066H6.86053C6.37501 6.29292 5.3043 5.16406 4.05888 5.16406C2.36974 5.16406 1 7.24285 1 9.80637C1 12.3699 2.36974 14.4487 4.05888 14.4487C5.13817 14.4487 6.0867 13.6012 6.63117 12.3195L6.63867 12.3016L5.97738 12.0202C5.53259 12.8936 4.8445 13.4548 4.0696 13.4646H4.06853L4.0696 13.4662Z" fill="url(#paint0_linear_12215_74)"/>
<path d="M25.4433 13.8221C23.572 9.60432 20.437 6.86676 16.8819 6.86676C16.8261 6.86676 16.7704 6.86676 16.7136 6.86838H16.7222H16.6514L16.4607 5.66633L16.2645 5.64844L15.9216 5.67609L15.8144 6.93182C14.7897 6.98225 13.8637 7.57921 13.1521 8.53727L13.1563 8.53077H2.86719L3.53384 10.7006L11.6794 14.1816C11.7973 17.2851 13.3182 19.7982 15.2881 20.2927L15.3128 20.2976L15.0148 21.6086H12.8713C12.6183 21.6086 12.4125 21.9209 12.4125 22.3048C12.4125 22.6887 12.6183 23.001 12.8713 23.001H23.9321C24.185 23.001 24.3908 22.6887 24.3908 22.3048C24.3908 21.9209 24.185 21.6086 23.9321 21.6086H22.2226L21.8003 20.2976C23.9567 19.9885 25.2493 19.076 25.7445 17.5031C25.8602 17.0802 25.9278 16.5873 25.9278 16.0717C25.9278 15.2275 25.7477 14.4483 25.4422 13.8156L25.4476 13.827L25.4433 13.8221ZM11.1747 13.5896L13.2979 16.0717L14.0609 16.0993V14.5719H13.062V12.7729H14.0684V11.2456H15.2538V12.7729H16.2602L14.687 9.47197L11.1747 13.5896ZM15.7822 21.607L16.0598 20.3691H20.9922L21.392 21.607H15.7822ZM25.2718 15.1787C25.1496 15.5316 24.9096 15.7675 24.6341 15.7675H20.7757C18.556 15.7285 16.7661 12.9893 16.7661 9.61408C16.7661 9.59619 16.7661 9.57992 16.7661 9.56365V9.56691V9.33105C16.7661 9.15863 16.7726 8.98784 16.7779 8.81054C16.8208 8.007 17.2613 7.37914 17.7972 7.37914H17.8068H17.8293C17.8615 7.37914 17.8926 7.38239 17.9237 7.38727H17.9204C20.9825 7.8232 23.6031 10.3493 25.1861 14.0043L25.2086 14.0596C25.2965 14.2336 25.349 14.4548 25.349 14.6939C25.349 14.8712 25.3201 15.0371 25.2686 15.1835L25.2708 15.177L25.2718 15.1787Z" fill="url(#paint1_linear_12215_74)"/>
<path d="M24.4902 6.47929C24.5084 6.48254 24.5288 6.48417 24.5492 6.48417C24.8085 6.48417 25.0186 6.16698 25.0207 5.77497V3.70432C25.0207 3.70269 25.0207 3.70106 25.0207 3.69944C25.0207 3.49448 24.9607 3.31068 24.8664 3.18543C24.7817 3.06994 24.6681 3 24.5438 3C24.5288 3 24.5138 3.00163 24.4999 3.00325H24.502L16.9781 4.25085L9.45517 3.00325C9.44231 3.00163 9.42731 3 9.4123 3C9.28905 3 9.17651 3.06994 9.09184 3.18543C8.99645 3.31231 8.9375 3.49774 8.9375 3.70432V3.70594V5.7766C8.94072 6.16861 9.15079 6.48579 9.41016 6.48579C9.43052 6.48579 9.45089 6.48417 9.47125 6.47929H9.46911L16.9781 4.9324L24.4902 6.47929Z" fill="url(#paint2_linear_12215_74)"/>
<defs>
<linearGradient id="paint0_linear_12215_74" x1="3.93027" y1="5.16406" x2="3.93027" y2="14.4487" gradientUnits="userSpaceOnUse">
<stop stop-color="#FBFBFB"/>
<stop offset="1" stop-color="#D0CECE"/>
</linearGradient>
<linearGradient id="paint1_linear_12215_74" x1="15.2035" y1="5.64844" x2="15.2035" y2="23.001" gradientUnits="userSpaceOnUse">
<stop stop-color="#FBFBFB"/>
<stop offset="1" stop-color="#D0CECE"/>
</linearGradient>
<linearGradient id="paint2_linear_12215_74" x1="16.9791" y1="3" x2="16.9791" y2="6.48579" gradientUnits="userSpaceOnUse">
<stop stop-color="#FBFBFB"/>
<stop offset="1" stop-color="#D0CECE"/>
</linearGradient>
</defs>
</svg>
