<svg width="26" height="26" viewBox="0 0 26 26" fill="none" xmlns="http://www.w3.org/2000/svg">
<path d="M12.9687 16.5016L14.0972 15.4921L12.9687 14.3565L20.116 7.16404L21.6207 6.65931L23 3.88328L22.1223 3L19.2382 4.26183L18.6113 5.77603L11.5893 12.9685L10.4608 11.8328L9.45768 12.9685C9.45768 12.9685 10.4608 13.7256 9.33229 14.8612C8.70533 15.4921 7.70219 14.735 5.82132 16.6278C5.19436 17.2587 3.18809 19.2776 3.18809 19.2776C3.18809 19.2776 2.43574 20.5394 3.94044 22.0536C5.44514 23.5678 6.69906 22.8107 6.69906 22.8107C6.69906 22.8107 8.70533 20.7918 9.33229 20.1609C11.0878 18.3943 10.4608 17.2587 10.9624 16.7539C12.0909 15.6183 12.9687 16.5016 12.9687 16.5016Z" fill="url(#paint0_linear_12511_191)"/>
<defs>
<linearGradient id="paint0_linear_12511_191" x1="13" y1="3" x2="13" y2="23" gradientUnits="userSpaceOnUse">
<stop stop-color="#FF3939"/>
<stop offset="1" stop-color="#D22121"/>
</linearGradient>
</defs>
</svg>
