<svg width="30" height="27" viewBox="0 0 30 27" fill="none" xmlns="http://www.w3.org/2000/svg">
<g filter="url(#filter0_d_12513_193)">
<path d="M11.7131 4.92083C11.6699 4.93319 11.6295 4.95394 11.5943 4.9819C11.5591 5.00986 11.5297 5.04448 11.5079 5.08379C11.4861 5.12309 11.4722 5.16631 11.4671 5.21098C11.462 5.25565 11.4657 5.30089 11.478 5.34412C11.6973 6.10894 12.1597 6.78159 12.7951 7.26042C13.4305 7.73926 14.2046 7.99824 15.0003 7.99824C15.7959 7.99824 16.57 7.73926 17.2054 7.26042C17.8408 6.78159 18.3032 6.10894 18.5225 5.34412C18.535 5.30082 18.5389 5.25548 18.534 5.21067C18.529 5.16587 18.5152 5.12249 18.4934 5.08303C18.4716 5.04358 18.4422 5.00881 18.4069 4.98074C18.3716 4.95266 18.3311 4.93183 18.2878 4.91944C18.2445 4.90705 18.1991 4.90334 18.1543 4.90852C18.1095 4.91371 18.0662 4.92768 18.0268 4.94965C17.9875 4.97162 17.9528 5.00115 17.9249 5.03654C17.897 5.07193 17.8763 5.11249 17.8641 5.15588C17.6857 5.77766 17.3098 6.32449 16.7931 6.71374C16.2764 7.10299 15.6471 7.31351 15.0003 7.31351C14.3534 7.31351 13.7241 7.10299 13.2074 6.71374C12.6907 6.32449 12.3148 5.77766 12.1364 5.15588C12.1114 5.06858 12.0528 4.99478 11.9734 4.9507C11.894 4.90661 11.8004 4.89587 11.7131 4.92083Z" stroke="url(#paint0_linear_12513_193)"/>
<path d="M21.2755 9.04249C21.1885 9.01652 21.0947 9.02617 21.0148 9.06932C20.9349 9.11247 20.8755 9.18558 20.8495 9.27258L20.427 10.6873C20.4175 10.7191 20.4126 10.7521 20.4126 10.7853V21.3824L9.58032 21.3573V10.7585C9.58032 10.7253 9.5755 10.6923 9.56601 10.6605L9.14351 9.24583C9.1308 9.20257 9.10967 9.16225 9.08133 9.12719C9.05299 9.09212 9.01801 9.06299 8.97838 9.04148C8.93876 9.01997 8.89528 9.0065 8.85044 9.00184C8.80559 8.99717 8.76027 9.00141 8.71707 9.01431C8.67387 9.02721 8.63364 9.04852 8.59869 9.07701C8.56375 9.1055 8.53477 9.1406 8.51343 9.18032C8.4921 9.22004 8.47881 9.26357 8.47434 9.30844C8.46987 9.3533 8.47431 9.3986 8.4874 9.44175L8.89558 10.8085V21.6988C8.89558 21.7895 8.93154 21.8765 8.99558 21.9407C9.05961 22.0048 9.14649 22.041 9.23716 22.0412L20.7542 22.0679H20.755C20.8458 22.0679 20.9329 22.0319 20.9971 21.9677C21.0613 21.9034 21.0974 21.8164 21.0974 21.7256V10.8353L21.5056 9.4685C21.5315 9.38149 21.5219 9.28773 21.4788 9.20784C21.4356 9.12795 21.3625 9.06847 21.2755 9.04249Z" stroke="url(#paint1_linear_12513_193)"/>
<path d="M26.9014 10.0024L22.229 5.32865C22.1937 5.29338 22.158 5.25857 22.1219 5.22424C21.0965 4.26055 19.7427 3.72332 18.3354 3.72167L17.9913 3.71875H17.9883C17.8975 3.71837 17.8103 3.75408 17.7458 3.81802C17.6813 3.88196 17.6449 3.96889 17.6445 4.05969C17.6442 4.15049 17.6799 4.23772 17.7438 4.3022C17.8077 4.36667 17.8947 4.40311 17.9855 4.40349L18.3296 4.4064C19.5634 4.40679 20.7507 4.87674 21.6504 5.72082C21.6821 5.75098 21.7136 5.7816 21.7447 5.81271L26.1751 10.2444L23.1375 13.2819L22.1144 12.2589C22.0502 12.1946 21.9631 12.1586 21.8723 12.1586C21.7815 12.1586 21.6944 12.1947 21.6302 12.2589C21.566 12.3231 21.5299 12.4102 21.5299 12.501C21.5299 12.5918 21.566 12.6788 21.6302 12.743L22.8954 14.0082C22.9272 14.04 22.9649 14.0652 23.0065 14.0824C23.048 14.0997 23.0925 14.1085 23.1375 14.1085C23.1825 14.1085 23.227 14.0997 23.2685 14.0824C23.3101 14.0652 23.3478 14.04 23.3796 14.0082L26.9014 10.4865C26.9331 10.4548 26.9584 10.417 26.9756 10.3755C26.9928 10.3339 27.0017 10.2894 27.0017 10.2445C27.0017 10.1995 26.9928 10.155 26.9756 10.1134C26.9584 10.0719 26.9332 10.0341 26.9014 10.0024Z" stroke="url(#paint2_linear_12513_193)"/>
<path d="M7.91118 12.2355L6.86413 13.2825L3.82652 10.245L8.25696 5.81329C8.28802 5.78219 8.31943 5.75158 8.35118 5.72146C9.25093 4.87732 10.4383 4.40733 11.672 4.40695L12.0799 4.40349C12.1707 4.40311 12.2576 4.36667 12.3216 4.3022C12.3855 4.23772 12.4212 4.15049 12.4209 4.05969C12.4205 3.96889 12.384 3.88196 12.3196 3.81802C12.2551 3.75408 12.1679 3.71837 12.0771 3.71875H12.0741L11.6662 3.72222C10.259 3.72388 8.90511 4.26115 7.87968 5.2249C7.84364 5.25912 7.80798 5.29386 7.77273 5.32912L3.10026 10.0029C3.03606 10.0671 2.99999 10.1542 3 10.245C3.00001 10.3358 3.03608 10.4229 3.10029 10.4871L6.62205 14.0088C6.65384 14.0406 6.69159 14.0658 6.73313 14.083C6.77467 14.1002 6.81919 14.109 6.86415 14.109C6.90911 14.109 6.95363 14.1002 6.99517 14.083C7.03671 14.0658 7.07446 14.0406 7.10625 14.0088L8.39538 12.7197C8.45959 12.6554 8.49566 12.5684 8.49566 12.4776C8.49566 12.3868 8.45959 12.2997 8.39538 12.2355C8.33117 12.1713 8.24409 12.1352 8.15328 12.1352C8.06248 12.1352 7.97538 12.1713 7.91118 12.2355Z" stroke="url(#paint3_linear_12513_193)"/>
</g>
<defs>
<filter id="filter0_d_12513_193" x="0.372957" y="3.21875" width="29.2541" height="23.6056" filterUnits="userSpaceOnUse" color-interpolation-filters="sRGB">
<feFlood flood-opacity="0" result="BackgroundImageFix"/>
<feColorMatrix in="SourceAlpha" type="matrix" values="0 0 0 0 0 0 0 0 0 0 0 0 0 0 0 0 0 0 127 0" result="hardAlpha"/>
<feOffset dy="2.12704"/>
<feGaussianBlur stdDeviation="1.06352"/>
<feComposite in2="hardAlpha" operator="out"/>
<feColorMatrix type="matrix" values="0 0 0 0 0 0 0 0 0 0 0 0 0 0 0 0 0 0 0.25 0"/>
<feBlend mode="normal" in2="BackgroundImageFix" result="effect1_dropShadow_12513_193"/>
<feBlend mode="normal" in="SourceGraphic" in2="effect1_dropShadow_12513_193" result="shape"/>
</filter>
<linearGradient id="paint0_linear_12513_193" x1="15.0005" y1="4.90625" x2="15.0005" y2="7.99824" gradientUnits="userSpaceOnUse">
<stop stop-color="#FF3939"/>
<stop offset="1" stop-color="#D22121"/>
</linearGradient>
<linearGradient id="paint1_linear_12513_193" x1="14.9963" y1="9" x2="14.9963" y2="22.0679" gradientUnits="userSpaceOnUse">
<stop stop-color="#FF3939"/>
<stop offset="1" stop-color="#D22121"/>
</linearGradient>
<linearGradient id="paint2_linear_12513_193" x1="22.3231" y1="3.71875" x2="22.3231" y2="14.1085" gradientUnits="userSpaceOnUse">
<stop stop-color="#FF3939"/>
<stop offset="1" stop-color="#D22121"/>
</linearGradient>
<linearGradient id="paint3_linear_12513_193" x1="7.71043" y1="3.71875" x2="7.71043" y2="14.109" gradientUnits="userSpaceOnUse">
<stop stop-color="#FF3939"/>
<stop offset="1" stop-color="#D22121"/>
</linearGradient>
</defs>
</svg>
