<svg width="30" height="30" viewBox="0 0 30 30" fill="none" xmlns="http://www.w3.org/2000/svg">
<path d="M17.3985 8H26.8943C27.3195 8 27.6642 8.34471 27.6642 8.76994V25.1952C27.6642 25.6205 27.3195 25.9652 26.8943 25.9652H17.3985M17.3985 8V25.9652M17.3985 8H12.2657M17.3985 25.9652H12.2657M12.2657 8H2.76993C2.34471 8 2 8.34471 2 8.76994V25.1952C2 25.6205 2.34471 25.9652 2.76993 25.9652H12.2657M12.2657 8V25.9652" stroke="url(#paint0_linear_12513_255)" stroke-width="1.6" stroke-linecap="round" stroke-linejoin="round"/>
<path d="M7.61816 18.9834C7.02289 18.4262 6.65147 17.6357 6.65137 16.7578C6.65137 15.8798 7.02272 15.0886 7.61816 14.5312V18.9834Z" fill="url(#paint1_linear_12513_255)" stroke="url(#paint2_linear_12513_255)" stroke-width="1.6"/>
<path d="M22.0459 14.5391C22.6413 15.0964 23.0127 15.8876 23.0127 16.7656C23.0126 17.6435 22.6412 18.434 22.0459 18.9912V14.5391Z" fill="url(#paint3_linear_12513_255)" stroke="url(#paint4_linear_12513_255)" stroke-width="1.6"/>
<defs>
<linearGradient id="paint0_linear_12513_255" x1="14.8321" y1="8" x2="14.8321" y2="25.9652" gradientUnits="userSpaceOnUse">
<stop stop-color="#FC3737"/>
<stop offset="1" stop-color="#D22121"/>
</linearGradient>
<linearGradient id="paint1_linear_12513_255" x1="7.13477" y1="13.5156" x2="7.13477" y2="19.9992" gradientUnits="userSpaceOnUse">
<stop stop-color="#F8F7F7"/>
<stop offset="1" stop-color="#CBC9C9"/>
</linearGradient>
<linearGradient id="paint2_linear_12513_255" x1="7.13477" y1="13.5156" x2="7.13477" y2="19.9992" gradientUnits="userSpaceOnUse">
<stop stop-color="#FC3737"/>
<stop offset="1" stop-color="#D22121"/>
</linearGradient>
<linearGradient id="paint3_linear_12513_255" x1="22.5293" y1="13.5234" x2="22.5293" y2="20.007" gradientUnits="userSpaceOnUse">
<stop stop-color="#F8F7F7"/>
<stop offset="1" stop-color="#CBC9C9"/>
</linearGradient>
<linearGradient id="paint4_linear_12513_255" x1="22.5293" y1="13.5234" x2="22.5293" y2="20.007" gradientUnits="userSpaceOnUse">
<stop stop-color="#FC3737"/>
<stop offset="1" stop-color="#D22121"/>
</linearGradient>
</defs>
</svg>
