<svg width="30" height="30" viewBox="0 0 30 30" fill="none" xmlns="http://www.w3.org/2000/svg">
<path d="M26.4744 16.4912C26.4776 16.488 26.4808 16.4848 26.484 16.482C26.8168 16.1484 27 15.7056 27 15.2348V14.6C27 14.3788 26.8212 14.2 26.6 14.2H25.4772L18.1028 11.25C17.8992 11.168 17.6648 11.2672 17.5828 11.4732C17.5008 11.678 17.6008 11.9108 17.806 11.9928L23.3228 14.2H6.83161L13.7072 11.6536C14.0608 12.2197 14.6848 12.6 15.4 12.6C16.5028 12.6 17.4 11.7029 17.4 10.6C17.4 9.63403 16.7116 8.82605 15.8001 8.64042V8.15963C16.7116 7.97363 17.4 7.16564 17.4 6.20002V3.39998C17.4 3.17878 17.2213 3 17.0001 3C16.7789 3 16.6001 3.17878 16.6001 3.39998V4.61039C16.2649 4.35638 15.8521 4.2 15.4001 4.2C14.9481 4.2 14.5353 4.35642 14.2001 4.61039V3.39998C14.2001 3.17878 14.0213 3 13.8001 3C13.5789 3 13.4001 3.17878 13.4001 3.39998V6.19997C13.4001 7.16555 14.0885 7.97358 15.0001 8.15958V9C15.0001 9.2212 15.1789 9.39998 15.4001 9.39998C16.0617 9.39998 16.6001 9.93839 16.6001 10.6C16.6001 11.2616 16.0617 11.8 15.4001 11.8C15.0309 11.8 14.7041 11.6288 14.4841 11.3656L15.3945 11.0288L15.6529 11.132C15.7013 11.1516 15.7517 11.1604 15.8013 11.1604C15.9597 11.1604 16.1097 11.0656 16.1729 10.9088C16.2549 10.704 16.1553 10.4713 15.9497 10.3892L15.5485 10.2285C15.5305 10.2212 15.5117 10.2229 15.4933 10.2185C15.4641 10.2113 15.4361 10.2025 15.4057 10.2021C15.3749 10.2017 15.3465 10.2097 15.3169 10.2161C15.2985 10.2201 15.2797 10.2181 15.2609 10.2249L14.2017 10.6173C14.2017 10.6113 14.2001 10.6061 14.2001 10.6001C14.2001 10.3789 14.0213 10.2001 13.8001 10.2001C13.5789 10.2001 13.4001 10.3789 13.4001 10.6001C13.4001 10.7037 13.4153 10.8033 13.4309 10.9029L4.5285 14.2001H3.39998C3.17878 14.2001 3 14.3789 3 14.6001V15.2356C3 15.7005 3.18881 16.1552 3.51722 16.4836C3.69961 16.6652 3.80002 16.9076 3.80002 17.1652V24.0353C3.80002 24.2849 3.70003 24.5296 3.52523 24.7085C3.52242 24.7117 3.51923 24.7149 3.51605 24.7177C3.18319 25.0512 3 25.494 3 25.9648V26.6C3 26.8212 3.17878 27 3.39998 27H26.6C26.8212 27 27 26.8212 27 26.6V25.9656C27 25.5024 26.8124 25.0484 26.4816 24.7172C26.3028 24.5372 26.2 24.2892 26.2 24.036V17.1648C26.2 16.9112 26.2972 16.6724 26.4744 16.4912ZM6.99998 24.6C6.99998 24.8212 6.8212 25 6.6 25C6.3788 25 6.20002 24.8212 6.20002 24.6V16.6C6.20002 16.3788 6.3788 16.2 6.6 16.2C6.8212 16.2 6.99998 16.3788 6.99998 16.6V24.6ZM9.39998 24.6C9.39998 24.8212 9.2212 25 9 25C8.7788 25 8.60002 24.8212 8.60002 24.6V16.6C8.60002 16.3788 8.7788 16.2 9 16.2C9.2212 16.2 9.39998 16.3788 9.39998 16.6V24.6ZM11.8 24.6C11.8 24.8212 11.6212 25 11.4 25C11.1788 25 11 24.8212 11 24.6V16.6C11 16.3788 11.1788 16.2 11.4 16.2C11.6212 16.2 11.8 16.3788 11.8 16.6V24.6ZM14.2 24.6C14.2 24.8212 14.0212 25 13.8 25C13.5788 25 13.4 24.8212 13.4 24.6V16.6C13.4 16.3788 13.5788 16.2 13.8 16.2C14.0212 16.2 14.2 16.3788 14.2 16.6V24.6ZM16.6 24.6C16.6 24.8212 16.4212 25 16.2 25C15.9788 25 15.8 24.8212 15.8 24.6V16.6C15.8 16.3788 15.9788 16.2 16.2 16.2C16.4212 16.2 16.6 16.3788 16.6 16.6V24.6ZM19 24.6C19 24.8212 18.8212 25 18.6 25C18.3788 25 18.2 24.8212 18.2 24.6V16.6C18.2 16.3788 18.3788 16.2 18.6 16.2C18.8212 16.2 19 16.3788 19 16.6V24.6ZM21.4 24.6C21.4 24.8212 21.2212 25 21 25C20.7788 25 20.6 24.8212 20.6 24.6V16.6C20.6 16.3788 20.7788 16.2 21 16.2C21.2212 16.2 21.4 16.3788 21.4 16.6V24.6ZM23.8 24.6C23.8 24.8212 23.6212 25 23.4 25C23.1788 25 23 24.8212 23 24.6V16.6C23 16.3788 23.1788 16.2 23.4 16.2C23.6212 16.2 23.8 16.3788 23.8 16.6V24.6Z" fill="url(#paint0_linear_12422_95)"/>
<defs>
<linearGradient id="paint0_linear_12422_95" x1="15" y1="3" x2="15" y2="27" gradientUnits="userSpaceOnUse">
<stop stop-color="#FF3939"/>
<stop offset="1" stop-color="#D22121"/>
</linearGradient>
</defs>
</svg>
