<svg width="26" height="26" viewBox="0 0 26 26" fill="none" xmlns="http://www.w3.org/2000/svg">
<path d="M18.8112 4H9.81624C9.1095 4 8.53125 4.57825 8.53125 5.28499V12.0955C9.30225 11.8385 10.1375 11.71 11.037 11.71H14.9562C15.9842 11.71 16.8837 12.5452 16.8837 13.5732V13.7017C16.8837 13.766 16.8837 13.766 16.8837 13.8302C17.719 12.8022 18.8755 12.0955 20.0962 11.8385V5.28499C20.0962 4.57825 19.518 4 18.8112 4ZM17.976 8.36898C17.8475 8.49748 17.719 8.56173 17.5262 8.56173C17.3335 8.56173 17.205 8.49748 17.0765 8.36898L16.8837 8.17623V9.78248C16.8837 10.168 16.6267 10.425 16.2412 10.425C15.8557 10.425 15.5987 10.168 15.5987 9.78248V8.17623L15.406 8.36898C15.149 8.62598 14.7635 8.62598 14.5065 8.36898C14.2495 8.11198 14.2495 7.72648 14.5065 7.46949L15.7915 6.12024C16.0485 5.86324 16.4982 5.86324 16.7552 6.12024L18.0402 7.46949C18.233 7.72648 18.233 8.17623 17.976 8.36898Z" fill="url(#paint0_linear_13645_297)"/>
<path d="M21.9578 13.3134C21.8293 13.1207 21.6365 12.9922 21.3795 12.9922C19.9661 12.9922 18.6168 13.6347 17.7816 14.7912L17.2033 15.5622C16.4966 16.3974 15.4043 16.8472 14.3121 16.8472H12.3846C11.9991 16.8472 11.7421 16.5902 11.7421 16.2047C11.7421 15.8192 11.9991 15.5622 12.3846 15.5622H13.6053C14.6333 15.5622 15.5971 14.7269 15.5971 13.6989V13.6347C15.5971 13.3134 15.2758 12.9922 14.9546 12.9922H11.0353C8.72235 12.9922 6.85911 14.0202 5.83112 15.6907L4.09637 18.3892C3.96788 18.5819 3.96788 18.8389 4.09637 19.0317L6.02387 22.2441C6.08812 22.3726 6.28087 22.5011 6.40936 22.5654C6.47361 22.5654 6.47361 22.5654 6.53786 22.5654C6.66636 22.5654 6.79486 22.5011 6.92336 22.4369C9.36485 20.8307 12.1918 19.9954 15.0831 19.9954C17.2033 19.9954 19.1308 18.8389 20.1588 16.9757L21.8935 13.8917C22.022 13.7632 22.022 13.5062 21.9578 13.3134Z" fill="url(#paint1_linear_13645_297)"/>
<defs>
<linearGradient id="paint0_linear_13645_297" x1="14.3137" y1="4" x2="14.3137" y2="13.8302" gradientUnits="userSpaceOnUse">
<stop stop-color="#FF3939"/>
<stop offset="1" stop-color="#FF0000"/>
</linearGradient>
<linearGradient id="paint1_linear_13645_297" x1="13" y1="12.9922" x2="13" y2="22.5654" gradientUnits="userSpaceOnUse">
<stop stop-color="#FF3939"/>
<stop offset="1" stop-color="#FF0000"/>
</linearGradient>
</defs>
</svg>
