<svg width="26" height="26" viewBox="0 0 26 26" fill="none" xmlns="http://www.w3.org/2000/svg">
<path d="M16.4738 5.00004L15.1134 8.28688L16.5808 8.94377L17.9412 5.65693L16.4738 5L16.4738 5.00004ZM9.53419 5.01314L8.05627 5.64383L9.36243 8.95435L10.8404 8.32366L9.53423 5.01314H9.53419ZM10.6725 5.25645L10.3729 5.3868L11.4328 8.07403L11.676 8.69069L11.0836 8.9419L9.60577 9.57258L9.01287 9.82547L8.76972 9.20896L7.71736 6.54253L7.30841 6.72047C7.94672 7.60784 8.2334 8.71605 8.10939 9.81672C7.98537 10.9174 7.4601 11.9266 6.64183 12.6365V14.0339H10.0869V17.0244H6.64179V17.571H10.0869V20.5657H6.64179V22.0347C7.26074 22.6784 10.1306 23 13.0004 23C15.8703 23 18.7401 22.6784 19.3591 22.0347V20.5657H15.9139V17.5715H19.3591V17.0243H15.9128V14.03H19.3578V12.633C18.5396 11.9232 18.0143 10.9139 17.8903 9.81323C17.7663 8.71256 18.053 7.60435 18.6913 6.71699L18.2735 6.53499L17.1682 9.20509L16.9146 9.81761L16.3257 9.55388L14.8604 8.90021L14.2715 8.63648L14.5251 8.02399L15.6187 5.38132L15.3279 5.25641C15.0973 5.68813 14.7599 6.04786 14.3506 6.29832C13.9413 6.54877 13.4751 6.68084 13.0002 6.68084C12.5254 6.68084 12.0591 6.54877 11.6499 6.29832C11.2406 6.04786 10.9031 5.68817 10.6725 5.25645ZM6 14.6967V16.3582H9.44632V14.6967H6ZM16.5537 14.6967V16.3582H20V14.6967H16.5537ZM6 18.238V19.8995H9.44632V18.2379H6V18.238ZM16.5537 18.238V19.8995H20V18.2379H16.5537V18.238Z" fill="url(#paint0_linear_13872_162)"/>
<defs>
<linearGradient id="paint0_linear_13872_162" x1="13" y1="5" x2="13" y2="23" gradientUnits="userSpaceOnUse">
<stop stop-color="#FEFEFE"/>
<stop offset="1" stop-color="#D8D6D6"/>
</linearGradient>
</defs>
</svg>
