<svg width="10" height="11" viewBox="0 0 10 11" fill="none" xmlns="http://www.w3.org/2000/svg">
<path d="M9.91361 9.856L6.68283 2.629C6.6503 2.541 6.61778 2.387 6.61778 2.299V1.628C6.61778 1.54 6.69367 1.441 6.7804 1.397C6.99723 1.265 7.14901 1.023 7.14901 0.748C7.14901 0.33 6.82377 0 6.42263 0H3.71224C3.30026 0 2.97502 0.33 2.97502 0.748C2.97502 1.001 3.10512 1.221 3.28942 1.353C3.36531 1.408 3.4412 1.518 3.4412 1.606V2.376C3.4412 2.475 3.40868 2.618 3.37615 2.706L0.0911636 9.856C-0.038935 10.142 -0.0280935 10.439 0.112847 10.659C0.242945 10.879 0.503143 11 0.817548 11H9.16554C9.47995 11 9.74015 10.879 9.88109 10.659C10.022 10.439 10.0437 10.142 9.91361 9.856ZM2.46546 6.743L0.795865 10.252C0.774181 10.285 0.741657 10.307 0.709132 10.307C0.698291 10.307 0.676607 10.296 0.665766 10.296C0.6224 10.274 0.600717 10.208 0.6224 10.164L2.292 6.655C2.31368 6.611 2.36789 6.589 2.4221 6.611C2.46546 6.633 2.48715 6.688 2.46546 6.743ZM7.46342 6.204H2.49799C2.40041 6.204 2.35705 6.127 2.40041 6.05L3.87487 2.816C3.91823 2.728 3.93991 2.585 3.93991 2.486V1.166C3.93991 1.067 3.88571 0.979 3.8315 0.979H3.71224C3.58214 0.979 3.48457 0.869 3.48457 0.748C3.48457 0.616 3.58214 0.517 3.71224 0.517H6.42263C6.54189 0.517 6.6503 0.616 6.6503 0.748C6.6503 0.869 6.54189 0.979 6.42263 0.979H6.27085C6.18412 0.979 6.11907 1.056 6.11907 1.166V2.398C6.11907 2.497 6.14075 2.64 6.18412 2.728L7.57184 6.05C7.60436 6.127 7.56099 6.204 7.46342 6.204Z" fill="url(#paint0_linear_10092_1125)"/>
<defs>
<linearGradient id="paint0_linear_10092_1125" x1="5" y1="0" x2="5" y2="11" gradientUnits="userSpaceOnUse">
<stop stop-color="white"/>
<stop offset="1" stop-color="#D5D5D5"/>
</linearGradient>
</defs>
</svg>
