<svg width="26" height="26" viewBox="0 0 26 26" fill="none" xmlns="http://www.w3.org/2000/svg">
<path d="M21.4 4H4.6C3.64522 4 2.72955 4.37533 2.05442 5.04343C1.37928 5.71153 1 6.61767 1 7.5625V19.4375C1 20.3823 1.37928 21.2885 2.05442 21.9566C2.72955 22.6247 3.64522 23 4.6 23H21.4C22.3548 23 23.2705 22.6247 23.9456 21.9566C24.6207 21.2885 25 20.3823 25 19.4375V7.5625C25 6.61767 24.6207 5.71153 23.9456 5.04343C23.2705 4.37533 22.3548 4 21.4 4ZM4.6 6.375H21.4C21.7183 6.375 22.0235 6.50011 22.2485 6.72281C22.4736 6.94551 22.6 7.24756 22.6 7.5625L13 13.3575L3.4 7.5625C3.4 7.24756 3.52643 6.94551 3.75147 6.72281C3.97652 6.50011 4.28174 6.375 4.6 6.375ZM22.6 19.4375C22.6 19.7524 22.4736 20.0545 22.2485 20.2772C22.0235 20.4999 21.7183 20.625 21.4 20.625H4.6C4.28174 20.625 3.97652 20.4999 3.75147 20.2772C3.52643 20.0545 3.4 19.7524 3.4 19.4375V10.27L12.376 15.6969C12.5584 15.8011 12.7654 15.856 12.976 15.856C13.1866 15.856 13.3936 15.8011 13.576 15.6969L22.6 10.27V19.4375Z" fill="url(#paint0_linear_12511_164)"/>
<defs>
<linearGradient id="paint0_linear_12511_164" x1="13" y1="4" x2="13" y2="23" gradientUnits="userSpaceOnUse">
<stop stop-color="#FCFCFC"/>
<stop offset="1" stop-color="#D0CDCD"/>
</linearGradient>
</defs>
</svg>
