<svg width="26" height="26" viewBox="0 0 26 26" fill="none" xmlns="http://www.w3.org/2000/svg">
<path d="M4.69004 22.217L5.50224 22.9456C5.61857 23.068 6.31443 22.9456 6.31443 22.9456C6.18647 23.068 6.48311 22.9456 6.31443 22.9456L18.7971 9.68694C19.9837 11.2648 20.5267 15.6681 20.9339 17.8453C21.3062 17.4539 21.7461 14.9847 21.7461 14.2019C21.7461 12.2693 21.1935 9.88264 20.0884 8.32924L20.4548 7.94394C20.5712 7.82163 20.6293 7.67179 20.6293 7.49443C20.6293 7.31708 20.5712 7.16112 20.4548 7.02658L19.5824 6.10921C19.4544 5.98689 19.3061 5.92574 19.1374 5.92574C18.9687 5.92574 18.8262 5.98689 18.7099 6.10921L18.3435 6.47616C16.8544 5.32639 14.6383 4 12.812 4C10.3754 4 9.93546 4.36102 9.5632 4.75243C11.6339 5.18054 15.5515 6.60459 17.0522 7.85221L4.05235 21.5026C4.05235 21.3253 3.93602 21.6372 4.05235 21.5026C4.05235 21.68 4.69004 22.217 4.69004 22.217Z" fill="url(#paint0_linear_13636_184)"/>
<defs>
<linearGradient id="paint0_linear_13636_184" x1="12.8734" y1="4" x2="12.8734" y2="23" gradientUnits="userSpaceOnUse">
<stop stop-color="#FAFAFA"/>
<stop offset="1" stop-color="#C4C2C2"/>
</linearGradient>
</defs>
</svg>
