<svg width="22" height="27" viewBox="0 0 22 27" fill="none" xmlns="http://www.w3.org/2000/svg">
<path d="M10.725 0C13.5694 0 16.2974 1.12995 18.3087 3.14128C20.32 5.15261 21.45 7.88055 21.45 10.725C21.45 15.257 18.2655 20.196 11.979 25.5948C11.6294 25.8951 11.1838 26.06 10.7229 26.0596C10.2621 26.0592 9.81673 25.8935 9.4677 25.5926L9.0519 25.2318C3.0437 19.9738 0 15.1558 0 10.725C0 7.88055 1.12995 5.15261 3.14128 3.14128C5.15261 1.12995 7.88055 0 10.725 0ZM10.725 6.6C9.63098 6.6 8.58177 7.0346 7.80818 7.80818C7.0346 8.58177 6.6 9.63098 6.6 10.725C6.6 11.819 7.0346 12.8682 7.80818 13.6418C8.58177 14.4154 9.63098 14.85 10.725 14.85C11.819 14.85 12.8682 14.4154 13.6418 13.6418C14.4154 12.8682 14.85 11.819 14.85 10.725C14.85 9.63098 14.4154 8.58177 13.6418 7.80818C12.8682 7.0346 11.819 6.6 10.725 6.6Z" fill="url(#paint0_linear_13785_135)"/>
<defs>
<linearGradient id="paint0_linear_13785_135" x1="10.725" y1="0" x2="10.725" y2="26.0596" gradientUnits="userSpaceOnUse">
<stop stop-color="white"/>
<stop offset="1" stop-color="#C5C5C5"/>
</linearGradient>
</defs>
</svg>
