<svg width="26" height="26" viewBox="0 0 26 26" fill="none" xmlns="http://www.w3.org/2000/svg">
<path d="M4.9352 21.1196C6.96004 20.7275 10.0648 17.6459 10.3469 15.6843C8.51915 15.8791 5.35746 18.957 4.9352 21.1196ZM12.3665 19.2947L9.93229 16.8498C10.1489 16.4394 10.2953 16.0431 10.3469 15.6843C9.99581 15.7217 9.5954 15.8658 9.17477 16.089L6.50225 13.4049L7.61036 12.292L13.4746 18.1818L12.3665 19.2947ZM4.9352 21.1196C5.1492 21.0782 5.37533 21.0064 5.60885 20.9094L6.2676 21.571L4.84482 23L3 21.1472L4.42278 19.7181L5.14278 20.4413C5.04862 20.6741 4.97778 20.9015 4.9352 21.1196ZM20.0068 9.20733L18.3067 8.90308L18.6256 10.5847L16.9314 10.2844L17.2702 11.946L15.596 11.6257L15.9149 13.3073L14.2206 13.007L14.5455 14.7112L12.5739 16.6914L9.44208 13.5458L17.0797 5.87488C18.5469 4.40105 20.9822 2.61274 23 3.07396C22.021 3.96706 19.5852 7.55051 20.0068 9.20733Z" fill="url(#paint0_linear_12513_63)" fill-opacity="0.7"/>
<defs>
<linearGradient id="paint0_linear_12513_63" x1="13" y1="23" x2="13" y2="3" gradientUnits="userSpaceOnUse">
<stop stop-color="#FF3939"/>
<stop offset="1" stop-color="#FF0000"/>
</linearGradient>
</defs>
</svg>
