<svg width="30" height="30" viewBox="0 0 30 30" fill="none" xmlns="http://www.w3.org/2000/svg">
<path fill-rule="evenodd" clip-rule="evenodd" d="M22.9167 3C23.5763 3 24.1111 3.53477 24.1111 4.19444V17.3333C24.7708 17.3333 25.3056 17.8681 25.3056 18.5278V22.1111H25.9028C26.2326 22.1111 26.5 22.3785 26.5 22.7083V23.9028C26.5 24.2326 26.2326 24.5 25.9028 24.5H24.1111V25.6944C24.1111 26.3541 23.5763 26.8889 22.9167 26.8889H21.7222C21.0625 26.8889 20.5278 26.3541 20.5278 25.6944V24.5H10.9722V25.6944C10.9722 26.3541 10.4375 26.8889 9.77778 26.8889H8.58333C7.92366 26.8889 7.38889 26.3541 7.38889 25.6944V24.5H5.59722C5.26739 24.5 5 24.2326 5 23.9028V22.7083C5 22.3785 5.26739 22.1111 5.59722 22.1111H6.19444V18.5278C6.19444 17.8681 6.72922 17.3333 7.38889 17.3333V4.19444C7.38889 3.53477 7.92366 3 8.58333 3C9.24301 3 9.77778 3.53477 9.77778 4.19444V7.77778C9.77778 6.45843 10.8473 5.38889 12.1667 5.38889H19.3333C20.6527 5.38889 21.7222 6.45843 21.7222 7.77778V4.19444C21.7222 3.53477 22.257 3 22.9167 3ZM18.1389 14.9444H13.3611C12.7014 14.9444 12.1667 15.4792 12.1667 16.1389V20.9167C12.1667 21.5763 12.7014 22.1111 13.3611 22.1111H18.1389C18.7986 22.1111 19.3333 21.5763 19.3333 20.9167V16.1389C19.3333 15.4792 18.7986 14.9444 18.1389 14.9444ZM9.77778 19.7222H8.58333C7.92366 19.7222 7.38889 20.257 7.38889 20.9167C7.38889 21.5763 7.92366 22.1111 8.58333 22.1111H9.77778C10.4375 22.1111 10.9722 21.5763 10.9722 20.9167C10.9722 20.257 10.4375 19.7222 9.77778 19.7222ZM22.9167 19.7222H21.7222C21.0625 19.7222 20.5278 20.257 20.5278 20.9167C20.5278 21.5763 21.0625 22.1111 21.7222 22.1111H22.9167C23.5763 22.1111 24.1111 21.5763 24.1111 20.9167C24.1111 20.257 23.5763 19.7222 22.9167 19.7222ZM17.5417 19.7222C17.8715 19.7222 18.1389 19.9896 18.1389 20.3194C18.1389 20.6493 17.8715 20.9167 17.5417 20.9167H13.9583L13.851 20.907C13.5724 20.8565 13.3611 20.6126 13.3611 20.3194C13.3611 19.9896 13.6285 19.7222 13.9583 19.7222H17.5417ZM17.5417 17.9306C17.8715 17.9306 18.1389 18.1979 18.1389 18.5278C18.1389 18.8576 17.8715 19.125 17.5417 19.125H13.9583L13.851 19.1154C13.5724 19.0648 13.3611 18.821 13.3611 18.5278C13.3611 18.1979 13.6285 17.9306 13.9583 17.9306H17.5417ZM17.5417 16.1389C17.8715 16.1389 18.1389 16.4063 18.1389 16.7361C18.1389 17.0659 17.8715 17.3333 17.5417 17.3333H13.9583L13.851 17.3237C13.5724 17.2731 13.3611 17.0293 13.3611 16.7361C13.3611 16.4063 13.6285 16.1389 13.9583 16.1389H17.5417ZM20.5278 8.97222H10.9722V12.5556H20.5278V8.97222Z" fill="url(#paint0_linear_14338_192)"/>
<defs>
<linearGradient id="paint0_linear_14338_192" x1="15.75" y1="3" x2="15.75" y2="26.8889" gradientUnits="userSpaceOnUse">
<stop stop-color="white"/>
<stop offset="1" stop-color="#BFBFBF"/>
</linearGradient>
</defs>
</svg>
