<svg width="26" height="26" viewBox="0 0 26 26" fill="none" xmlns="http://www.w3.org/2000/svg">
<path d="M13 2C9.95198 2 8.47059 2.54961 8.47059 3.68C8.47059 3.91133 8.65556 4.1 8.88235 4.1C9.10915 4.1 9.29412 3.91133 9.29412 3.68C9.29412 3.47328 9.70427 3.13531 10.9798 2.95812L11.3272 5.03187C7.9977 5.4125 6 6.90383 6 8.3V18.0781C6 19.3726 6.89269 20.4652 8.11029 20.795L6.38603 22.265C6.21392 22.4127 6.1898 22.667 6.33456 22.8425C6.41498 22.9409 6.52757 23 6.64338 23C6.73506 23 6.8364 22.9606 6.9136 22.895L9.25551 20.9H16.7445L19.0864 22.895C19.1636 22.9606 19.2649 23 19.3566 23C19.4724 23 19.585 22.9409 19.6654 22.8425C19.8102 22.667 19.7861 22.4127 19.614 22.265L17.8897 20.795C19.1073 20.4652 20 19.3726 20 18.0781V8.3C20 6.90383 18.0023 5.4125 14.6728 5.03187L15.0202 2.95812C16.2957 3.13531 16.7059 3.47328 16.7059 3.68C16.7059 3.91133 16.8892 4.1 17.1176 4.1C17.346 4.1 17.5294 3.91133 17.5294 3.68C17.5294 2.54961 16.048 2 13 2ZM13 2.84C13.4472 2.84 13.8316 2.85641 14.1838 2.87937L13.8364 4.96625C13.563 4.95148 13.2879 4.94 13 4.94C12.7121 4.94 12.437 4.95148 12.1636 4.96625L11.8162 2.87937C12.1684 2.85641 12.5528 2.84 13 2.84ZM10.5294 7.46H15.4706C15.699 7.46 15.8824 7.64867 15.8824 7.88V8.72H10.1176V7.88C10.1176 7.64867 10.3026 7.46 10.5294 7.46ZM8.88235 9.56H17.1176C17.5728 9.56 17.9412 9.90945 17.9412 10.3344V13.4056C17.9412 13.8305 17.5728 14.18 17.1176 14.18H8.88235C8.42716 14.18 8.05882 13.8305 8.05882 13.4056V10.3344C8.05882 9.90945 8.42716 9.56 8.88235 9.56ZM9.29412 16.28C9.9761 16.28 10.5294 16.8444 10.5294 17.54C10.5294 18.2356 9.9761 18.8 9.29412 18.8C8.61213 18.8 8.05882 18.2356 8.05882 17.54C8.05882 16.8444 8.61213 16.28 9.29412 16.28ZM16.7059 16.28C17.3879 16.28 17.9412 16.8444 17.9412 17.54C17.9412 18.2356 17.3879 18.8 16.7059 18.8C16.0239 18.8 15.4706 18.2356 15.4706 17.54C15.4706 16.8444 16.0239 16.28 16.7059 16.28Z" fill="url(#paint0_linear_13637_227)"/>
<defs>
<linearGradient id="paint0_linear_13637_227" x1="13" y1="2" x2="13" y2="23" gradientUnits="userSpaceOnUse">
<stop stop-color="#F6F6F6"/>
<stop offset="1" stop-color="#C4C2C2"/>
</linearGradient>
</defs>
</svg>
