<svg width="51" height="51" viewBox="0 0 51 51" fill="none" xmlns="http://www.w3.org/2000/svg">
<path d="M14.4335 34.6633C16.9647 34.1716 20.8438 30.3166 21.1949 27.8639C18.9101 28.1089 14.9598 31.9593 14.4335 34.6633ZM23.7227 32.3761L20.6775 29.3214C20.948 28.8081 21.1307 28.3125 21.1949 27.8639C20.7561 27.911 20.2556 28.0914 19.7299 28.3708L16.3867 25.0172L17.7712 23.625L25.1071 30.9839L23.7227 32.3761ZM14.4335 34.6633C14.701 34.6114 14.9837 34.5214 15.2756 34.3999L16.0996 35.2266L14.322 37.0142L12.0142 34.6993L13.7918 32.9116L14.6925 33.8151C14.575 34.1062 14.4866 34.3906 14.4335 34.6633ZM33.2666 19.7591L31.141 19.3801L31.541 21.4821L29.4226 21.108L29.8475 23.185L27.7542 22.7859L28.1541 24.8879L26.0358 24.5138L26.4433 26.6442L23.9799 29.1213L20.0621 25.1912L29.6046 15.5952C31.4378 13.7515 34.4809 11.5139 37.004 12.089C35.7807 13.2063 32.7383 17.6881 33.2666 19.7591Z" fill="url(#paint0_linear_12513_63)"/>
<defs>
<linearGradient id="paint0_linear_12513_63" x1="24.5175" y1="37.0079" x2="24.5021" y2="12.0042" gradientUnits="userSpaceOnUse">
<stop stop-color="#C9C7C7"/>
<stop offset="1" stop-color="white"/>
</linearGradient>
</defs>
</svg>
