<svg width="50" height="50" viewBox="0 0 50 50" fill="none" xmlns="http://www.w3.org/2000/svg">
<path d="M13.7776 17.5971C13.9071 17.5971 14.0828 17.5784 14.3048 17.5409L15.6089 18.8617C15.0354 19.2177 14.425 19.3956 13.7776 19.3956C13.7591 19.3956 13.7314 19.391 13.6944 19.3816L13.6389 19.3675L12.0018 34.6833C11.9833 34.9268 12.0481 35.1376 12.1961 35.3156C12.344 35.4936 12.5383 35.5825 12.7787 35.5825L18.0228 35.5825C18.2633 35.5825 18.476 35.4936 18.661 35.3156C18.8459 35.1376 18.9477 34.9268 18.9662 34.6833L19.6321 28.3884L23.5443 28.3884C24.8391 28.3884 25.9027 27.92 26.7351 26.9832C27.5675 26.0465 27.9837 24.7163 27.9837 22.9927L37.7504 22.9927C37.9909 22.9927 38.199 22.9037 38.3747 22.7258C38.5504 22.5478 38.6383 22.337 38.6383 22.0935L38.6383 21.1942L39.5262 21.1942C39.7666 21.1942 39.9747 21.1052 40.1505 20.9272C40.3262 20.7492 40.4141 20.5385 40.4141 20.2949L40.4141 16.6978C40.4141 16.4543 40.3262 16.2435 40.1505 16.0655C39.9747 15.8875 39.7666 15.7985 39.5262 15.7985L38.6383 15.7985L38.6383 14.8993C38.6383 14.6557 38.5504 14.445 38.3747 14.267C38.199 14.089 37.9909 14 37.7504 14C37.5099 14 37.3019 14.089 37.1261 14.267C36.9504 14.445 36.8625 14.6557 36.8625 14.8993L36.8625 15.7985L17.3291 15.7985C17.3291 16.4543 17.1534 17.0725 16.802 17.6533L15.2482 16.0515C14.9892 15.8079 14.6932 15.7423 14.3603 15.8547C14.1198 15.8173 13.9256 15.7985 13.7776 15.7985C13.2782 15.7985 12.8574 15.8875 12.5151 16.0655C12.1729 16.2435 12.0018 16.4543 12.0018 16.6978C12.0018 16.9414 12.1729 17.1521 12.5151 17.3301C12.8574 17.5081 13.2782 17.5971 13.7776 17.5971ZM20.2147 22.9927L20.8807 22.9927C20.8807 23.7046 21.0379 24.3744 21.3523 25.002C21.6668 25.6297 22.1015 26.1495 22.6564 26.5617L22.6564 22.9927L26.0415 22.9927C26.1525 23.2925 26.208 23.5922 26.208 23.892C26.208 24.6414 25.949 25.2784 25.4311 25.803C24.9131 26.3275 24.2842 26.5898 23.5443 26.5898L19.8263 26.5898L20.2147 22.9927Z" fill="url(#paint0_linear_12012_264)"/>
<defs>
<linearGradient id="paint0_linear_12012_264" x1="26.2064" y1="14" x2="26.2064" y2="35.5825" gradientUnits="userSpaceOnUse">
<stop stop-color="white"/>
<stop offset="0.586538" stop-color="#C9C7C7"/>
</linearGradient>
</defs>
</svg>
