<svg width="16" height="22" viewBox="0 0 16 22" fill="none" xmlns="http://www.w3.org/2000/svg">
<path d="M3.00009 21.8C2.40609 21.8 1.89777 21.5886 1.47513 21.166C1.05249 20.7434 0.840808 20.2347 0.840088 19.64V11C0.840088 9.46995 1.24077 8.10195 2.04213 6.89595C2.84349 5.68995 3.88281 4.78995 5.16009 4.19595V3.43995C5.16009 2.53995 5.47509 1.77495 6.10509 1.14495C6.73509 0.514951 7.50009 0.199951 8.40009 0.199951C9.30009 0.199951 10.0651 0.514951 10.6951 1.14495C11.3251 1.77495 11.6401 2.53995 11.6401 3.43995V4.19595C12.9181 4.78995 13.9578 5.68995 14.7591 6.89595C15.5605 8.10195 15.9608 9.46995 15.9601 11V19.64C15.9601 20.234 15.7488 20.7426 15.3261 21.166C14.9035 21.5894 14.3948 21.8007 13.8001 21.8H3.00009ZM3.00009 19.64H13.8001V11C13.8001 9.50595 13.2734 8.23263 12.22 7.17999C11.1667 6.12735 9.89337 5.60067 8.40009 5.59995C6.90681 5.59923 5.63349 6.12591 4.58013 7.17999C3.52677 8.23407 3.00009 9.50739 3.00009 11V19.64ZM11.6401 15.32C11.9461 15.32 12.2028 15.2163 12.4101 15.0089C12.6175 14.8016 12.7208 14.5452 12.7201 14.24V11H4.08009V13.16H10.5601V14.24C10.5601 14.546 10.6638 14.8026 10.8711 15.01C11.0785 15.2174 11.3348 15.3207 11.6401 15.32ZM7.32009 3.54795C7.51809 3.51195 7.69809 3.48495 7.86009 3.46695C8.02209 3.44895 8.20209 3.43995 8.40009 3.43995C8.59809 3.43995 8.77809 3.44895 8.94009 3.46695C9.10209 3.48495 9.28209 3.51195 9.48009 3.54795V3.43995C9.48009 3.13395 9.37641 2.87763 9.16905 2.67099C8.96169 2.46435 8.70537 2.36067 8.40009 2.35995C8.09481 2.35923 7.83849 2.46291 7.63113 2.67099C7.42377 2.87907 7.32009 3.13539 7.32009 3.43995V3.54795Z" fill="white"/>
</svg>
