<svg width="18" height="18" viewBox="0 0 18 18" fill="none" xmlns="http://www.w3.org/2000/svg">
<path d="M16.6241 8.66755C16.5509 8.4613 16.3755 8.33927 16.1923 8.25677L15.0507 7.8068V3.35937C15.0507 3.17703 14.9783 3.00216 14.8494 2.87323C14.7204 2.7443 14.5456 2.67187 14.3632 2.67187H11.7507V1.57187C11.7507 1.426 11.6928 1.2861 11.5896 1.18296C11.4865 1.07981 11.3466 1.02187 11.2007 1.02187H6.80073C6.65486 1.02187 6.51496 1.07981 6.41182 1.18296C6.30867 1.2861 6.25073 1.426 6.25073 1.57187V2.67187H3.63823C3.45589 2.67187 3.28102 2.7443 3.15209 2.87323C3.02316 3.00216 2.95073 3.17703 2.95073 3.35937V7.80955L1.8136 8.25849C1.63038 8.34099 1.44991 8.46474 1.37635 8.67099C1.30279 8.87724 1.26773 9.07696 1.34198 9.32412L3.09682 14.4866H3.13326C4.30613 14.4866 5.33326 13.8881 6.06579 12.9802C6.79866 13.8881 7.8251 14.4281 8.99798 14.4281C10.1709 14.4281 11.198 13.8864 11.9305 12.9785C12.6634 13.8864 13.6898 14.4866 14.8627 14.4866H14.8991L16.6609 9.32446C16.7351 9.11821 16.6976 8.87415 16.6241 8.66755ZM9.00073 5.42187L4.05073 7.3754V3.90937C4.05073 3.8729 4.06521 3.83792 4.091 3.81214C4.11678 3.78635 4.15176 3.77187 4.18823 3.77187H13.8132C13.8497 3.77187 13.8847 3.78635 13.9105 3.81214C13.9362 3.83792 13.9507 3.8729 13.9507 3.90937V7.37299L9.00073 5.42187Z" fill="url(#paint0_linear_411_48)"/>
<path d="M12.0684 14.1875C10.2723 15.4339 7.72512 15.4336 5.92903 14.1875C5.92903 14.1875 4.36016 16.3531 2.67578 16.3531L3.134 16.3875C4.16044 16.3875 5.15009 15.9843 6.06653 15.5078C6.97256 15.9776 7.97817 16.2227 8.99872 16.2227C10.0193 16.2227 11.0249 15.9776 11.9309 15.5078C12.8473 15.9846 13.837 16.3878 14.8634 16.3878L15.3217 16.3535C13.6837 16.3531 12.0684 14.1875 12.0684 14.1875Z" fill="url(#paint1_linear_411_48)"/>
<defs>
<linearGradient id="paint0_linear_411_48" x1="9.00102" y1="1.02187" x2="9.00102" y2="14.4866" gradientUnits="userSpaceOnUse">
<stop stop-color="white"/>
<stop offset="1" stop-color="#D2D2D2"/>
</linearGradient>
<linearGradient id="paint1_linear_411_48" x1="8.99872" y1="14.1875" x2="8.99872" y2="16.3878" gradientUnits="userSpaceOnUse">
<stop stop-color="white"/>
<stop offset="1" stop-color="#D2D2D2"/>
</linearGradient>
</defs>
</svg>
