<svg width="21" height="21" viewBox="0 0 21 21" fill="none" xmlns="http://www.w3.org/2000/svg">
<path d="M18.174 5.37463L11.024 1.46244C10.8329 1.35688 10.6182 1.30151 10.4 1.30151C10.1817 1.30151 9.96699 1.35688 9.77595 1.46244L2.62595 5.37625C2.42176 5.48798 2.25131 5.65247 2.1324 5.85256C2.01349 6.05265 1.95048 6.281 1.94995 6.51375V14.2845C1.95048 14.5173 2.01349 14.7456 2.1324 14.9457C2.25131 15.1458 2.42176 15.3103 2.62595 15.422L9.77595 19.3358C9.96699 19.4414 10.1817 19.4967 10.4 19.4967C10.6182 19.4967 10.8329 19.4414 11.024 19.3358L18.174 15.422C18.3781 15.3103 18.5486 15.1458 18.6675 14.9457C18.7864 14.7456 18.8494 14.5173 18.85 14.2845V6.51457C18.8499 6.2814 18.7871 6.05254 18.6681 5.85198C18.5492 5.65143 18.3785 5.48655 18.174 5.37463ZM10.4 2.59994L16.9284 6.17494L14.5088 7.4985L7.98033 3.9235L10.4 2.59994ZM10.4 9.74994L3.87151 6.17494L6.6267 4.66613L13.1551 8.24113L10.4 9.74994ZM17.55 14.2878L11.05 17.8457V10.8736L13.65 9.45094V12.3499C13.65 12.5223 13.7184 12.6877 13.8403 12.8096C13.9622 12.9315 14.1276 12.9999 14.3 12.9999C14.4723 12.9999 14.6377 12.9315 14.7596 12.8096C14.8815 12.6877 14.95 12.5223 14.95 12.3499V8.73919L17.55 7.3165V14.2845V14.2878Z" fill="white"/>
</svg>
