<svg width="25" height="22" viewBox="0 0 25 22" fill="none" xmlns="http://www.w3.org/2000/svg">
<path d="M18.8799 21.8992H20.7086C21.6339 21.8992 22.394 21.2529 22.5042 20.4376L24.3218 4.05176H18.8138V0.0249023H16.6437V4.05176H11.1687L11.4992 6.37839C13.3829 6.8457 15.1455 7.69085 16.203 8.62547C17.7893 10.0374 18.8799 11.499 18.8799 13.8852V21.8992ZM0.0866699 20.9049V19.9106H16.6437V20.9049C16.6437 21.4418 16.148 21.8992 15.509 21.8992H1.18827C0.582389 21.8992 0.0866699 21.4418 0.0866699 20.9049ZM16.6437 13.9449C16.6437 5.99062 0.0866699 5.99062 0.0866699 13.9449H16.6437ZM0.0866699 15.9335H16.6106V17.922H0.0866699V15.9335Z" fill="url(#paint0_linear_566_151)"/>
<defs>
<linearGradient id="paint0_linear_566_151" x1="12.2042" y1="0.0249023" x2="12.2042" y2="21.8992" gradientUnits="userSpaceOnUse">
<stop stop-color="white"/>
<stop offset="1" stop-color="#CFCFCF"/>
</linearGradient>
</defs>
</svg>
