<svg width="21" height="19" viewBox="0 0 21 19" fill="none" xmlns="http://www.w3.org/2000/svg">
<path d="M10.55 18.2375C10.244 18.2375 9.94703 18.1701 9.65903 18.0355C9.37103 17.9009 9.11903 17.7072 8.90303 17.4545L0.641029 7.57245C0.479029 7.37445 0.357709 7.15845 0.277069 6.92445C0.196429 6.69045 0.155749 6.44745 0.155029 6.19545C0.155029 6.03345 0.168709 5.86713 0.196069 5.69649C0.223429 5.52585 0.281749 5.36817 0.371029 5.22345L2.39603 1.20045C2.59403 0.840451 2.85971 0.552451 3.19307 0.336451C3.52643 0.120451 3.89975 0.0124512 4.31303 0.0124512H16.787C17.201 0.0124512 17.5747 0.120451 17.9081 0.336451C18.2414 0.552451 18.5067 0.840451 18.704 1.20045L20.729 5.22345C20.819 5.36745 20.8777 5.52477 20.9051 5.69541C20.9324 5.86605 20.9457 6.03273 20.945 6.19545C20.945 6.44745 20.9047 6.69045 20.8241 6.92445C20.7434 7.15845 20.6217 7.37445 20.459 7.57245L12.197 17.4545C11.981 17.7065 11.729 17.9001 11.441 18.0355C11.153 18.1709 10.856 18.2382 10.55 18.2375ZM7.98503 5.41245H13.115L11.495 2.17245H9.60503L7.98503 5.41245ZM9.47003 14.7815V7.57245H3.47603L9.47003 14.7815ZM11.63 14.7815L17.624 7.57245H11.63V14.7815ZM15.518 5.41245H18.38L16.76 2.17245H13.898L15.518 5.41245ZM2.72003 5.41245H5.58203L7.20203 2.17245H4.34003L2.72003 5.41245Z" fill="white"/>
</svg>
