<svg width="21" height="30" viewBox="0 0 21 30" fill="none" xmlns="http://www.w3.org/2000/svg">
<path d="M14.4066 10.7303C14.0604 10.9214 13.6282 10.7916 13.4424 10.4425C13.2542 10.091 13.382 9.65218 13.7282 9.46345C15.3639 8.56226 16.126 7.39686 16.2793 6.2574C16.3606 5.64874 16.2677 5.03773 16.0423 4.47154C15.8123 3.89827 15.4475 3.37691 14.9851 2.95698C14.086 2.14072 12.8243 1.71136 11.5069 2.044C10.9725 2.17847 10.5102 2.44977 10.1059 2.83195C9.67605 3.23772 9.3043 3.76852 8.97902 4.39605C8.79547 4.74992 8.36563 4.88439 8.01943 4.70038C7.67092 4.514 7.53848 4.07757 7.71971 3.72606C8.11934 2.95698 8.58636 2.29643 9.13934 1.7727C9.71788 1.22774 10.3894 0.836127 11.17 0.64032C12.9823 0.185008 14.7086 0.765353 15.9354 1.87886C16.5581 2.44505 17.053 3.15043 17.3644 3.92894C17.678 4.71453 17.8058 5.57797 17.6873 6.45321C17.4759 8.01495 16.4907 9.58141 14.4066 10.7303ZM8.95578 16.4323C6.26058 12.7568 6.19553 9.27472 9.46694 6.038L7.11097 4.71689C5.22432 3.97141 1.76238 9.46581 3.10069 10.9332L4.93622 13.6981L4.55749 14.5002C4.45294 14.7385 4.55517 14.906 4.81075 15.0216L5.05936 15.09L0.284668 24.6845L1.25122 26.7771L3.18433 26.1991L3.68155 25.2177L3.20525 24.3118L4.25545 24.083L4.49941 23.6017L3.95107 22.7524L4.31121 22.0423L5.35908 21.9078L5.70063 21.2355L5.11512 20.4593L5.4892 19.7233L6.55798 19.5464L8.01246 16.7272L8.25875 16.864C8.68626 17.1283 8.90699 16.9584 8.95578 16.4323ZM14.0279 18.7372L13.3169 21.4313L12.3294 21.8276L12.1226 22.6132L12.8429 23.2337L12.6547 23.9485L11.6789 24.2976L11.4791 25.0526L12.1784 25.7485L12.0437 26.2604L11.0841 26.7016L11.7253 27.4683L11.4488 28.5134L9.71788 29.4736L8.36563 27.6735L10.9447 17.8997L10.3196 17.7298C10.1919 17.6944 10.1129 17.56 10.1477 17.4279L10.4103 16.4347C8.51898 14.9791 7.58263 12.4595 8.23319 9.98953C9.06963 6.81651 12.2249 4.9009 15.3522 5.61336C15.3662 5.78321 15.3639 5.95543 15.3406 6.12765C15.2825 6.55701 15.099 6.99816 14.7598 7.42517C14.7133 7.48178 14.6645 7.54076 14.6134 7.59738C13.6143 7.53133 12.678 8.18716 12.4084 9.20631C12.2923 9.6451 12.3178 10.0886 12.4549 10.4873C12.4874 10.6289 12.5409 10.7657 12.6106 10.9002C12.7755 11.2068 13.0172 11.4404 13.3006 11.589C13.4865 11.7141 13.6956 11.8084 13.921 11.8721C15.0432 12.1764 16.1933 11.5206 16.5279 10.4C16.8671 10.0957 17.1622 9.77485 17.4155 9.44458C17.908 8.80054 18.2449 8.11639 18.4448 7.42045C19.8017 8.9067 20.3988 11.0464 19.8435 13.1508C19.1929 15.6208 17.1367 17.3288 14.7853 17.6284L14.5228 18.6216C14.4879 18.7513 14.3555 18.8315 14.2254 18.7962L14.0279 18.7372Z" fill="url(#paint0_linear_566_174)"/>
<defs>
<linearGradient id="paint0_linear_566_174" x1="10.1673" y1="0.484375" x2="10.1673" y2="29.4736" gradientUnits="userSpaceOnUse">
<stop stop-color="white"/>
<stop offset="1" stop-color="white"/>
</linearGradient>
</defs>
</svg>
