<svg width="25" height="18" viewBox="0 0 25 18" fill="none" xmlns="http://www.w3.org/2000/svg">
<path d="M1.8616 2.97788C1.97196 2.97788 2.12174 2.96235 2.31093 2.93127L3.42242 4.02677C2.93368 4.32201 2.41341 4.46963 1.8616 4.46963C1.84584 4.46963 1.82219 4.46575 1.79066 4.45798L1.74336 4.44633L0.34808 17.1495C0.332314 17.3515 0.387495 17.5263 0.51362 17.674C0.639748 17.8216 0.80529 17.8954 1.01025 17.8954H5.47987C5.68483 17.8954 5.86613 17.8216 6.02379 17.674C6.18145 17.5263 6.26816 17.3515 6.28393 17.1495L6.8515 11.9284H10.186C11.2896 11.9284 12.1961 11.5399 12.9056 10.763C13.6151 9.986 13.9698 8.88273 13.9698 7.45313H22.2942C22.4991 7.45313 22.6765 7.37932 22.8263 7.2317C22.976 7.08408 23.0509 6.90927 23.0509 6.70726V5.96138H23.8077C24.0126 5.96138 24.19 5.88757 24.3398 5.73995C24.4896 5.59233 24.5645 5.41752 24.5645 5.21551V2.23201C24.5645 2.03 24.4896 1.85519 24.3398 1.70757C24.19 1.55995 24.0126 1.48613 23.8077 1.48613H23.0509V0.74026C23.0509 0.538252 22.976 0.363437 22.8263 0.215816C22.6765 0.0681953 22.4991 -0.00561523 22.2942 -0.00561523C22.0892 -0.00561523 21.9118 0.0681953 21.7621 0.215816C21.6123 0.363437 21.5374 0.538252 21.5374 0.74026V1.48613H4.88865C4.88865 2.03 4.73887 2.54279 4.43932 3.0245L3.11499 1.69591C2.89427 1.4939 2.64201 1.43952 2.35823 1.53275C2.15327 1.50167 1.98773 1.48613 1.8616 1.48613C1.43592 1.48613 1.07725 1.55995 0.785582 1.70757C0.493914 1.85519 0.34808 2.03 0.34808 2.23201C0.34808 2.43402 0.493914 2.60883 0.785582 2.75645C1.07725 2.90407 1.43592 2.97788 1.8616 2.97788ZM7.34813 7.45313H7.9157C7.9157 8.04362 8.04971 8.59914 8.31773 9.1197C8.58575 9.64026 8.95624 10.0715 9.42922 10.4133V7.45313H12.3144C12.409 7.70176 12.4563 7.95038 12.4563 8.19901C12.4563 8.82057 12.2355 9.3489 11.7941 9.78399C11.3527 10.2191 10.8166 10.4366 10.186 10.4366H7.01704L7.34813 7.45313Z" fill="url(#paint0_linear_566_176)"/>
<defs>
<linearGradient id="paint0_linear_566_176" x1="12.455" y1="-0.00561523" x2="12.455" y2="17.8954" gradientUnits="userSpaceOnUse">
<stop stop-color="white"/>
<stop offset="1" stop-color="#C4C2C2"/>
</linearGradient>
</defs>
</svg>
