<svg width="11" height="16" viewBox="0 0 11 16" fill="none" xmlns="http://www.w3.org/2000/svg">
<path d="M7.71638 5.59848C7.52721 5.7029 7.29107 5.632 7.18951 5.44122C7.08668 5.24915 7.1565 5.00939 7.34567 4.90626C8.23944 4.41385 8.65585 3.77705 8.73964 3.15444C8.78407 2.82187 8.73329 2.488 8.61015 2.17863C8.48446 1.86539 8.28514 1.58051 8.0325 1.35106C7.54118 0.905047 6.85181 0.670439 6.13197 0.852196C5.83997 0.925672 5.58733 1.07391 5.36642 1.28274C5.13156 1.50446 4.92843 1.79449 4.75069 2.13738C4.65039 2.33074 4.41552 2.40421 4.22636 2.30367C4.03593 2.20183 3.96356 1.96336 4.06259 1.77129C4.28095 1.35106 4.53613 0.990124 4.83829 0.703955C5.15441 0.406184 5.52131 0.192201 5.94788 0.0852098C6.93814 -0.163577 7.88142 0.15353 8.55175 0.761962C8.89199 1.07133 9.1624 1.45676 9.33253 1.88215C9.50392 2.3114 9.57374 2.7832 9.50899 3.26143C9.39346 4.11479 8.85517 4.97072 7.71638 5.59848ZM4.73799 8.71412C3.2653 6.70578 3.22976 4.80314 5.0173 3.03456L3.72996 2.31269C2.69908 1.90535 0.807439 4.90755 1.5387 5.70934L2.54166 7.22011L2.33472 7.65839C2.27759 7.78858 2.33345 7.88011 2.4731 7.94327L2.60894 7.98065L0 13.2232L0.528136 14.3666L1.58441 14.0508L1.85609 13.5146L1.59584 13.0196L2.16968 12.8945L2.30298 12.6316L2.00336 12.1675L2.20015 11.7795L2.77272 11.706L2.95934 11.3386L2.63941 10.9145L2.84381 10.5123L3.42781 10.4157L4.22255 8.87525L4.35712 8.95002C4.59072 9.09439 4.71133 9.00158 4.73799 8.71412ZM7.50944 9.97353L7.12095 11.4456L6.58139 11.6622L6.4684 12.0914L6.86196 12.4305L6.75913 12.821L6.22592 13.0118L6.11673 13.4243L6.49887 13.8046L6.42524 14.0843L5.90091 14.3254L6.25131 14.7443L6.10023 15.3154L5.15441 15.84L4.41552 14.8565L5.82473 9.51591L5.48322 9.4231C5.4134 9.40376 5.37023 9.33029 5.38928 9.2581L5.53274 8.71541C4.49932 7.92007 3.98768 6.54336 4.34316 5.19372C4.8002 3.45995 6.52426 2.41324 8.23309 2.80253C8.2407 2.89534 8.23944 2.98944 8.22674 3.08354C8.195 3.31815 8.0947 3.5592 7.90935 3.79252C7.88396 3.82346 7.8573 3.85569 7.82937 3.88662C7.28346 3.85053 6.77183 4.20889 6.62456 4.76576C6.56108 5.00552 6.57504 5.24786 6.64995 5.46571C6.66772 5.54305 6.69692 5.61782 6.73501 5.6913C6.82515 5.85887 6.95718 5.98649 7.11207 6.0677C7.21363 6.13602 7.32789 6.18758 7.45104 6.22238C8.06424 6.38867 8.69267 6.03032 8.87548 5.41802C9.06084 5.25173 9.22207 5.07642 9.36046 4.89595C9.6296 4.54404 9.81369 4.17021 9.92287 3.78994C10.6643 4.60205 10.9906 5.77122 10.6871 6.92105C10.3317 8.27069 9.20811 9.20396 7.92331 9.36767L7.77985 9.91036C7.76081 9.98126 7.68845 10.0251 7.61735 10.0058L7.50944 9.97353Z" fill="url(#paint0_linear_12485_123)"/>
<defs>
<linearGradient id="paint0_linear_12485_123" x1="5.4" y1="0" x2="5.4" y2="15.84" gradientUnits="userSpaceOnUse">
<stop stop-color="white"/>
<stop offset="1" stop-color="#B3B3B3"/>
</linearGradient>
</defs>
</svg>
