<svg width="12" height="13" viewBox="0 0 12 13" fill="none" xmlns="http://www.w3.org/2000/svg">
<path fill-rule="evenodd" clip-rule="evenodd" d="M3.91558 0.170409C4.03227 0.0613003 4.19053 0 4.35556 0H9.33333C10.3643 0 11.2 0.781469 11.2 1.74545V11.0545C11.2 12.0186 10.3643 12.8 9.33333 12.8H1.86667C0.835738 12.8 0 12.0186 0 11.0545V4.07273C0 3.91842 0.0655574 3.77043 0.182243 3.66132L3.91558 0.170409ZM9.33333 1.16364H4.97778V4.07273C4.97778 4.39405 4.69921 4.65455 4.35556 4.65455H1.24444V11.0545C1.24444 11.3759 1.52303 11.6364 1.86667 11.6364H9.33333C9.67699 11.6364 9.95555 11.3759 9.95555 11.0545V1.74545C9.95555 1.42413 9.67699 1.16364 9.33333 1.16364ZM2.1244 3.49091H3.73333V1.98645L2.1244 3.49091ZM2.48889 6.98182C2.48889 6.66048 2.76747 6.4 3.11111 6.4H8.08889C8.43254 6.4 8.71111 6.66048 8.71111 6.98182C8.71111 7.30316 8.43254 7.56364 8.08889 7.56364H3.11111C2.76747 7.56364 2.48889 7.30316 2.48889 6.98182ZM2.48889 9.30909C2.48889 8.98775 2.76747 8.72727 3.11111 8.72727H8.08889C8.43254 8.72727 8.71111 8.98775 8.71111 9.30909C8.71111 9.63043 8.43254 9.89091 8.08889 9.89091H3.11111C2.76747 9.89091 2.48889 9.63043 2.48889 9.30909Z" fill="#FAFAFA"/>
</svg>
