<svg width="14" height="13" viewBox="0 0 14 13" fill="none" xmlns="http://www.w3.org/2000/svg">
<path d="M5.37695 9.71484C5.39673 9.7115 5.51882 9.68908 5.6709 9.7207C5.74183 9.73547 5.87199 9.77489 6.00293 9.87891V10.2471C5.86917 10.3232 5.74614 10.3886 5.65625 10.4346L5.24707 9.74805H5.24902C5.2529 9.74666 5.30542 9.72692 5.37695 9.71484ZM6.99805 2.25977C7.20973 3.02619 7.38476 3.9585 7.38477 4.95312C7.38477 5.59039 7.38349 6.18212 7.32422 6.68652L8.81543 7.17285C9.03197 6.78915 9.28494 6.41812 9.58008 6.03125L9.58789 6.02051L9.5957 6.01074C9.99599 5.4502 10.4508 4.95997 10.8936 4.54688C10.655 5.0407 10.3541 5.56656 9.97559 6.07812C9.60808 6.51472 9.17216 7.05988 8.88086 7.4082L9.75781 8.56055C9.66036 8.59707 9.56537 8.63167 9.4707 8.66309L9.58301 9.88281C9.3316 9.82166 9.09923 9.75947 8.88965 9.69043L8.81055 9.66406C8.74317 9.62928 8.64871 9.57877 8.54004 9.51465C8.25841 9.34846 7.97935 9.16037 7.85547 9.04785L7.60254 8.81738V7.9082L7.10156 8.3623L6.51758 7.83203V8.89355L6.26465 9.12402C6.1655 9.21412 5.9004 9.3855 5.60645 9.55273C5.47171 9.62938 5.35156 9.69344 5.27441 9.73242C5.26278 9.7383 5.25282 9.74232 5.24512 9.74609V9.74414C5.01322 9.82563 4.72739 9.89629 4.40625 9.96973L4.51953 8.66016C4.39495 8.6207 4.27132 8.57605 4.14551 8.52832L5.08008 7.36523C4.90192 7.18125 4.73242 6.9858 4.56055 6.77344L4.02539 6.08105C3.66059 5.58548 3.36823 5.07782 3.13379 4.59961C3.47329 4.9184 3.82141 5.27989 4.14844 5.68164L4.41309 6.02246C4.71411 6.43294 4.97155 6.80998 5.19141 7.18457L6.67969 6.7373C6.64943 6.17096 6.61523 5.58523 6.61523 4.95312C6.61524 3.95108 6.78835 3.02125 6.99805 2.25977Z" fill="url(#paint0_linear_9961_68)" stroke="url(#paint1_linear_9961_68)" stroke-width="1.6"/>
<defs>
<linearGradient id="paint0_linear_9961_68" x1="7" y1="0" x2="7" y2="13" gradientUnits="userSpaceOnUse">
<stop stop-color="#FFFCFC"/>
<stop offset="1" stop-color="#C2C2C2"/>
</linearGradient>
<linearGradient id="paint1_linear_9961_68" x1="7" y1="0" x2="7" y2="13" gradientUnits="userSpaceOnUse">
<stop stop-color="#FFFCFC"/>
<stop offset="1" stop-color="#C2C2C2"/>
</linearGradient>
</defs>
</svg>
