<svg width="14" height="13" viewBox="0 0 14 13" fill="none" xmlns="http://www.w3.org/2000/svg">
<path d="M6.66944 12.9475C6.65217 12.9186 6.69732 12.4995 6.76977 12.0165C6.9558 10.7757 6.96303 10.7997 6.54396 11.2659C5.71239 12.1909 4.23569 12.9248 3.19808 12.9289L2.9283 12.9298L3.05634 12.7101C3.27034 12.3429 4.00858 11.6295 4.48071 11.3338L4.92659 11.0544L4.09092 11.0116C2.8255 10.9468 1.72295 10.6276 0.631634 10.011C0.321418 9.83571 0.0394361 9.6644 0.00500787 9.63017C-0.0662752 9.55961 0.635881 9.32884 1.31762 9.19906C1.96672 9.07541 3.4314 9.09149 4.06547 9.22914C4.35519 9.2916 4.60046 9.33555 4.61051 9.32514C4.62101 9.31357 4.40389 9.13382 4.12898 8.92215C2.77297 7.87822 1.51587 6.0763 0.926041 4.33094C0.74907 3.8073 0.7021 3.58359 0.769125 3.58359C0.881358 3.58359 2.05201 4.12262 2.46671 4.3653C3.62304 5.04174 4.76274 6.07248 5.52616 7.13203C5.74892 7.44121 5.91278 7.63091 5.8903 7.55365C5.7384 7.03151 5.67277 6.34431 5.67221 5.26996C5.67151 3.91279 5.76239 3.28412 6.13458 2.07282C6.35138 1.36723 6.95366 0 7.04771 0C7.11841 0 7.57648 1.01096 7.78548 1.62818C8.36961 3.35341 8.53667 5.48325 8.21757 7.13665C8.15842 7.44329 8.11 7.72403 8.11 7.76058C8.11 7.79759 8.28988 7.56637 8.50974 7.2477C9.50448 5.80621 11.0144 4.56842 12.6196 3.87867C13.4585 3.51824 13.4299 3.51535 13.3154 3.94923C12.8544 5.69794 11.4849 7.73675 9.96573 8.93579C9.68057 9.16089 9.46332 9.34504 9.48294 9.34504C9.50254 9.34504 9.71993 9.29993 9.96597 9.2444C11.0106 9.00878 12.2001 9.04025 13.3253 9.33347C14.1365 9.54469 14.1552 9.57036 13.7043 9.85549C12.5822 10.5651 11.3827 10.9333 9.93662 11.0119L9.17645 11.0535L9.60699 11.306C10.0185 11.5473 10.9849 12.4695 11.1533 12.7816C11.2282 12.9204 11.2161 12.9298 10.9587 12.9298C10.504 12.9298 9.62881 12.6714 9.011 12.3549C8.57486 12.1313 8.27667 11.9062 7.82168 11.4567L7.21446 10.8569L7.41112 11.8055C7.51927 12.3273 7.60915 12.8094 7.61083 12.877C7.61316 12.9823 7.54608 13 7.15741 13C6.90634 13 6.68671 12.9776 6.66944 12.9475Z" fill="url(#paint0_linear_10029_97)"/>
<defs>
<linearGradient id="paint0_linear_10029_97" x1="7" y1="0" x2="7" y2="13" gradientUnits="userSpaceOnUse">
<stop stop-color="white"/>
<stop offset="1" stop-color="#AAAAAA"/>
</linearGradient>
</defs>
</svg>
