<svg width="16" height="17" viewBox="0 0 16 17" fill="none" xmlns="http://www.w3.org/2000/svg">
<path d="M11.5901 16.6875C9.64804 17.5951 8.55565 16.2373 8.07014 16.2338C7.58464 16.2302 6.2495 17.5951 4.30747 16.6875C-3.582 10.3311 0.500671 0.906987 7.46409 2.87525C7.52346 2.19476 7.72509 1.21533 8.41034 0.574866C9.79427 -0.718583 9.50273 0.574866 9.50273 0.574866C8.53531 1.54863 8.58628 2.43708 8.58269 2.9788C15.3527 0.801755 19.7223 10.3311 11.5901 16.6875ZM3.09371 4.31854C3.09371 4.31854 0.423426 6.24709 0.908932 10.3311C0.908932 10.3311 1.75857 4.88576 4.42885 4.77231L3.09371 4.31854Z" fill="url(#paint0_linear_9632_1183)"/>
<defs>
<linearGradient id="paint0_linear_9632_1183" x1="8" y1="0" x2="8" y2="17" gradientUnits="userSpaceOnUse">
<stop stop-color="white"/>
<stop offset="1" stop-color="#DEDEDE"/>
</linearGradient>
</defs>
</svg>
