<svg width="11" height="13" viewBox="0 0 11 13" fill="none" xmlns="http://www.w3.org/2000/svg">
<path d="M10.9963 3.26284C10.9974 3.06074 10.9483 2.86167 10.8534 2.68436C10.7586 2.50705 10.6212 2.35734 10.4542 2.24933C10.2872 2.14132 10.096 2.07857 9.89874 2.06697C9.70146 2.05538 9.50453 2.09533 9.32652 2.18307C9.31476 1.97954 9.25337 1.78226 9.14795 1.60922C9.04254 1.43618 8.89645 1.29288 8.723 1.19238C8.54956 1.09188 8.35428 1.03739 8.15496 1.03387C7.95565 1.03034 7.75864 1.0779 7.5819 1.17221C7.56197 0.879528 7.44278 0.603142 7.24489 0.390737C7.04701 0.178331 6.78284 0.0432282 6.49797 0.00873754C6.21309 -0.0257531 5.92538 0.042532 5.68448 0.201811C5.44357 0.361091 5.26458 0.601374 5.17838 0.881204C4.99063 0.766038 4.77583 0.705162 4.55691 0.70507C4.39582 0.705571 4.23642 0.738581 4.08783 0.802208C3.93924 0.865834 3.80439 0.958827 3.69101 1.07586C3.57763 1.19288 3.48795 1.33165 3.4271 1.48419C3.36625 1.63674 3.33544 1.80006 3.33642 1.96481V6.81233C2.85722 6.19969 2.38924 5.59471 2.31811 5.49132C2.20984 5.31549 2.0595 5.17081 1.8813 5.07098C1.70311 4.97114 1.50296 4.91946 1.29979 4.9208C1.12746 4.91547 0.955892 4.94633 0.795673 5.01145C0.635454 5.07658 0.489987 5.1746 0.36825 5.29947C0.246514 5.42433 0.151091 5.57339 0.0878738 5.73745C0.0246563 5.9015 -0.00501508 6.07706 0.000691284 6.2533C0.0343856 6.94252 1.33723 9.37776 2.21328 10.7026C3.53859 12.709 4.804 13 4.86015 13H4.92754H8.79864C8.87317 12.9992 8.94542 12.9736 9.00455 12.9272C9.67683 12.2936 10.163 11.4808 10.4085 10.5801C10.7829 9.39691 10.9813 7.69683 11 5.38794L10.9963 3.26284ZM9.76829 10.3656C9.55807 11.0944 9.18071 11.7613 8.66761 12.3108H4.95749C4.78153 12.2572 3.80814 11.8896 2.75988 10.3006C1.71161 8.71152 0.693296 6.59408 0.674577 6.21883C0.67156 6.13868 0.684992 6.05877 0.714009 5.98425C0.743025 5.90973 0.786982 5.84225 0.843048 5.78616C0.898274 5.72802 0.964764 5.68232 1.03826 5.65199C1.11175 5.62166 1.19063 5.60737 1.26984 5.61002C1.36874 5.60414 1.4673 5.62643 1.55455 5.67443C1.6418 5.72243 1.71431 5.79424 1.76403 5.88188C1.8726 6.04653 2.64756 7.03058 3.10056 7.61642L4.01031 6.98846V1.96481C4.00402 1.88674 4.01362 1.80817 4.03852 1.73408C4.06342 1.66 4.10306 1.59199 4.15495 1.53437C4.20685 1.47674 4.26986 1.43074 4.34001 1.39928C4.41016 1.36782 4.48592 1.35158 4.56252 1.35158C4.63912 1.35158 4.71489 1.36782 4.78504 1.39928C4.85519 1.43074 4.9182 1.47674 4.97009 1.53437C5.02198 1.59199 5.06163 1.66 5.08652 1.73408C5.11142 1.80817 5.12102 1.88674 5.11473 1.96481V6.23032H5.78862V1.25262C5.80455 1.11172 5.87057 0.981724 5.97412 0.887365C6.07766 0.793007 6.21151 0.740869 6.35019 0.740869C6.48887 0.740869 6.62272 0.793007 6.72626 0.887365C6.82981 0.981724 6.89583 1.11172 6.91176 1.25262V6.2801H7.58565V2.27879C7.57946 2.20329 7.58865 2.12731 7.61266 2.05563C7.63666 1.98396 7.67494 1.91816 7.72508 1.8624C7.77523 1.80663 7.83614 1.76212 7.90397 1.73167C7.9718 1.70122 8.04506 1.68549 8.11914 1.68549C8.19321 1.68549 8.26648 1.70122 8.33431 1.73167C8.40214 1.76212 8.46305 1.80663 8.5132 1.8624C8.56334 1.91816 8.60162 1.98396 8.62562 2.05563C8.64962 2.12731 8.65882 2.20329 8.65263 2.27879V6.65917H9.32652V3.25136C9.33731 3.12441 9.39425 3.00621 9.48608 2.9201C9.57792 2.83399 9.69798 2.78622 9.82257 2.78622C9.94716 2.78622 10.0672 2.83399 10.1591 2.9201C10.2509 3.00621 10.3078 3.12441 10.3186 3.25136V5.37645C10.3074 7.6394 10.1277 9.25141 9.76829 10.3656Z" fill="url(#paint0_linear_10029_93)"/>
<defs>
<linearGradient id="paint0_linear_10029_93" x1="5.5" y1="0" x2="5.5" y2="13" gradientUnits="userSpaceOnUse">
<stop stop-color="#FEFEFE"/>
<stop offset="1" stop-color="#D0CFCF"/>
</linearGradient>
</defs>
</svg>
