<svg width="13" height="13" viewBox="0 0 13 13" fill="none" xmlns="http://www.w3.org/2000/svg">
<path d="M12.9513 2.06374C12.9065 1.88444 12.7272 1.79479 12.5479 1.79479H11.2031V0.45006C11.2031 0.270762 11.1135 0.0914649 10.9342 0.0466406C10.7549 -0.0430081 10.5756 0.00181618 10.4411 0.136289L8.64815 1.92926C8.5585 2.01891 8.51368 2.10856 8.51368 2.24303V3.85671L5.95869 6.4117C5.77939 6.591 5.77939 6.85994 5.95869 7.03924C6.04834 7.12889 6.18281 7.17371 6.27246 7.17371C6.36211 7.17371 6.49658 7.12889 6.58623 7.03924L9.14122 4.48425H10.7549C10.8894 4.48425 10.979 4.43943 11.0687 4.34978L12.8616 2.5568C12.9961 2.42233 13.0409 2.24303 12.9513 2.06374Z" fill="url(#paint0_linear_10029_98)"/>
<path d="M7.21769 7.6669C6.99356 7.93585 6.63497 8.07032 6.27637 8.07032C5.91778 8.07032 5.55918 7.93585 5.33506 7.6669C4.79717 7.12901 4.79717 6.27735 5.33506 5.78428L6.59015 4.5292C6.5005 4.48438 6.36602 4.48438 6.27637 4.48438C5.02129 4.48438 4.03516 5.47051 4.03516 6.72559C4.03516 7.98068 5.02129 8.96681 6.27637 8.96681C7.53146 8.96681 8.51759 7.98068 8.51759 6.72559C8.51759 6.63594 8.51759 6.50147 8.47277 6.41182L7.21769 7.6669Z" fill="url(#paint1_linear_10029_98)"/>
<path d="M11.6992 4.97648C11.475 5.24543 11.1164 5.3799 10.7578 5.3799H9.50277L9.18899 5.69367C9.32347 6.00744 9.36829 6.36603 9.36829 6.72463C9.36829 8.47278 7.97874 9.86234 6.23059 9.86234C4.48244 9.86234 3.09288 8.47278 3.09288 6.72463C3.09288 4.97648 4.48244 3.58692 6.23059 3.58692C6.58918 3.58692 6.94778 3.67657 7.26155 3.76622L7.62014 3.49728V2.24219C7.62014 1.8836 7.75461 1.525 8.02356 1.30088L8.4718 0.852638C7.75461 0.583692 7.03743 0.449219 6.27541 0.449219C2.82394 0.449219 0 3.27315 0 6.72463C0 10.1761 2.82394 13 6.27541 13C9.72689 13 12.5508 10.1761 12.5508 6.72463C12.5508 5.96262 12.4163 5.24543 12.1474 4.52824L11.6992 4.97648Z" fill="url(#paint2_linear_10029_98)"/>
<defs>
<linearGradient id="paint0_linear_10029_98" x1="9.41108" y1="0" x2="9.41108" y2="7.17371" gradientUnits="userSpaceOnUse">
<stop stop-color="white"/>
<stop offset="1" stop-color="#B9B9B9"/>
</linearGradient>
<linearGradient id="paint1_linear_10029_98" x1="6.27637" y1="4.48438" x2="6.27637" y2="8.96681" gradientUnits="userSpaceOnUse">
<stop stop-color="white"/>
<stop offset="1" stop-color="#B9B9B9"/>
</linearGradient>
<linearGradient id="paint2_linear_10029_98" x1="6.27541" y1="0.449219" x2="6.27541" y2="13" gradientUnits="userSpaceOnUse">
<stop stop-color="white"/>
<stop offset="1" stop-color="#B9B9B9"/>
</linearGradient>
</defs>
</svg>
