<svg width="11" height="15" viewBox="0 0 11 15" fill="none" xmlns="http://www.w3.org/2000/svg">
<path d="M10.0648 0H0.935205C0.418502 0 0 0.439453 0 0.981445V14.0186C0 14.5605 0.418502 15 0.935205 15H10.0648C10.5811 15 11 14.5605 11 14.0186V0.981445C11 0.439453 10.5811 0 10.0648 0ZM5.49999 13.9398C5.20759 13.9398 4.97063 13.6908 4.97063 13.3841C4.97063 13.0774 5.20759 12.8288 5.49999 12.8288C5.79194 12.8288 6.02934 13.0774 6.02934 13.3841C6.02934 13.6908 5.79194 13.9398 5.49999 13.9398ZM9.08376 11.8314H1.9158V2.24534H9.08376V11.8314Z" fill="url(#paint0_linear_10029_96)"/>
<defs>
<linearGradient id="paint0_linear_10029_96" x1="5.5" y1="0" x2="5.5" y2="15" gradientUnits="userSpaceOnUse">
<stop stop-color="white"/>
<stop offset="1" stop-color="#BBBBBB"/>
</linearGradient>
</defs>
</svg>
