<svg width="13" height="13" viewBox="0 0 13 13" fill="none" xmlns="http://www.w3.org/2000/svg">
<path fill-rule="evenodd" clip-rule="evenodd" d="M3.25001 3.03141C3.25001 1.3593 4.7069 0 6.5 0C8.29309 0 9.74409 1.3593 9.75 3.03141C9.75 4.7092 6.5 9.09991 6.5 9.09991C6.5 9.09991 3.25001 4.7092 3.25001 3.03141ZM5.2 3.24997C5.2 3.96756 5.78241 4.54995 6.5 4.54995C7.2176 4.54995 7.8 3.96756 7.8 3.24997C7.8 2.53237 7.2176 1.94998 6.5 1.94998C5.78241 1.94998 5.2 2.53237 5.2 3.24997ZM0.32753 7.88553L3.12378 6.28778C3.33311 6.66237 3.55419 7.03241 3.77085 7.381L3.78659 7.40629L1.64579 8.62951L4.20445 11.7L8.79554 11.6999L11.3542 8.62957L9.21343 7.40629L9.22916 7.381C9.4458 7.03241 9.66687 6.66237 9.87623 6.2878L12.6725 7.88559C12.8394 7.98094 12.9555 8.14533 12.9897 8.33454C13.0238 8.52376 12.9724 8.71836 12.8493 8.86604L9.59933 12.766C9.47583 12.9142 9.29292 12.9999 9.1 12.9999L3.90002 13C3.7071 13 3.52415 12.9143 3.40065 12.7661L0.150653 8.86598C0.0275763 8.7183 -0.0238013 8.52369 0.0103306 8.33448C0.0444624 8.14526 0.160602 7.98088 0.32753 7.88553Z" fill="url(#paint0_linear_10029_95)"/>
<defs>
<linearGradient id="paint0_linear_10029_95" x1="6.5" y1="0" x2="6.5" y2="13" gradientUnits="userSpaceOnUse">
<stop stop-color="white"/>
<stop offset="1" stop-color="#D2D2D2"/>
</linearGradient>
</defs>
</svg>
