<svg width="16" height="13" viewBox="0 0 16 13" fill="none" xmlns="http://www.w3.org/2000/svg">
<path d="M14.1391 5.76108L13.68 5.8657C12.7059 6.08768 11.6584 5.84806 10.9464 5.24035L10.9461 5.24062L8.96855 3.55266L8.63227 3.26562L3.55463 7.59977L2.88213 8.17379L0 10.6339L2.7706 12.9988L4.75601 9.77332L5.5322 10.4359L6.66624 9.46788L7.63171 11.4574L9.92468 10.6467L9.16768 9.08676L10.5292 7.92461C10.8469 8.05219 11.1784 8.15526 11.5202 8.23064C12.4692 8.43989 13.4714 8.43645 14.4184 8.22069L14.8783 8.11588L14.1391 5.76108ZM5.98164 8.36417L5.30914 7.79014L8.1828 5.33728L8.8553 5.91131L5.98164 8.36417ZM8.77371 8.27494L8.56577 7.84645L9.27796 7.23855C9.40709 7.33175 9.54056 7.42001 9.67837 7.50276L8.77371 8.27494Z" fill="url(#paint0_linear_9961_45)"/>
<path d="M15.3269 0.0543082L14.7853 0.516648L14.18 0L13.5075 0.57405L14.1128 1.09067L12.2523 2.67865L11.1699 1.75464L9.6875 3.01997L11.4425 4.51798L12.5886 3.53972L12.9249 3.25268L15.9994 0.628359L15.3269 0.0543082Z" fill="url(#paint1_linear_9961_45)"/>
<defs>
<linearGradient id="paint0_linear_9961_45" x1="7.43914" y1="3.26562" x2="7.43914" y2="12.9988" gradientUnits="userSpaceOnUse">
<stop stop-color="white"/>
<stop offset="1" stop-color="#CBCBCB"/>
</linearGradient>
<linearGradient id="paint1_linear_9961_45" x1="12.8435" y1="0" x2="12.8435" y2="4.51798" gradientUnits="userSpaceOnUse">
<stop stop-color="white"/>
<stop offset="1" stop-color="#CBCBCB"/>
</linearGradient>
</defs>
</svg>
