<svg width="19" height="19" viewBox="0 0 19 19" fill="none" xmlns="http://www.w3.org/2000/svg">
<rect width="19" height="19" rx="9.5" fill="url(#paint0_linear_13453_195)" fill-opacity="0.4"/>
<path d="M6.72796 9.61012L9.2315 9.95329L9.53818 12.4253L11.3908 7.71224L6.72796 9.61012ZM5.71773 9.98592C5.66279 9.97854 5.61181 9.95282 5.57276 9.91281C5.53372 9.8728 5.50881 9.82074 5.50194 9.76479C5.49506 9.70884 5.50661 9.65215 5.53478 9.60359C5.56294 9.55502 5.60613 9.51733 5.65759 9.49641L11.7476 7.01826C11.7931 6.99971 11.843 6.99517 11.891 7.0052C11.9391 7.01523 11.9832 7.03939 12.0179 7.07467C12.0525 7.10996 12.0763 7.15483 12.0861 7.20372C12.096 7.25261 12.0915 7.30337 12.0733 7.3497L9.64342 13.5298C9.62279 13.5822 9.58566 13.6261 9.53786 13.6547C9.49005 13.6833 9.43427 13.695 9.37926 13.6879C9.32424 13.6807 9.2731 13.6553 9.23385 13.6154C9.1946 13.5755 9.16945 13.5235 9.16235 13.4676L8.78251 10.4061L5.71773 9.98592Z" fill="white"/>
<defs>
<linearGradient id="paint0_linear_13453_195" x1="9.5" y1="0" x2="9.5" y2="19" gradientUnits="userSpaceOnUse">
<stop offset="1" stop-opacity="0.75"/>
</linearGradient>
</defs>
</svg>
