<svg width="19" height="19" viewBox="0 0 19 19" fill="none" xmlns="http://www.w3.org/2000/svg">
<path d="M5.5 6.5H13.5L14 9.5L12.5 11.5L10.5 13.5L9.5 14L9 13.5L5.5 9.5V6.5Z" fill="url(#paint0_linear_12755_321)"/>
<rect width="19" height="19" rx="9.5" fill="url(#paint1_linear_12755_321)" fill-opacity="0.4"/>
<path d="M14 8.638C14 9.33392 13.7328 10.0023 13.2556 10.4968C12.1572 11.6354 11.0918 12.8226 9.95239 13.9199C9.69121 14.1677 9.27689 14.1587 9.02696 13.8996L5.74419 10.4968C4.75194 9.46824 4.75194 7.80775 5.74419 6.77921C6.7462 5.74055 8.37857 5.74055 9.38057 6.77921L9.49991 6.90289L9.61916 6.77928C10.0996 6.28103 10.7539 6 11.4374 6C12.1209 6 12.7751 6.281 13.2556 6.77921C13.7328 7.2737 14 7.9421 14 8.638Z" stroke="white" stroke-linejoin="round"/>
<defs>
<linearGradient id="paint0_linear_12755_321" x1="9.75" y1="6.5" x2="9.75" y2="14" gradientUnits="userSpaceOnUse">
<stop stop-color="#E5E5E5"/>
<stop offset="1" stop-color="#BCBCBC"/>
</linearGradient>
<linearGradient id="paint1_linear_12755_321" x1="9.5" y1="0" x2="9.5" y2="19" gradientUnits="userSpaceOnUse">
<stop offset="1" stop-opacity="0.75"/>
</linearGradient>
</defs>
</svg>
