<svg width="8" height="16" viewBox="0 0 8 16" fill="none" xmlns="http://www.w3.org/2000/svg">
<path d="M7.35567 5.65625L1.17094 6.11637L0.949483 6.72559L2.16482 6.85865C2.95884 6.97087 3.11549 7.14081 2.94264 7.61055L0.949483 13.1705C0.425537 14.6085 1.23306 15.2851 3.13169 15.2851C4.6036 15.2851 6.31318 14.8811 7.08829 14.3264L7.32596 13.6594C6.78581 13.9416 5.99719 14.0538 5.47324 14.0538C4.73053 14.0538 4.46046 13.7444 4.65221 13.1993L7.35567 5.65625Z" fill="white"/>
<path d="M4.84919 3.91343C6.34077 3.91343 7.54994 3.19566 7.54994 2.31023C7.54994 1.42481 6.34077 0.707031 4.84919 0.707031C3.3576 0.707031 2.14844 1.42481 2.14844 2.31023C2.14844 3.19566 3.3576 3.91343 4.84919 3.91343Z" fill="white"/>
</svg>
