<svg width="17" height="17" viewBox="0 0 17 17" fill="none" xmlns="http://www.w3.org/2000/svg">
<path d="M10.5363 0.566501C10.4763 0.23805 10.1907 0 9.8575 0C4.53166 0 0.199219 3.71426 0.199219 8.28C0.199219 12.845 4.53163 16.56 9.8575 16.56C10.1907 16.56 10.4763 16.3213 10.5363 15.9928L10.6074 15.603C11.4504 10.6426 11.4497 5.71252 10.606 0.948772L10.5363 0.566501Z" fill="url(#paint0_linear_13613_245)"/>
<path d="M13.2617 2.87372H16.0585C16.4452 2.87372 16.7577 2.52753 16.7577 2.10094C16.7577 1.67436 16.4452 1.32812 16.0585 1.32812H13.2617C12.875 1.32812 12.5625 1.67432 12.5625 2.10091C12.5625 2.52749 12.875 2.87372 13.2617 2.87372Z" fill="#20A1FB"/>
<path d="M16.0585 5.52344H13.2617C12.875 5.52344 12.5625 5.82019 12.5625 6.18584C12.5625 6.55149 12.875 6.84824 13.2617 6.84824H16.0585C16.4452 6.84824 16.7577 6.55149 16.7577 6.18584C16.7577 5.82019 16.4452 5.52344 16.0585 5.52344Z" fill="#20A1FB"/>
<path d="M16.0585 9.71875H13.2617C12.875 9.71875 12.5625 10.0155 12.5625 10.3812C12.5625 10.7468 12.875 11.0435 13.2617 11.0435H16.0585C16.4452 11.0435 16.7577 10.7468 16.7577 10.3812C16.7577 10.0155 16.4452 9.71875 16.0585 9.71875Z" fill="#20A1FB"/>
<path d="M16.0585 13.9141H13.2617C12.875 13.9141 12.5625 14.2108 12.5625 14.5765C12.5625 14.9421 12.875 15.2389 13.2617 15.2389H16.0585C16.4452 15.2389 16.7577 14.9421 16.7577 14.5765C16.7577 14.2108 16.4452 13.9141 16.0585 13.9141Z" fill="#20A1FB"/>
<defs>
<linearGradient id="paint0_linear_13613_245" x1="5.71922" y1="0" x2="5.71922" y2="16.56" gradientUnits="userSpaceOnUse">
<stop stop-color="#20A1FB"/>
<stop offset="0.802885" stop-color="#1775B6"/>
</linearGradient>
</defs>
</svg>
