<svg width="17" height="17" viewBox="0 0 17 17" fill="none" xmlns="http://www.w3.org/2000/svg">
<path d="M10.6885 0.6138C10.6276 0.280573 10.3378 0.0390625 9.99967 0.0390625C4.59544 0.0390625 0.199219 3.80732 0.199219 8.43944C0.199219 13.0708 4.59541 16.8398 9.99967 16.8398C10.3378 16.8398 10.6276 16.5976 10.6885 16.2644L10.7606 15.8689C11.616 10.8364 11.6153 5.83464 10.7592 1.00163L10.6885 0.6138Z" fill="white" fill-opacity="0.2"/>
<path d="M12.4377 4.83963L15.9378 6.93973C16.0505 7.00762 16.1751 7.03984 16.2976 7.03984C16.5356 7.03984 16.7674 6.91872 16.8983 6.69963C17.0971 6.3685 16.99 5.93798 16.6582 5.73919L13.158 3.6391C12.8262 3.43959 12.3956 3.5481 12.1975 3.8792C11.9987 4.21098 12.1058 4.64081 12.4377 4.83963Z" fill="white" fill-opacity="0.2"/>
<path d="M16.6582 9.94232L13.158 7.84222C12.8255 7.64271 12.3956 7.75123 12.1975 8.08232C11.9987 8.41345 12.1058 8.84397 12.4377 9.04275L15.9378 11.1428C16.0505 11.2107 16.1751 11.2422 16.2969 11.2422C16.5349 11.2422 16.7667 11.1218 16.8983 10.9027C17.097 10.571 16.99 10.1411 16.6582 9.94232Z" fill="white" fill-opacity="0.2"/>
<path d="M16.6582 14.1376L13.158 12.0375C12.8255 11.838 12.3956 11.9465 12.1975 12.2776C11.9987 12.6088 12.1058 13.0393 12.4377 13.2381L15.9378 15.3382C16.0505 15.4061 16.1751 15.4376 16.2969 15.4376C16.5349 15.4376 16.7667 15.3172 16.8983 15.098C17.097 14.7663 16.99 14.3364 16.6582 14.1376Z" fill="white" fill-opacity="0.2"/>
</svg>
