<svg width="5" height="11" viewBox="0 0 5 11" fill="none" xmlns="http://www.w3.org/2000/svg">
<path d="M4.55632 3.97656L0.75939 4.30376L0.623431 4.73698L1.36955 4.83161C1.85702 4.91141 1.95318 5.03226 1.84707 5.36629L0.623431 9.32001C0.30177 10.3426 0.797526 10.8238 1.96313 10.8238C2.86677 10.8238 3.91631 10.5365 4.39217 10.142L4.53808 9.66773C4.20647 9.86838 3.72232 9.94819 3.40066 9.94819C2.94469 9.94819 2.77889 9.72816 2.89661 9.34054L4.55632 3.97656Z" fill="white" fill-opacity="0.9"/>
<path d="M3.01742 3.07699C3.93313 3.07699 4.67547 2.56657 4.67547 1.93693C4.67547 1.3073 3.93313 0.796875 3.01742 0.796875C2.10171 0.796875 1.35938 1.3073 1.35938 1.93693C1.35938 2.56657 2.10171 3.07699 3.01742 3.07699Z" fill="white" fill-opacity="0.9"/>
</svg>
