<svg width="13" height="19" viewBox="0 0 13 19" fill="none" xmlns="http://www.w3.org/2000/svg">
<path d="M6.6 7.06667V9.4L8.46667 10.8M2.80312 3.99066C3.37187 3.8 4.13943 3.8 5.48 3.8H7.72C9.06055 3.8 9.82812 3.8 10.3969 3.99067M2.80312 3.99066C2.70657 4.02303 2.61575 4.06089 2.52883 4.10518C2.00197 4.37363 1.57363 4.80197 1.30518 5.32883C1 5.92778 1 6.71185 1 8.28V10.52C1 12.0882 1 12.8722 1.30518 13.4712C1.57363 13.9981 2.00197 14.4264 2.52883 14.6948C2.61571 14.7391 2.70649 14.7769 2.80299 14.8093M2.80312 3.99066L3.80003 1H9.4L10.3969 3.99067M10.3969 3.99067C10.4934 4.02304 10.5842 4.06089 10.6712 4.10518C11.1981 4.37363 11.6264 4.80197 11.8948 5.32883C12.2 5.92778 12.2 6.71185 12.2 8.28V10.52C12.2 12.0882 12.2 12.8722 11.8948 13.4712C11.6264 13.9981 11.1981 14.4264 10.6712 14.6948C10.5842 14.7391 10.4934 14.777 10.3968 14.8094M2.80299 14.8093C3.37175 15 4.13932 15 5.48 15H7.72C9.06045 15 9.82803 15 10.3968 14.8094M2.80299 14.8093L3.79963 17.8H9.39963L10.3968 14.8094" stroke="url(#paint0_linear_10298_8)" stroke-width="1.6" stroke-linecap="round" stroke-linejoin="round"/>
<defs>
<linearGradient id="paint0_linear_10298_8" x1="6.6" y1="1" x2="6.6" y2="17.8" gradientUnits="userSpaceOnUse">
<stop stop-color="white"/>
<stop offset="1" stop-color="#C4C4C4"/>
</linearGradient>
</defs>
</svg>
