<svg width="26" height="13" viewBox="0 0 26 13" fill="none" xmlns="http://www.w3.org/2000/svg">
<path fill-rule="evenodd" clip-rule="evenodd" d="M5.6875 1.85714C3.48617 1.85714 1.625 4.20333 1.625 6.5C1.625 8.79667 3.48617 11.1429 5.6875 11.1429C6.78925 11.1429 7.86933 10.577 9.00467 9.59152C9.96883 8.7521 10.9092 7.66752 11.8809 6.5C10.9092 5.33248 9.96883 4.24667 9.00467 3.40848C7.86933 2.42295 6.78925 1.85714 5.6875 1.85714ZM13 5.15048C12.0391 3.99533 11.0359 2.84143 9.98833 1.93143C8.71867 0.82581 7.29408 0 5.6875 0C2.53825 0 0 3.23762 0 6.5C0 9.76238 2.53825 13 5.6875 13C7.29408 13 8.71867 12.173 9.98833 11.0686C11.0359 10.1586 12.0391 9.00467 13 7.84952C13.9609 9.00467 14.9641 10.1586 16.0117 11.0686C17.2813 12.173 18.7059 13 20.3125 13C23.4618 13 26 9.76238 26 6.5C26 3.23762 23.4618 0 20.3125 0C18.7059 0 17.2813 0.827048 16.0117 1.93143C14.9641 2.84143 13.9609 3.99533 13 5.15048ZM14.1191 6.5C15.0908 7.66752 16.0312 8.75333 16.9953 9.59152C18.1307 10.577 19.2108 11.1429 20.3125 11.1429C22.5138 11.1429 24.375 8.79667 24.375 6.5C24.375 4.20333 22.5138 1.85714 20.3125 1.85714C19.2108 1.85714 18.1307 2.42295 16.9953 3.40848C16.0312 4.24791 15.0908 5.33248 14.1191 6.5Z" fill="url(#paint0_linear_10298_14)"/>
<defs>
<linearGradient id="paint0_linear_10298_14" x1="13" y1="0" x2="13" y2="13" gradientUnits="userSpaceOnUse">
<stop stop-color="white"/>
<stop offset="1" stop-color="#D0D0D0"/>
</linearGradient>
</defs>
</svg>
