<svg width="18" height="18" viewBox="0 0 18 18" fill="none" xmlns="http://www.w3.org/2000/svg">
<path d="M16.7007 6.90687L15.1607 3.71687C14.7207 2.94687 13.9507 2.39687 13.0707 2.39687H4.93068C4.05068 2.39687 3.28068 2.94687 2.84068 3.71687L1.30068 6.90687C0.640684 7.01687 0.200684 7.56687 0.200684 8.11687V11.9669C0.200684 12.6269 0.640684 13.1769 1.30068 13.2869V15.4869C1.30068 16.1469 1.85068 16.6969 2.51068 16.6969H3.50068C4.05068 16.6969 4.60068 16.1469 4.60068 15.4869V13.3969H13.4007V15.4869C13.4007 16.1469 13.9507 16.6969 14.6107 16.6969H15.6007C16.2607 16.6969 16.8107 16.1469 16.8107 15.4869V13.2869C17.4707 13.1769 17.9107 12.6269 17.9107 11.9669V8.11687C17.8007 7.56687 17.3607 7.01687 16.7007 6.90687ZM4.60068 9.43687C4.60068 9.76687 4.27068 10.0969 3.94068 10.0969H1.96068C1.63068 10.0969 1.30068 9.76687 1.30068 9.43687V8.55687C1.30068 8.22687 1.63068 7.89687 1.96068 7.89687H3.94068C4.27068 7.89687 4.60068 8.22687 4.60068 8.55687V9.43687ZM11.2007 12.2969H6.80068V11.1969H11.2007V12.2969ZM2.51068 6.79687L3.83068 4.15687C4.05068 3.71687 4.49068 3.49687 4.93068 3.49687H13.0707C13.5107 3.49687 13.9507 3.71687 14.1707 4.15687L15.4907 6.79687H2.51068ZM16.7007 9.43687C16.7007 9.76687 16.3707 10.0969 16.0407 10.0969H14.0607C13.7307 10.0969 13.4007 9.76687 13.4007 9.43687V8.55687C13.4007 8.22687 13.7307 7.89687 14.0607 7.89687H16.0407C16.3707 7.89687 16.7007 8.22687 16.7007 8.55687V9.43687Z" fill="url(#paint0_linear_411_46)"/>
<defs>
<linearGradient id="paint0_linear_411_46" x1="9.05568" y1="2.39687" x2="9.05568" y2="16.6969" gradientUnits="userSpaceOnUse">
<stop stop-color="white"/>
<stop offset="1" stop-color="#D7D7D7"/>
</linearGradient>
</defs>
</svg>
