<svg width="55" height="55" viewBox="0 0 55 55" fill="none" xmlns="http://www.w3.org/2000/svg">
<path d="M29.3083 35.8577L29.54 42.6316C29.5442 43.1421 29.8789 43.481 30.6596 43.481C31.4404 43.481 31.7836 43.1378 31.7836 42.6359L32.0367 35.33L29.3083 35.8577ZM31.6292 9.9375H28.9007L28.875 21.7607L31.6463 21.2803L31.6292 9.9375Z" fill="url(#paint0_linear_13928_185)"/>
<path d="M30.1488 2.24405C29.7369 2.30411 13.5379 4.68935 13.5379 4.68935C12.873 4.81805 12.3324 5.42294 12.3281 6.19943L12.3367 6.53405L14.1342 8.65331C14.1342 8.65331 19.2608 12.7932 19.6426 12.7202C20.0244 12.6473 33.1604 3.15782 33.1604 3.15782C32.9115 2.85752 32.6584 2.72024 31.5774 2.44139C31.0668 2.3084 30.5606 2.18399 30.1488 2.24405Z" fill="#C4C4C4"/>
<path d="M14.2415 16.0496L14.057 7.22503C14.0613 6.45712 13.8425 6.13537 13.4006 5.908C12.9202 5.63773 12.3239 5.98522 12.3281 6.53863L12.3625 15.0714C12.3625 15.3331 12.3281 16.0496 12.8687 16.2255L13.9755 16.5429V24.5009L16.7039 23.9689V16.0496H14.2415ZM25.7344 33.0723V30.4768C24.6962 30.6055 24.1986 30.4425 24.1986 30.4425L12.8858 25.0757V26.5C12.8858 27.1221 12.8858 27.521 13.7953 27.9629L13.9412 28.0358L14.5118 46.4528C14.516 46.9633 14.9021 47.3022 15.6786 47.3022C16.4594 47.3022 16.8412 46.959 16.8412 46.4571L17.2874 33.231L23.465 36.2812L23.3105 32.9607C24.0656 33.3297 24.9021 33.1795 25.7344 33.0723Z" fill="url(#paint1_linear_13928_185)"/>
<path d="M43.2535 27.512L25.2655 30.9826C24.8666 31.0727 24.5791 31.4288 24.5791 31.8363V32.2482C24.5791 32.6943 24.9095 33.0461 25.3256 33.1105C24.622 33.1319 23.8927 32.9946 23.2578 32.6772L23.8927 52.3468C23.897 52.8573 24.2617 53.1962 25.0382 53.1962C25.8189 53.1962 26.1922 52.853 26.1922 52.3511L26.7284 36.5081L39.6499 34.0199L40.1046 48.5287C40.1089 49.0392 40.4865 49.3781 41.2629 49.3781C42.0437 49.3781 42.4041 49.0349 42.4041 48.533L43.0519 29.7728H43.0562L43.3736 29.7128C43.897 29.6141 44.2745 29.1551 44.2745 28.6231V26.9629L43.2535 27.512Z" fill="url(#paint2_linear_13928_185)"/>
<path d="M43.7862 27.4611L25.8412 30.8974C25.0261 31.0518 24.1809 30.9403 23.4345 30.567L13.2157 25.4962C12.7352 25.256 12.821 24.4709 13.5289 24.368L31.5855 21.2963C32.3019 21.1591 33.0569 21.1419 33.7133 21.4636L43.9407 26.3242C44.4598 26.5816 44.3568 27.3495 43.7862 27.4611Z" fill="#C4C4C4"/>
<path d="M32.2428 3.12515L14.9283 5.69486C14.1776 5.87504 14.0703 6.47135 14.0703 6.89177L14.1046 15.9265C14.1046 16.4756 14.6452 16.6429 15.1857 16.54L32.5774 13.7472C32.9892 13.6657 33.311 13.1723 33.3153 12.5331L33.2809 3.49838C33.2766 2.94926 32.7661 3.05222 32.2428 3.12515Z" fill="url(#paint3_linear_13928_185)"/>
<path d="M26.7266 32.8933L39.5408 30.4395L39.5837 31.6578L27.8162 33.9101L27.4988 36.3554L26.7823 36.4969L26.7266 32.8933Z" fill="url(#paint4_linear_13928_185)"/>
<path d="M23.2554 32.6742L13.9375 28.0195C13.9375 28.0195 15.0486 29.0749 16.0825 30.6064C17.0006 31.9706 17.3009 33.2319 17.3009 33.2319L17.9015 33.5279V31.2199L23.2854 33.8925L23.2554 32.6742ZM29.33 36.0075L29.4115 38.4657C29.4115 38.4657 29.8277 37.7106 30.5141 37.1873C31.179 36.6768 32.007 36.5609 32.007 36.5609L32.0456 35.4841L29.33 36.0075Z" fill="#747474"/>
<defs>
<linearGradient id="paint0_linear_13928_185" x1="30.4559" y1="9.9375" x2="30.4559" y2="43.481" gradientUnits="userSpaceOnUse">
<stop stop-color="white"/>
<stop offset="1" stop-color="#9D9D9D"/>
</linearGradient>
<linearGradient id="paint1_linear_13928_185" x1="19.0313" y1="5.81445" x2="19.0313" y2="47.3022" gradientUnits="userSpaceOnUse">
<stop stop-color="white"/>
<stop offset="1" stop-color="#9D9D9D"/>
</linearGradient>
<linearGradient id="paint2_linear_13928_185" x1="33.7662" y1="26.9629" x2="33.7662" y2="53.1962" gradientUnits="userSpaceOnUse">
<stop stop-color="white"/>
<stop offset="1" stop-color="#C4C4C4"/>
</linearGradient>
<linearGradient id="paint3_linear_13928_185" x1="23.6928" y1="3.06641" x2="23.6928" y2="16.5687" gradientUnits="userSpaceOnUse">
<stop stop-color="white"/>
<stop offset="1" stop-color="#C4C4C4"/>
</linearGradient>
<linearGradient id="paint4_linear_13928_185" x1="33.1551" y1="30.4395" x2="33.1551" y2="36.4969" gradientUnits="userSpaceOnUse">
<stop stop-color="white"/>
<stop offset="1" stop-color="#9D9D9D"/>
</linearGradient>
</defs>
</svg>
