<svg width="34" height="34" viewBox="0 0 34 34" fill="none" xmlns="http://www.w3.org/2000/svg">
<path d="M18.7969 0.800781C19.2557 0.80129 19.6969 0.976964 20.0305 1.29191C20.3641 1.60685 20.5649 2.0373 20.5918 2.49529C20.6187 2.95329 20.4697 3.40426 20.1752 3.75608C19.8807 4.1079 19.463 4.33399 19.0075 4.38818L18.7969 4.40078H4.39688V29.6008H29.5969V15.2008C29.5974 14.742 29.7731 14.3007 30.088 13.9671C30.4029 13.6335 30.8334 13.4328 31.2914 13.4059C31.7494 13.379 32.2004 13.528 32.5522 13.8225C32.904 14.1169 33.1301 14.5346 33.1843 14.9902L33.1969 15.2008V29.6008C33.1972 30.509 32.8541 31.3838 32.2366 32.0498C31.619 32.7157 30.7726 33.1237 29.8669 33.1918L29.5969 33.2008H4.39688C3.48864 33.2011 2.61386 32.8581 1.94789 32.2405C1.28192 31.6229 0.873993 30.7765 0.805875 29.8708L0.796875 29.6008V4.40078C0.796588 3.49254 1.13961 2.61776 1.75717 1.95179C2.37473 1.28583 3.2212 0.877899 4.12688 0.809781L4.39688 0.800781H18.7969ZM30.0343 1.41818C30.3582 1.09535 30.7929 0.907929 31.25 0.893971C31.7071 0.880012 32.1524 1.04057 32.4954 1.34303C32.8384 1.64549 33.0534 2.06717 33.0968 2.52244C33.1402 2.9777 33.0086 3.4324 32.7289 3.79418L32.5795 3.96518L14.7595 21.7834C14.4356 22.1062 14.0009 22.2936 13.5438 22.3076C13.0867 22.3216 12.6414 22.161 12.2984 21.8585C11.9554 21.5561 11.7403 21.1344 11.697 20.6791C11.6536 20.2239 11.7851 19.7692 12.0649 19.4074L12.2143 19.2382L30.0343 1.41818Z" fill="url(#paint0_linear_13928_159)"/>
<defs>
<linearGradient id="paint0_linear_13928_159" x1="16.9969" y1="0.800781" x2="16.9969" y2="33.2008" gradientUnits="userSpaceOnUse">
<stop stop-color="white"/>
<stop offset="1" stop-color="#E2E2E2"/>
</linearGradient>
</defs>
</svg>
