<svg width="19" height="13" viewBox="0 0 19 13" fill="none" xmlns="http://www.w3.org/2000/svg">
<path d="M9.63141 2.95312C9.2886 2.95837 8.94834 3.01164 8.62099 3.11133C8.77241 3.37183 8.85303 3.66596 8.85515 3.96562C8.85515 4.19831 8.8083 4.42872 8.71728 4.64369C8.62626 4.85867 8.49284 5.054 8.32465 5.21853C8.15646 5.38306 7.95679 5.51358 7.73704 5.60262C7.51729 5.69167 7.28176 5.7375 7.0439 5.7375C6.73758 5.73542 6.43691 5.65655 6.17062 5.50842C5.96052 6.22122 5.98501 6.98062 6.24061 7.67904C6.49621 8.37747 6.96997 8.97952 7.59477 9.39992C8.21958 9.82031 8.96375 10.0377 9.72189 10.0214C10.48 10.0051 11.2137 9.75578 11.819 9.30887C12.4242 8.86197 12.8704 8.24009 13.0943 7.53133C13.3183 6.82257 13.3085 6.06285 13.0665 5.3598C12.8246 4.65674 12.3626 4.04599 11.7461 3.61405C11.1295 3.18211 10.3897 2.95089 9.63141 2.95312ZM18.8339 6.03492C17.0799 2.68703 13.6074 0.421875 9.63141 0.421875C5.65538 0.421875 2.18198 2.68861 0.428945 6.03524C0.354956 6.17841 0.316406 6.3366 0.316406 6.49703C0.316406 6.65746 0.354956 6.81565 0.428945 6.95883C2.18295 10.3067 5.65538 12.5719 9.63141 12.5719C13.6074 12.5719 17.0808 10.3051 18.8339 6.95851C18.9079 6.81533 18.9464 6.65715 18.9464 6.49672C18.9464 6.33628 18.9079 6.1781 18.8339 6.03492ZM9.63141 11.0531C6.44069 11.0531 3.51552 9.31289 1.93584 6.49687C3.51552 3.68086 6.44037 1.94062 9.63141 1.94062C12.8224 1.94062 15.7473 3.68086 17.327 6.49687C15.7476 9.31289 12.8224 11.0531 9.63141 11.0531Z" fill="url(#paint0_linear_10691_266)"/>
<defs>
<linearGradient id="paint0_linear_10691_266" x1="9.63141" y1="0.421875" x2="9.63141" y2="12.5719" gradientUnits="userSpaceOnUse">
<stop stop-color="white"/>
<stop offset="1" stop-color="#BFBFBF"/>
</linearGradient>
</defs>
</svg>
