<svg width="7" height="16" viewBox="0 0 7 16" fill="none" xmlns="http://www.w3.org/2000/svg">
<path d="M5.29345 7.67948C5.6226 6.582 4.73956 5.499 3.59828 5.60046L0.5956 5.86741C0.443813 5.88091 0.315411 5.98518 0.271062 6.13097C0.203833 6.35198 0.351151 6.58046 0.580206 6.61043L1.25015 6.69809C1.97373 6.8203 2.11648 7.00536 1.95897 7.51691L0.14263 13.5716C-0.334835 15.1377 0.401052 15.8745 2.13125 15.8745C3.43666 15.8745 4.94721 15.4577 5.67829 14.8786C5.71719 14.8478 5.74439 14.8051 5.75857 14.7576C5.82645 14.53 5.55739 14.307 5.32974 14.3748C4.95678 14.4858 4.56374 14.5336 4.26507 14.5336C3.58825 14.5336 3.34214 14.1967 3.51688 13.6031L5.29345 7.67948Z" fill="white"/>
<path d="M3.69554 3.49177C5.0548 3.49177 6.1567 2.71011 6.1567 1.74589C6.1567 0.78166 5.0548 0 3.69554 0C2.33627 0 1.23438 0.78166 1.23438 1.74589C1.23438 2.71011 2.33627 3.49177 3.69554 3.49177Z" fill="white"/>
</svg>
