<svg width="31" height="31" viewBox="0 0 31 31" preserveAspectRatio="xMidYMid" fill="none" xmlns="http://www.w3.org/2000/svg">
    <g transform="translate(0.5, 5.5)" filter="url(#filter0_d_9734_442)">
        <path d="M15.5235 0.300316C15.3195 0.249327 15.1062 0.249327 14.9022 0.300316L6.19281 2.47767C5.62264 2.62021 5.22266 3.1325 5.22266 3.72022V14.4164C5.22266 14.9015 5.49675 15.345 5.93066 15.562L14.6401 19.9167C15.0006 20.0969 15.4251 20.0969 15.7856 19.9167L24.495 15.562C24.929 15.345 25.2031 14.9015 25.2031 14.4164V3.72022C25.2031 3.1325 24.8031 2.62021 24.2329 2.47767L15.5235 0.300316ZM15.0424 1.51614C15.1543 1.48679 15.2717 1.48545 15.3843 1.51225C16.0776 1.67732 16.1154 2.64966 15.4371 2.86812L10.7354 4.38222C10.5616 4.43821 10.3742 4.43603 10.2017 4.37603C9.41766 4.10333 9.46162 2.97995 10.2646 2.76934L15.0424 1.51614ZM15.2129 16.757C15.2129 17.7092 14.2109 18.3284 13.3593 17.9026L7.17944 14.8127C6.74552 14.5957 6.47143 14.1522 6.47143 13.6671V6.12062C6.47143 5.2464 7.32789 4.6291 8.15725 4.90555L9.34198 5.30046C9.86499 5.4748 10.2178 5.96424 10.2178 6.51553V9.37366C10.2178 9.64939 10.3986 9.89248 10.6627 9.97171C11.0633 10.0919 11.4665 9.79191 11.4665 9.37366V7.86891C11.4665 6.99469 12.323 6.37739 13.1523 6.65384L14.3371 7.04875C14.8601 7.22308 15.2129 7.71252 15.2129 8.26382V16.757ZM16.1751 6.09081C15.9565 6.17232 15.7165 6.17654 15.4952 6.10276C14.552 5.78835 14.5683 4.44849 15.5189 4.15717L19.9733 2.79211C20.1268 2.74507 20.2903 2.74078 20.446 2.77972C21.2871 2.99 21.3527 4.16016 20.5403 4.46308L16.1751 6.09081Z" fill="url(#paint0_linear_9734_442)"/>
    </g>
    <defs>
        <filter id="filter0_d_9734_442" x="0.0994773" y="0.261719" width="30.2268" height="30.0374" filterUnits="userSpaceOnUse" color-interpolation-filters="sRGB">
            <feFlood flood-opacity="0" result="BackgroundImageFix"/>
            <feColorMatrix in="SourceAlpha" type="matrix" values="0 0 0 0 0 0 0 0 0 0 0 0 0 0 0 0 0 0 127 0" result="hardAlpha"/>
            <feOffset dy="5.12318"/>
            <feGaussianBlur stdDeviation="2.56159"/>
            <feComposite in2="hardAlpha" operator="out"/>
            <feColorMatrix type="matrix" values="0 0 0 0 0 0 0 0 0 0 0 0 0 0 0 0 0 0 0.25 0"/>
            <feBlend mode="normal" in2="BackgroundImageFix" result="effect1_dropShadow_9734_442"/>
            <feBlend mode="normal" in="SourceGraphic" in2="effect1_dropShadow_9734_442" result="shape"/>
        </filter>
        <linearGradient id="paint0_linear_9734_442" x1="15.2129" y1="0.222656" x2="15.2129" y2="20.2031" gradientUnits="userSpaceOnUse">
            <stop stop-color="white"/>
            <stop offset="1" stop-color="#D5D5D5"/>
        </linearGradient>
    </defs>
</svg>
