<svg width="6" height="12" viewBox="0 0 6 12" fill="none" xmlns="http://www.w3.org/2000/svg">
<path d="M0.851446 0.00154598C0.652854 0.00115591 0.460394 0.0707512 0.307478 0.198253C0.221414 0.27005 0.150272 0.358227 0.0981256 0.457732C0.0459795 0.557239 0.0138546 0.666116 0.00359068 0.778133C-0.0066732 0.890151 0.0051258 1.00311 0.0383116 1.11053C0.0714974 1.21795 0.125417 1.31773 0.196985 1.40415L2.96332 4.7345C3.56968 5.46449 3.57956 6.5201 2.98697 7.26132L0.332976 10.5809C0.262375 10.6684 0.209651 10.7691 0.177836 10.8771C0.146021 10.9852 0.135742 11.0985 0.147589 11.2106C0.159437 11.3226 0.193177 11.4312 0.246871 11.5301C0.300566 11.629 0.373156 11.7163 0.460468 11.7868C0.548409 11.8647 0.651394 11.9234 0.76296 11.9593C0.874526 11.9952 0.992266 12.0076 1.10879 11.9955C1.22531 11.9835 1.3381 11.9473 1.44008 11.8893C1.54206 11.8314 1.63102 11.7528 1.70139 11.6586L5.80665 6.52708C5.93166 6.37404 6 6.18209 6 5.98399C6 5.7859 5.93166 5.59394 5.80665 5.44091L1.5569 0.309436C1.47164 0.205936 1.36333 0.12412 1.24076 0.0706254C1.11819 0.01713 0.984808 -0.0065364 0.851446 0.00154598Z" fill="url(#paint0_linear_9129_598)"/>
<defs>
<linearGradient id="paint0_linear_9129_598" x1="-0.66631" y1="-1.04123e-06" x2="7.94138" y2="8.51986e-08" gradientUnits="userSpaceOnUse">
<stop stop-color="white"/>
<stop offset="1" stop-color="white" stop-opacity="0.6"/>
</linearGradient>
</defs>
</svg>
