<svg width="31" height="31" viewBox="0 0 31 31" fill="none" xmlns="http://www.w3.org/2000/svg">
<g filter="url(#filter0_d_9734_434)">
<path d="M7.6099 3.63562C7.56693 3.66285 7.52628 3.69518 7.48885 3.73262L5.44748 5.77396C4.85494 6.36651 4.85087 7.32755 5.43526 7.92515L5.44826 7.93932L5.51165 8.00821C5.56723 8.06861 5.64898 8.15721 5.754 8.27057C5.96402 8.49736 6.26719 8.82327 6.64039 9.22067C7.38659 10.0152 8.41371 11.0965 9.53664 12.2423C11.7592 14.5101 14.428 17.1052 16.0183 18.1741C17.8095 19.3838 19.4372 20.065 20.6256 20.4446C21.2198 20.6344 21.7046 20.7489 22.0456 20.8164C22.216 20.8502 22.3507 20.8722 22.4453 20.8861C22.4926 20.893 22.5298 20.8979 22.5565 20.9012L22.5809 20.9041C23.0545 20.9786 23.4733 20.9925 23.8462 20.9146C24.2453 20.8314 24.5576 20.6502 24.8119 20.396L25.3029 19.905C25.3394 19.8685 25.3712 19.8287 25.3982 19.7863C25.5841 19.6176 25.7395 19.4171 25.8564 19.1933C26.0167 18.8866 26.1002 18.5456 26.0997 18.1996C26.0177 17.2925 25.1618 16.7685 24.4042 16.3055C24.0229 16.1165 23.6825 15.8543 23.4025 15.5339L22.8447 14.2319H22.8497C23.2566 14.2319 23.5863 13.9022 23.5863 13.4954C23.5863 13.0885 23.2566 12.7588 22.8497 12.7588H22.2136L21.7615 11.7035C22.0334 11.5951 22.2254 11.3296 22.2254 11.0191C22.2254 10.6122 21.8957 10.2825 21.4888 10.2825H21.1528L20.7798 9.4119C21.1706 9.3938 21.4818 9.07139 21.4818 8.6761C21.4818 8.26923 21.1521 7.93953 20.7452 7.93953H20.1491L19.8606 7.2661C19.8171 7.16088 19.7905 7.08511 19.768 7.02058C19.6745 6.7141 19.5 6.43855 19.2629 6.22298L18.8981 5.8575C18.7285 5.69417 18.5247 5.57438 18.304 5.50514V5.1897C17.8654 3.86747 16.2663 3.40644 15.1938 4.21126L13.7007 2.68886C13.8349 2.55342 13.9411 2.39278 14.013 2.2162C14.0849 2.0396 14.1212 1.85054 14.1199 1.65987C14.1185 1.4692 14.0795 1.28067 14.005 1.10514C13.9305 0.929595 13.8221 0.770503 13.686 0.636995C13.2767 0.229063 12.7223 0 12.1444 0C11.5665 0 11.0122 0.229063 10.6029 0.636995L7.6099 3.63562ZM14.2475 10.0756L14.2492 9.55297C14.2492 8.36043 13.7862 7.22401 12.9585 6.3752L9.93524 3.29163L11.5941 1.63031C11.6686 1.55551 11.7582 1.49746 11.8569 1.46005C11.9557 1.42263 12.0612 1.40672 12.1666 1.41336C12.272 1.41999 12.3747 1.44904 12.468 1.49855C12.5612 1.54806 12.6429 1.6169 12.7074 1.70046C12.4385 1.97071 12.2876 2.33642 12.2876 2.71762C12.2876 3.09883 12.4385 3.46453 12.7074 3.73479L15.815 6.85082C16.0957 7.12138 16.4704 7.27255 16.8603 7.27255C17.2501 7.27255 17.6248 7.12138 17.9055 6.85082L18.2703 7.21559C18.3558 7.28237 18.4164 7.37602 18.4422 7.48146L18.4445 7.48812C18.4749 7.57525 18.5118 7.68075 18.5705 7.81747L18.6228 7.93953H17.9602C17.5534 7.93953 17.2237 8.26923 17.2237 8.6761C17.2237 8.87953 17.3078 9.06192 17.4411 9.1952C17.5744 9.32849 17.7638 9.41267 17.9602 9.41267H19.2538L19.6264 10.2825H19.0756C18.6688 10.2825 18.339 10.6122 18.339 11.0191C18.339 11.2225 18.4232 11.4049 18.5565 11.5382C18.6898 11.6715 18.8792 11.7557 19.0756 11.7557H20.2574L20.687 12.7588H20.0015C19.5947 12.7588 19.265 13.0885 19.265 13.4954C19.265 13.6988 19.3491 13.8812 19.4824 14.0145C19.6157 14.1477 19.7981 14.2249 20.0015 14.2319H21.318L22.1131 16.0881C22.4801 16.7049 23.0245 17.1968 23.6754 17.4995L23.6773 17.5007C24.0306 17.7163 24.6862 18.1164 24.7038 18.316C24.7038 18.3551 24.6654 18.4752 24.4898 18.6717C24.2923 18.6475 24.0227 18.6095 23.7001 18.5514C22.9805 18.4216 22.0068 18.1932 20.9847 17.8001C18.921 17.0067 16.7874 15.5958 15.9909 13.0997L15.9905 13.0984C15.7065 12.2144 15.066 11.1853 14.3234 10.1781C14.2983 10.144 14.2729 10.1098 14.2475 10.0756ZM6.43794 6.94383C6.4209 6.92265 6.4116 6.89627 6.4116 6.86906C6.4116 6.84142 6.4212 6.81462 6.43876 6.79329L8.00523 5.22449C8.14537 5.36192 8.31074 5.52538 8.49609 5.71087C9.10134 6.31654 9.91755 7.15491 10.7632 8.08727C11.6103 9.02109 12.4793 10.041 13.1941 11.0106C13.9199 11.9951 14.4438 12.8712 14.6545 13.5269C14.6875 13.6302 14.7222 13.732 14.7589 13.8321L6.43967 6.94559C6.43963 6.94552 6.43971 6.94559 6.43967 6.94559C6.43913 6.94503 6.43847 6.9444 6.43794 6.94383Z" fill="url(#paint0_linear_9734_434)"/>
</g>
<defs>
<filter id="filter0_d_9734_434" x="0.14" y="0" width="30.8196" height="30.6868" filterUnits="userSpaceOnUse" color-interpolation-filters="sRGB">
<feFlood flood-opacity="0" result="BackgroundImageFix"/>
<feColorMatrix in="SourceAlpha" type="matrix" values="0 0 0 0 0 0 0 0 0 0 0 0 0 0 0 0 0 0 127 0" result="hardAlpha"/>
<feOffset dy="4.86"/>
<feGaussianBlur stdDeviation="2.43"/>
<feComposite in2="hardAlpha" operator="out"/>
<feColorMatrix type="matrix" values="0 0 0 0 0 0 0 0 0 0 0 0 0 0 0 0 0 0 0.25 0"/>
<feBlend mode="normal" in2="BackgroundImageFix" result="effect1_dropShadow_9734_434"/>
<feBlend mode="normal" in="SourceGraphic" in2="effect1_dropShadow_9734_434" result="shape"/>
</filter>
<linearGradient id="paint0_linear_9734_434" x1="15.5499" y1="0" x2="15.5499" y2="20.9669" gradientUnits="userSpaceOnUse">
<stop stop-color="white"/>
<stop offset="1" stop-color="#C2C2C2"/>
</linearGradient>
</defs>
</svg>
