<svg width="20" height="19" viewBox="0 0 20 19" fill="none" xmlns="http://www.w3.org/2000/svg">
<path d="M18.7791 11.0293V13.8949M11.6152 18.1932H14.4808" stroke="white" stroke-width="1.43278" stroke-linecap="round" stroke-linejoin="round"/>
<path d="M14.4803 6.73047H7.88952C7.573 6.73047 7.31641 6.98706 7.31641 7.30358V13.8944" stroke="white" stroke-width="1.43278" stroke-linecap="round" stroke-linejoin="round"/>
<path d="M8.74919 18.1945H7.88952C7.573 18.1945 7.31641 17.9379 7.31641 17.6214V16.7617" stroke="white" stroke-width="1.43278" stroke-linecap="round" stroke-linejoin="round"/>
<path d="M18.7804 16.7617V17.6214C18.7804 17.9379 18.5239 18.1945 18.2073 18.1945H17.3477" stroke="white" stroke-width="1.43278" stroke-linecap="round" stroke-linejoin="round"/>
<path d="M17.3477 6.73047H18.2073C18.5239 6.73047 18.7804 6.98706 18.7804 7.30358V8.16325" stroke="white" stroke-width="1.43278" stroke-linecap="round" stroke-linejoin="round"/>
<path d="M1.58594 8.16389V5.29834M5.88427 1H8.74983" stroke="white" stroke-width="1.43278" stroke-linecap="round" stroke-linejoin="round"/>
<path d="M5.88477 12.4627H12.4755C12.7921 12.4627 13.0487 12.2062 13.0487 11.8896V5.29883" stroke="white" stroke-width="1.43278" stroke-linecap="round" stroke-linejoin="round"/>
<path d="M3.01872 12.4621H2.15905C1.84253 12.4621 1.58594 12.2055 1.58594 11.889V11.0293" stroke="white" stroke-width="1.43278" stroke-linecap="round" stroke-linejoin="round"/>
<path d="M1.58594 2.43278V1.57311C1.58594 1.25659 1.84253 1 2.15905 1H3.01872" stroke="white" stroke-width="1.43278" stroke-linecap="round" stroke-linejoin="round"/>
<path d="M11.6152 1H12.4749C12.7914 1 13.048 1.25659 13.048 1.57311V2.43278" stroke="white" stroke-width="1.43278" stroke-linecap="round" stroke-linejoin="round"/>
</svg>
