<?xml version="1.0" encoding="UTF-8" standalone="no"?>
<svg
  xmlns="http://www.w3.org/2000/svg"
  width="23"
  height="18"
  viewBox="0 0 744.09448819 1052.3622047"
  version="1.1">
  <g>
    <path
      d="m 382.56932,846.26174 c 0.51009,-2.22816 5.349,-13.77407 10.75312,-25.65759 11.40071,-25.06989 21.23681,-53.52463 25.91099,-74.95767 4.53713,-20.80462 4.5495,-62.56254 0.0234,-78.98792 -7.67407,-27.84942 -25.32789,-53.36485 -39.6606,-57.32231 -18.47916,-5.10233 -35.38012,10.87853 -35.31614,33.39352 0.0571,20.08692 13.58032,34.03153 28.31806,29.20041 3.71949,-1.21926 9.26992,-4.11955 12.33427,-6.44504 10.59849,-8.04306 12.57803,-4.00848 5.43455,11.07636 -4.76639,10.06514 -13.82471,19.51144 -21.47639,22.39623 -20.49172,7.72568 -47.90779,-7.13931 -56.12569,-30.43135 -3.47138,-9.83892 -3.4919,-27.57282 -0.045,-38.94272 3.2251,-10.63847 2.01687,-18.83448 -3.68318,-24.98494 -5.46977,-5.90196 -10.71352,-5.78803 -14.70948,0.31963 -2.70926,4.14103 -3.17997,8.97798 -3.11008,31.95947 0.11974,39.38706 3.58265,48.12002 24.66281,62.1968 14.34951,9.58224 32.80326,15.18743 45.63937,13.86263 13.72813,-1.41687 14.77507,2.22958 2.53706,8.83648 -4.8587,2.62303 -10.0441,3.40216 -22.64302,3.40216 -15.62056,0 -17.02703,-0.33987 -31.89481,-7.70743 -18.63856,-9.23614 -36.49383,-25.73484 -42.85355,-39.59772 l -4.17814,-9.10748 -7.28243,3.73362 c -9.45507,4.84752 -29.76568,6.21467 -39.69204,2.67176 -10.2884,-3.67213 -9.13374,-7.00395 3.60107,-10.39108 15.04896,-4.00262 24.67908,-9.38149 31.90024,-17.8178 8.22689,-9.61128 10.52374,-17.28557 11.6893,-39.05655 l 0.97668,-18.24335 -15.98124,7.59897 c -68.15212,32.40582 -132.88487,40.04215 -190.716091,22.4982 -29.89387,-9.06874 -48.9942404,-21.91063 -28.27532,-19.01055 27.03968,3.78483 49.91827,5.00095 78.773321,4.18723 27.12723,-0.76497 35.32842,-1.67626 50.31782,-5.59105 26.14683,-6.82879 48.35918,-18.39963 64.8049,-33.75812 22.14062,-20.67689 29.3923,-40.46407 20.05306,-54.71754 -7.52777,-11.48882 -29.67186,-15.25842 -44.27381,-7.53672 -20.18211,10.67255 -22.08419,31.62409 -3.87582,42.69256 9.71875,5.90782 10.03236,10.8032 0.6921,10.8032 -26.60939,0 -44.28039,-15.50349 -44.28039,-38.849 0,-27.81691 22.04176,-48.67079 53.62146,-50.73168 13.91847,-0.90832 22.77878,-5.19029 26.17826,-12.6513 2.82956,-6.21022 2.33155,-9.04313 -1.99695,-11.35968 -8.38078,-4.48527 -33.08679,1.52632 -59.04934,14.36817 -14.83001,7.33537 -23.04141,16.71649 -27.50246,31.4202 -3.5317,11.64058 -2.98445,43.92502 0.8717,51.42499 4.0251,7.82856 3.96156,9.17617 -0.43264,9.17617 -8.64684,0 -21.66282,-27.20512 -21.59263,-45.13144 0.0893,-22.79888 11.9994,-53.3336 25.74488,-66.00373 7.16172,-6.60144 7.54786,-7.38719 4.55023,-9.25924 -8.03608,-5.01861 -17.72264,-27.46822 -17.72264,-41.07405 0,-10.3644 4.70436,-10.55089 10.49297,-0.416 16.59156,29.04912 42.36509,36.28456 78.18983,21.95034 l 6.82086,-2.72918 -13.10107,-13.74354 c -36.0093,-37.77515 -62.27412,-83.04216 -72.68721,-125.2753 -7.46965,-30.29523 -7.82837,-85.63204 -0.56415,-87.02763 2.23112,-0.42864 3.34731,2.30097 5.14438,12.5804 12.09392,69.17849 35.09869,120.60852 66.95266,149.68103 42.66966,38.9438 87.98678,40.22099 87.99906,2.48013 0.002,-4.73569 -1.11513,-11.2859 -2.48146,-14.556 -5.01868,-12.01139 -18.38849,-21.43775 -30.40607,-21.43775 -8.92942,0 -16.96726,7.38557 -19.88235,18.26891 -2.22446,8.30483 -5.94929,11.44893 -8.57944,7.24184 -0.86409,-1.38217 -2.47775,-6.85113 -3.5859,-12.15324 -3.94575,-18.87882 3.54793,-34.20127 20.87183,-42.67706 8.57762,-4.19664 11.55699,-4.75602 21.2063,-3.98146 13.70073,1.09976 27.18966,7.53857 35.41238,16.90375 5.73843,6.53569 14.40207,22.79912 14.4379,27.10287 0.0335,4.01035 10.97992,13.05905 17.21245,14.22828 7.33096,1.3753 11.61368,-1.34449 11.61368,-7.3754 0,-6.56367 -9.88562,-23.5485 -22.35903,-38.41585 -20.29982,-24.19582 -24.40773,-26.4071 -48.76203,-26.24837 -20.64753,0.13457 -33.22483,4.00755 -46.89136,14.43945 -9.47914,7.23559 -9.82544,7.31703 -9.82544,2.31066 0,-10.24082 15.98942,-25.475 33.93548,-32.33258 20.92529,-7.996 55.13641,-6.27793 74.42857,3.73777 l 6.6339,3.44406 4.59559,-7.84179 c 6.95079,-11.86062 27.25811,-26.01933 37.50298,-26.1479 4.79511,-0.0602 3.83204,2.99679 -3.85645,12.24116 -11.45248,13.77006 -15.35668,22.97142 -15.43268,36.37155 -0.0551,9.70797 0.94119,13.76157 5.75276,23.40693 3.20064,6.41608 8.54506,14.85606 11.87651,18.7555 l 6.05716,7.0899 6.89818,-12.4915 c 34.08031,-61.71394 78.31929,-105.3795 128.15945,-126.49826 18.87112,-7.99626 50.72152,-15.70881 53.38051,-12.92606 2.40663,2.51865 4.58189,0.95936 -24.53959,17.59076 -78.48257,44.82173 -118.37728,95.35414 -119.05476,150.80007 -0.26974,22.07602 5.72344,32.61885 21.03955,37.01145 13.2547,3.80139 32.55339,-7.61304 38.29639,-22.65086 3.67501,-9.62286 2.75746,-22.76893 -1.95243,-27.97329 -3.84298,-4.24647 -13.4211,-7.11551 -23.80008,-7.12913 -9.73199,-0.0128 -10.05331,-3.3563 -0.90026,-9.36726 20.90127,-13.72622 41.75362,-11.07108 55.59731,7.07923 16.14412,21.16634 10.21635,53.12762 -13.27917,71.59851 -14.21128,11.17213 -19.13824,25.27893 -11.3049,32.36801 3.09096,2.79729 4.27593,2.91877 9.07602,0.93051 3.0365,-1.25776 9.08231,-6.45548 13.43511,-11.55051 10.96277,-12.83204 27.42904,-41.24555 28.88009,-49.83425 3.46159,-20.48898 -16.6825,-58.56007 -35.3595,-66.82732 -3.00639,-1.33075 -5.18257,-3.68802 -5.18257,-5.61382 0,-2.9058 0.95429,-3.16039 7.65227,-2.04156 25.9749,4.33884 47.31336,29.32995 54.66879,64.02684 2.69832,12.72842 2.59448,29.23156 -0.22834,36.29144 -1.0177,2.54528 -0.27111,3.17725 3.88424,3.28791 11.47377,0.30554 28.55721,10.41463 37.57136,22.23281 7.07023,9.26952 4.19001,11.06838 -9.27377,5.79197 -29.05873,-11.38803 -49.10502,-5.7395 -67.76485,19.0944 -11.74136,15.62627 -11.74257,15.22137 0.0526,17.56699 20.10155,3.99742 51.91166,12.45591 64.0045,17.01915 55.1113,20.79623 94.36627,52.64258 122.45849,99.34681 11.955,19.87554 8.14045,20.18655 -12.99216,1.05931 -55.30838,-50.05994 -95.5035,-71.88353 -141.64864,-76.90691 -20.22035,-2.20121 -49.71832,3.9688 -61.53734,12.87159 -22.58447,17.01196 -9.06212,50.30299 21.32515,52.50101 12.19971,0.88244 19.9099,-1.65237 25.10148,-8.2524 4.27377,-5.4332 4.62633,-15.9349 0.83925,-24.99864 -3.41755,-8.1795 -3.38887,-9.62522 0.19109,-9.62522 4.71328,0 16.60623,10.53699 21.69641,19.22273 14.71352,25.10672 -5.69568,56.95383 -38.16932,59.5605 -13.73377,1.10241 -27.87874,-2.7786 -38.70182,-10.61881 -10.50623,-7.61067 -22.13528,-8.96181 -29.19123,-3.39162 -2.72331,2.14985 -4.95147,4.99336 -4.95147,6.3189 0,3.44427 10.29237,11.6354 19.79235,15.75165 13.13197,5.68998 46.58222,12.63163 54.8758,11.38793 21.26988,-3.18963 49.58551,-31.55501 53.10325,-53.19656 1.6087,-9.89693 6.71759,-9.42651 8.24502,0.7592 2.70328,18.02679 -4.69723,35.77362 -22.10624,53.01189 -15.15986,15.01115 -34.13006,25.39731 -48.80772,26.72216 l -10.18619,0.91942 0.61473,11.74629 c 0.74721,14.27722 -2.10757,25.24754 -9.07191,34.86152 -7.52754,10.39147 -9.59628,8.52848 -8.90567,-8.01993 1.33702,-32.03691 -11.48056,-48.1838 -46.71799,-58.85284 l -10.91611,-3.30513 1.06235,6.62855 c 13.99634,87.33094 -4.35116,165.36554 -50.89817,216.47731 -11.85462,13.01717 -15.77836,15.3563 -14.20089,8.46587 z m 20.15689,-23.28292 c 18.94327,-25.20012 31.90295,-53.76234 39.06635,-86.09946 3.68387,-16.62973 4.18802,-23.6741 4.18802,-58.51733 0,-25.643 -0.86108,-44.27464 -2.44184,-52.83452 -1.43847,-7.78943 -1.77911,-13.88553 -0.82899,-14.83566 1.97488,-1.97488 22.1583,3.59277 35.25883,9.72621 9.96752,4.66663 21.56398,14.97257 25.57487,22.72878 2.31921,4.48486 5.77515,20.42122 6.85582,31.61412 l 0.5215,5.4016 3.27145,-7.20213 c 3.50655,-7.71971 4.66595,-25.21438 2.26917,-34.24015 l -1.44237,-5.43159 10.64821,0 c 15.36362,0 35.11952,-10.02434 51.03681,-25.89657 13.20774,-13.17034 19.00848,-22.94244 20.56602,-34.64618 l 1.04036,-7.8175 -3.63797,6.95944 c -11.13607,21.30324 -32.70907,39.2477 -51.37096,42.73043 -16.87521,3.1493 -65.02507,-10.62424 -75.5521,-21.61209 -10.76703,-11.23837 -2.08302,-24.55727 15.90033,-24.38676 7.74915,0.0735 11.27013,1.25991 19.21892,6.47607 5.35241,3.51237 12.48586,7.32053 15.85208,8.46259 9.36821,3.17832 26.99121,2.50705 35.29185,-1.34429 13.12312,-6.08888 24.3072,-21.62424 24.3072,-33.76416 0,-7.18142 -6.21771,-18.8088 -13.85622,-25.91176 -3.68123,-3.42312 -5.68761,-4.89172 -4.45861,-3.26357 1.22899,1.62817 2.6593,6.89473 3.17845,11.70346 3.79495,35.15131 -51.6769,40.60289 -67.63795,6.64723 -10.65083,-22.6587 3.30485,-42.52856 35.22392,-50.1512 16.2987,-3.89232 45.77647,-3.38529 63.86254,1.09845 31.55852,7.82373 72.03396,31.22763 106.44168,61.54724 8.73799,7.69979 15.88724,13.29125 15.88724,12.42548 0,-0.86575 -4.8571,-8.09851 -10.79357,-16.07276 -34.02526,-45.70502 -87.22072,-76.01961 -158.76742,-90.47703 -13.85194,-2.79907 -25.59114,-5.49499 -26.08712,-5.99096 -1.26361,-1.26364 2.3517,-7.65423 10.87068,-19.21553 9.86147,-13.3832 16.53934,-19.38715 27.23078,-24.48269 10.74612,-5.1216 28.59872,-5.82829 40.56648,-1.60581 4.24017,1.49601 8.02233,2.40706 8.40482,2.02457 1.16745,-1.16744 -10.29837,-10.09267 -18.03789,-14.04108 -4.38512,-2.23712 -10.75602,-3.72276 -15.96437,-3.72276 -4.76695,0 -8.66717,-0.6178 -8.66717,-1.37289 0,-0.75509 1.21536,-4.28165 2.7008,-7.83682 3.46516,-8.29329 3.44863,-24.50018 -0.0389,-38.16075 -6.05025,-23.69845 -19.69984,-43.44118 -35.58376,-51.46823 l -7.59015,-3.83572 7.76502,7.88203 c 15.63003,15.86558 24.55536,37.63101 23.45039,57.18639 -0.59628,10.55266 -1.82478,14.09621 -9.64749,27.82776 -10.89673,19.12757 -24.39092,36.24137 -31.45767,39.89571 -15.25992,7.89122 -25.94982,-1.85613 -21.48438,-19.59005 1.68892,-6.70731 4.21379,-10.10904 13.65649,-18.39927 22.75852,-19.98088 28.3338,-45.18295 14.52769,-65.66985 -9.76694,-14.49316 -27.80812,-18.61539 -44.11369,-10.07954 l -7.69191,4.02665 8.37662,0.36457 c 16.8919,0.73517 26.84827,11.97609 25.28807,28.5507 -2.77214,29.44935 -32.86348,47.69781 -56.14972,34.05115 -10.54696,-6.18092 -14.09252,-14.26251 -14.93875,-34.0507 -2.37804,-55.60794 35.10255,-107.05397 112.27097,-154.10374 9.80186,-5.97623 16.92517,-10.86587 15.82956,-10.86587 -5.44135,0 -28.57952,8.57696 -43.9672,16.29795 -35.8012,17.96378 -67.99504,48.11145 -94.78674,88.7623 -8.66935,13.15393 -18.19317,28.89226 -21.16405,34.97406 -3.01164,6.16525 -6.59657,11.07175 -8.10239,11.0893 -3.63042,0.0423 -18.46436,-19.92034 -24.34112,-32.75691 -7.92289,-17.30585 -5.79801,-39.7274 5.14828,-54.32413 7.35332,-9.80555 7.47916,-10.57932 1.19181,-7.328 -9.57124,4.94948 -21.18657,17.84818 -23.3682,25.95014 -2.22244,8.25349 -3.50811,8.88507 -7.99477,3.92738 -4.94345,-5.46247 -19.66436,-10.9069 -34.61633,-12.80263 -24.80665,-3.14517 -47.64776,3.18175 -63.66339,17.63458 l -8.1024,7.31177 12.60373,-6.20235 c 20.30598,-9.99267 49.99492,-11.53854 65.6933,-3.42059 11.17182,5.77717 36.48289,34.98542 43.2635,49.92485 4.35579,9.59689 4.66617,21.66501 0.64308,25.00388 -4.24546,3.52342 -15.62473,2.67227 -22.69524,-1.69755 -6.28582,-3.88485 -7.04052,-5.03134 -14.47169,-21.98462 -8.97109,-20.46638 -25.2012,-32.27533 -44.40636,-32.30985 -23.46987,-0.0422 -38.63205,16.62647 -35.30499,38.81286 l 1.28662,8.57979 3.18981,-7.12468 c 4.84525,-10.82222 13.07086,-16.87863 22.92401,-16.87863 27.67817,0 47.09507,32.56886 34.34409,57.60691 -4.90754,9.63649 -16.08532,16.21495 -27.55167,16.21495 -18.3259,0 -43.45837,-12.11418 -64.8269,-31.24744 C 183.37323,321.8637 161.49568,277.78597 147.83013,218.4225 l -5.20332,-22.60335 0.65353,27.90826 c 0.53555,22.86969 1.48577,30.99811 5.26319,45.02267 11.43565,42.4575 36.36556,84.74467 71.59196,121.4373 7.85534,8.18231 14.28244,16.10003 14.28244,17.59494 0,5.04005 -29.62637,14.01868 -45.9136,13.91466 -18.52474,-0.11829 -32.07873,-7.3253 -42.9826,-22.85496 -4.74214,-6.75392 -5.72182,-7.43063 -6.20167,-4.28379 -0.98934,6.48797 8.70196,25.1358 16.60973,31.96017 5.2999,4.57378 6.64632,6.64197 4.7984,7.37062 -6.27824,2.47559 -18.59304,16.29843 -23.50896,26.38779 -11.43792,23.47503 -14.10071,52.80674 -6.18357,68.11462 l 3.45268,6.67576 0.0881,-20.17976 c 0.0721,-16.50812 0.81983,-22.02904 4.10971,-30.34347 6.83111,-17.2641 12.89421,-23.92024 28.58856,-31.3848 30.3015,-14.41203 51.04222,-19.23072 62.38115,-14.49302 5.98897,2.50235 6.56258,3.36751 6.56258,9.89789 0,5.08494 -1.3589,8.77082 -4.69554,12.7362 -6.69578,7.95748 -10.50584,9.5126 -26.98621,11.01471 -20.7823,1.89421 -34.59048,9.61216 -43.06321,24.06978 -14.05158,23.97721 -2.97628,49.52444 23.49199,54.18865 l 7.13991,1.25819 -6.69934,-6.65961 c -15.0235,-14.93444 -9.81909,-36.05143 11.50385,-46.6771 12.83443,-6.39565 24.66067,-6.31263 37.606,0.264 12.21948,6.20788 16.93359,13.71927 16.74619,26.68316 -0.19588,13.55189 -6.38217,24.62098 -23.09764,41.32848 -31.9225,31.90732 -78.41823,45.82788 -144.991321,43.40956 -16.33983,-0.59354 -32.94975,-1.50452 -36.91093,-2.02437 l -7.20213,-0.94519 6.30187,2.95964 c 11.35036,5.33068 36.18224,11.3417 55.401241,13.41095 42.60598,4.58723 97.42282,-7.40532 147.91579,-32.3603 9.48521,-4.68785 15.79629,-6.85814 16.85742,-5.79701 2.87378,2.87377 2.10581,36.12827 -1.08599,47.02466 -4.72178,16.11956 -17.45279,28.70954 -34.53381,34.15122 -12.01748,3.82855 -11.44743,5.46312 1.89055,5.42097 12.31227,-0.0389 25.75137,-4.16218 28.60264,-8.77563 2.39619,-3.87715 6.1487,-1.90637 7.35687,3.86371 4.46817,21.33934 38.73372,49.36651 65.03294,53.193 10.20412,1.48469 22.25405,0.78858 22.25405,-1.28556 0,-0.79258 -4.11373,-1.92826 -9.14163,-2.52373 -17.42304,-2.06351 -41.59613,-16.20388 -51.06932,-29.87369 -9.90891,-14.29858 -13.25624,-66.04936 -5.32189,-82.27819 6.15345,-12.5862 18.10408,-12.44858 25.98265,0.29923 4.30029,6.95801 4.50461,16.54859 0.67133,31.51134 -5.89386,23.00603 3.92871,46.20464 23.59451,55.72469 18.49448,8.95304 36.74037,2.0358 46.70812,-17.70758 l 3.02633,-5.99434 -5.46582,4.04105 c -8.29913,6.13582 -22.72212,6.77438 -30.62819,1.35602 -22.21366,-15.22389 -17.35836,-58.60556 7.61286,-68.02008 25.79035,-9.72333 51.05777,15.54786 63.79894,63.8085 3.60313,13.64781 3.95017,50.77468 0.64797,69.32053 -3.49064,19.60428 -13.14301,50.3982 -23.33782,74.45458 -4.88861,11.53551 -8.63711,20.97368 -8.32997,20.97368 0.30713,0 4.32315,-5.00821 8.92448,-11.12933 z M 354.92253,583.81524 c -23.88883,-3.74385 -52.45548,-19.29253 -67.14709,-36.54781 -9.21954,-10.82834 -19.10978,-28.47915 -23.90182,-42.65685 -4.77172,-14.11755 -4.74113,-50.85759 0.054,-64.81919 12.8377,-37.3788 38.5402,-63.52261 73.63479,-74.89907 21.04997,-6.82369 48.05194,-6.854 68.94767,-0.0774 44.79789,14.5282 75.04528,53.91196 77.63434,101.08422 3.42033,62.31787 -42.78546,114.52185 -104.93966,118.5624 -7.83646,0.50943 -18.76345,0.21861 -24.28219,-0.64628 z m 50.04365,-8.87207 c 35.72035,-12.00558 62.73946,-41.16195 71.83029,-77.51222 4.01462,-16.05267 2.60698,-45.18564 -2.94664,-60.98501 -21.0637,-59.92363 -90.58162,-88.85735 -147.93769,-61.57243 -55.40412,26.35634 -77.8839,94.37442 -48.82848,147.7424 15.20709,27.93182 39.88858,47.18567 70.45158,54.95881 14.2007,3.61167 42.74718,2.30364 57.43094,-2.63155 z"
      fill="#ffffff"/>
  </g>
</svg>
