<svg width="16" height="16" viewBox="0 0 16 16" fill="none" xmlns="http://www.w3.org/2000/svg">
<path d="M7.67992 12.7987C6.49175 12.7987 5.35225 12.3267 4.51208 11.4865C3.67192 10.6463 3.19992 9.50684 3.19992 8.31867C3.19992 7.1305 3.67192 5.991 4.51208 5.15083C5.35225 4.31067 6.49175 3.83867 7.67992 3.83867C8.86809 3.83867 10.0076 4.31067 10.8478 5.15083C11.6879 5.991 12.1599 7.1305 12.1599 8.31867C12.1599 9.50684 11.6879 10.6463 10.8478 11.4865C10.0076 12.3267 8.86809 12.7987 7.67992 12.7987ZM12.1791 4.72827L13.0879 3.81947C12.7999 3.49307 12.5119 3.19867 12.1855 2.91707L11.2767 3.83867C10.2847 3.03227 9.03672 2.55867 7.67992 2.55867C6.15227 2.55867 4.6872 3.16553 3.60699 4.24574C2.52678 5.32595 1.91992 6.79102 1.91992 8.31867C1.91992 9.84632 2.52678 11.3114 3.60699 12.3916C4.6872 13.4718 6.15227 14.0787 7.67992 14.0787C10.8799 14.0787 13.4399 11.4995 13.4399 8.31867C13.4399 6.96187 12.9663 5.71387 12.1791 4.72827ZM7.03992 8.95867H8.31992V5.11867H7.03992M9.59992 0.638672H5.75992V1.91867H9.59992V0.638672Z" fill="white"/>
</svg>
