<svg width="16" height="16" viewBox="0 0 16 16" fill="none" xmlns="http://www.w3.org/2000/svg">
<path d="M8.00078 12.0008C8.22745 12.0008 8.41758 11.924 8.57118 11.7704C8.72478 11.6168 8.80131 11.4269 8.80078 11.2008C8.80025 10.9746 8.72345 10.7848 8.57038 10.6312C8.41731 10.4776 8.22745 10.4008 8.00078 10.4008C7.77411 10.4008 7.58425 10.4776 7.43118 10.6312C7.27811 10.7848 7.20131 10.9746 7.20078 11.2008C7.20025 11.4269 7.27705 11.617 7.43118 11.7712C7.58531 11.9253 7.77518 12.0018 8.00078 12.0008ZM8.00078 8.80078C8.22745 8.80078 8.41758 8.72398 8.57118 8.57038C8.72478 8.41678 8.80131 8.22691 8.80078 8.00078V4.80078C8.80078 4.57411 8.72398 4.38425 8.57038 4.23118C8.41678 4.07811 8.22691 4.00131 8.00078 4.00078C7.77465 4.00025 7.58478 4.07705 7.43118 4.23118C7.27758 4.38531 7.20078 4.57518 7.20078 4.80078V8.00078C7.20078 8.22745 7.27758 8.41758 7.43118 8.57118C7.58478 8.72478 7.77465 8.80131 8.00078 8.80078ZM5.66078 15.2008C5.44745 15.2008 5.24425 15.1608 5.05118 15.0808C4.85811 15.0008 4.68798 14.8874 4.54078 14.7408L1.26078 11.4608C1.11411 11.3141 1.00078 11.144 0.920781 10.9504C0.840781 10.7568 0.800781 10.5538 0.800781 10.3416V5.66158C0.800781 5.44825 0.840781 5.24505 0.920781 5.05198C1.00078 4.85891 1.11411 4.68878 1.26078 4.54158L4.54078 1.26158C4.68745 1.11491 4.85758 1.00158 5.05118 0.921581C5.24478 0.841581 5.44798 0.801315 5.66078 0.800781H10.3408C10.5541 0.800781 10.7576 0.840781 10.9512 0.920781C11.1448 1.00078 11.3146 1.11411 11.4608 1.26078L14.7408 4.54078C14.8874 4.68745 15.0008 4.85758 15.0808 5.05118C15.1608 5.24478 15.2008 5.44798 15.2008 5.66078V10.3408C15.2008 10.5541 15.1608 10.7576 15.0808 10.9512C15.0008 11.1448 14.8874 11.3146 14.7408 11.4608L11.4608 14.7408C11.3141 14.8874 11.144 15.0008 10.9504 15.0808C10.7568 15.1608 10.5536 15.2008 10.3408 15.2008H5.66078ZM5.68078 13.6008H10.3208L13.6008 10.3208V5.68078L10.3208 2.40078H5.68078L2.40078 5.68078V10.3208L5.68078 13.6008Z" fill="white"/>
</svg>
