<svg width="16" height="16" viewBox="0 0 16 16" fill="none" xmlns="http://www.w3.org/2000/svg">
<path d="M8 0.617188C6.41537 0.617188 5.11719 1.91537 5.11719 3.5C5.11719 4.40745 5.54339 5.22041 6.20485 5.75H3.5L0.125 15.875H15.875L12.5 5.75H9.79515C10.4566 5.22041 10.8828 4.40745 10.8828 3.5C10.8828 1.91537 9.58463 0.617188 8 0.617188ZM8 1.88281C8.90063 1.88281 9.61719 2.59937 9.61719 3.5C9.61719 4.40063 8.90063 5.11719 8 5.11719C7.09937 5.11719 6.38281 4.40063 6.38281 3.5C6.38281 2.59937 7.09937 1.88281 8 1.88281ZM5.10963 9.01777H5.9358V10.1872L7.12665 9.01774H8.08582L6.54305 10.5347L8.24462 12.2213H7.21039L5.9358 10.9596V12.2213H5.10963V9.01777ZM9.32606 9.76449C9.4934 9.76449 9.64078 9.79733 9.76808 9.86314C9.89534 9.92895 10.012 10.0326 10.1179 10.1743V9.81814H10.8903V11.9789C10.8903 12.3651 10.768 12.6598 10.5234 12.863C10.2802 13.0676 9.92684 13.1698 9.46334 13.1698C9.31316 13.1698 9.16803 13.1583 9.02776 13.1354C8.88763 13.1126 8.74665 13.0775 8.60504 13.0303V12.4316C8.73955 12.5089 8.87117 12.5661 8.99984 12.6033C9.12866 12.6419 9.25814 12.6613 9.38832 12.6613C9.64011 12.6613 9.82461 12.6062 9.94189 12.496C10.0592 12.3859 10.1179 12.2135 10.1179 11.9789V11.8137C10.0121 11.9538 9.89541 12.0569 9.76808 12.1227C9.64081 12.1884 9.4934 12.2214 9.32606 12.2214C9.03275 12.2214 8.79035 12.1062 8.59868 11.8759C8.40697 11.6442 8.3111 11.3495 8.3111 10.9919C8.3111 10.6328 8.40697 10.3388 8.59868 10.11C8.79035 9.8797 9.03275 9.76449 9.32606 9.76449ZM9.61146 10.3181C9.45266 10.3181 9.32887 10.3768 9.24021 10.494C9.15151 10.6114 9.10718 10.7773 9.10718 10.9919C9.10718 11.2122 9.15007 11.3795 9.23592 11.4939C9.32177 11.607 9.44696 11.6635 9.61146 11.6635C9.77166 11.6635 9.89608 11.6048 9.98482 11.4875C10.0735 11.3702 10.1178 11.205 10.1178 10.9919C10.1178 10.7773 10.0735 10.6113 9.98478 10.4941C9.89608 10.3767 9.77166 10.3181 9.61142 10.3181H9.61146Z" fill="white"/>
</svg>
